<?xml version="1.0" encoding="UTF-8" standalone="no"?>
<!-- Created with Inkscape (http://www.inkscape.org/) -->

<svg
   xmlns:dc="http://purl.org/dc/elements/1.1/"
   xmlns:cc="http://creativecommons.org/ns#"
   xmlns:rdf="http://www.w3.org/1999/02/22-rdf-syntax-ns#"
   xmlns:svg="http://www.w3.org/2000/svg"
   xmlns="http://www.w3.org/2000/svg"
   xmlns:sodipodi="http://sodipodi.sourceforge.net/DTD/sodipodi-0.dtd"
   xmlns:inkscape="http://www.inkscape.org/namespaces/inkscape"
   width="297mm"
   height="210mm"
   viewBox="0 0 1052.3622 744.09448"
   id="svg3726"
   version="1.1"
   inkscape:version="0.91 r13725"
   sodipodi:docname="Guitarra_Top.svg">
  <defs
     id="defs3728" />
  <sodipodi:namedview
     id="base"
     pagecolor="#ffffff"
     bordercolor="#666666"
     borderopacity="1.0"
     inkscape:pageopacity="0.0"
     inkscape:pageshadow="2"
     inkscape:zoom="18.33695"
     inkscape:cx="238.76258"
     inkscape:cy="478.29655"
     inkscape:document-units="px"
     inkscape:current-layer="layer2"
     showgrid="false"
     inkscape:snap-page="false"
     inkscape:window-width="1301"
     inkscape:window-height="744"
     inkscape:window-x="65"
     inkscape:window-y="24"
     inkscape:window-maximized="1" />
  <metadata
     id="metadata3731">
    <rdf:RDF>
      <cc:Work
         rdf:about="">
        <dc:format>image/svg+xml</dc:format>
        <dc:type
           rdf:resource="http://purl.org/dc/dcmitype/StillImage" />
        <dc:title />
      </cc:Work>
    </rdf:RDF>
  </metadata>
  <g
     inkscape:groupmode="layer"
     id="layer2"
     inkscape:label="SilkS">
    <path
       transform="translate(0,-308.26772)"
       style="display:inline;opacity:1;fill:#b4b4b4;fill-opacity:1;stroke:none;stroke-width:1.78600061;stroke-linecap:round;stroke-linejoin:round;stroke-miterlimit:10;stroke-dasharray:none;stroke-opacity:1"
       d="m 374.93706,637.24342 c -16.7078,-0.95833 -31.1399,14.67627 -51.8043,22.41096 -31.9194,6.72118 -47.0606,-7.4763 -78.45727,-15.116 -18.36234,-3.9229 -35.26203,11.90486 -37.94509,28.95973 -2.99923,26.84194 7.3316,46.67582 10.18511,76.45336 0.51089,17.87498 3.65292,32.48195 -7.7703,48.32578 -3.55302,4.92797 -8.32127,9.8916 -13.33336,15.18477 -7.39383,5.94788 -1.27658,14.85731 9.62466,15.53553 16.61218,-1.24969 39.19556,-10.08604 68.36205,-24.62711 14.32,-7.57677 31.9674,-17.71501 49.2097,-18.17634 23.2295,-0.97806 26.6843,1.71112 53.88,12.59208 15.6823,6.93292 38.6477,4.34769 42.9063,2.54454 8.5085,-3.60269 5.4329,-9.65923 -1.7575,-10.62518 -12.2086,-1.64017 -24.3747,-10.10563 -30.2994,-16.36081 -7.2141,-10.66597 -6.7063,-21.14043 -0.8649,-38.09944 0.9799,-3.37598 2.3033,-8.23723 3.6811,-13.60988 l 562.3058,0 c 0.6716,3.04319 3.3833,5.21192 6.5179,5.21284 1.7698,5.4e-4 3.4674,-0.69752 4.7195,-1.94072 1.2521,-1.24321 1.9563,-2.92976 1.9575,-4.68882 6e-4,-1.76026 -0.7027,-3.44859 -1.955,-4.69328 -1.2523,-1.2447 -2.951,-1.94372 -4.722,-1.94317 -1.6117,10e-4 -3.1685,0.58172 -4.3831,1.63466 -1.2145,1.05295 -2.0048,2.50712 -2.2248,4.09398 l -561.6416,0 c 0.7228,-2.89681 1.4308,-5.71065 2.1381,-8.9403 l 538.7735,0 c 1.0537,2.43095 3.4604,4.00673 6.1235,4.00937 1.771,5.4e-4 3.4697,-0.69846 4.722,-1.94316 1.2523,-1.2447 1.9556,-2.93303 1.9551,-4.69329 -10e-4,-1.75908 -0.7054,-3.44564 -1.9575,-4.68886 -1.2521,-1.24321 -2.9497,-1.94128 -4.7196,-1.94073 -1.7698,-5.4e-4 -3.4674,0.69751 -4.7196,1.94073 -1.2521,1.24321 -1.9562,2.92978 -1.9575,4.68886 0,0.0987 0.01,0.19729 0.014,0.29576 l -537.7425,0 c 0.6124,-2.90712 1.1949,-5.88253 1.7299,-8.94033 l 515.3864,0 c 1.0778,2.37462 3.4541,3.90256 6.0751,3.90623 1.771,5.4e-4 3.4697,-0.69846 4.722,-1.94315 1.2523,-1.24471 1.9556,-2.93305 1.9551,-4.69331 -0.001,-1.75908 -0.7054,-3.44564 -1.9575,-4.68884 -1.2522,-1.2432 -2.9498,-1.94126 -4.7196,-1.94071 -1.7698,-5.4e-4 -3.4674,0.69752 -4.7196,1.94071 -1.2521,1.24322 -1.9562,2.92977 -1.9575,4.68884 0,0.13546 0.01,0.2708 0.021,0.40582 l -514.3969,0 c 0.4862,-2.95371 0.8992,-5.94076 1.2592,-8.94032 l 492.553,0 c 1.1028,2.31588 3.4488,3.79358 6.0267,3.79615 1.771,5.4e-4 3.4697,-0.69847 4.722,-1.94316 1.2523,-1.24471 1.9556,-2.93305 1.955,-4.69333 6e-4,-1.76025 -0.7027,-3.44857 -1.955,-4.69325 -1.2524,-1.24469 -2.951,-1.94369 -4.722,-1.94313 -1.7711,-5.4e-4 -3.4697,0.69846 -4.722,1.94314 -1.2523,1.24469 -1.9556,2.933 -1.9551,4.69324 0,0.17224 0.012,0.34431 0.028,0.51582 l -491.6811,0 c 0.3206,-3.0015 0.5517,-5.98314 0.6919,-8.94029 l 470.446,0 c 1.1267,2.25745 3.4428,3.68559 5.9782,3.68615 1.7711,5.4e-4 3.4697,-0.69843 4.7221,-1.94314 1.2523,-1.2447 1.9556,-2.93306 1.955,-4.69334 6e-4,-1.76027 -0.7027,-3.44862 -1.955,-4.69332 -1.2524,-1.2447 -2.951,-1.94371 -4.7221,-1.94314 -1.771,-5.4e-4 -3.4697,0.69849 -4.722,1.94317 -1.2523,1.24471 -1.9556,2.93304 -1.955,4.69329 0,0.20914 0.018,0.41799 0.041,0.62583 l -469.6572,0 c 0.089,-3.0533 0.048,-6.03479 -0.1176,-8.9403 l 449.28,0 c 1.149,2.19225 3.429,3.5678 5.916,3.56925 1.7698,5.4e-4 3.4674,-0.69751 4.7196,-1.94073 1.2521,-1.24321 1.9562,-2.92977 1.9575,-4.68885 5e-4,-1.76027 -0.7028,-3.44862 -1.9551,-4.69332 -1.2523,-1.2447 -2.951,-1.94373 -4.722,-1.94316 -1.7711,-5.4e-4 -3.4697,0.69843 -4.7221,1.94315 -1.2523,1.2447 -1.9556,2.93305 -1.955,4.69333 0,0.2437 0.019,0.48706 0.049,0.72899 l -448.7819,0 c -1.1489,-13.4215 -5.4644,-20.41981 -15.6306,-24.94863 -2.5043,-1.07854 -4.9406,-1.64428 -7.3274,-1.7812 z"
       id="path72-4-6-51"
       inkscape:connector-curvature="0"
       sodipodi:nodetypes="cccccscccccsccccccscscscccccscscsccccccscscsccccccscscsccccccscscsccccccscscscccccc" />
    <path
       transform="translate(0,-308.26772)"
       style="display:inline;opacity:1;fill:#b4b4b4;fill-opacity:1;stroke:none;stroke-width:2.00000072;stroke-miterlimit:4;stroke-dasharray:none;stroke-opacity:1"
       d="m 215.51377,608.78082 c 0,3.12459 -0.36609,6.1642 -1.05795,9.07876 -0.91957,3.87379 -2.41465,7.52668 -4.3906,10.86462 -2.16856,3.66332 -4.91632,6.94728 -8.11818,9.72757 -3.31251,2.87637 -7.11106,5.21364 -11.25711,6.87413 -4.57313,1.83153 -9.56905,2.83967 -14.80188,2.83967 -5.9103,0 -11.51838,-1.28608 -16.55641,-3.59204 -4.74395,-2.17135 -8.98245,-5.24699 -12.4919,-9.00466 -3.41899,-3.66081 -6.14602,-7.96895 -7.97433,-12.71891 -1.68175,-4.3692 -2.60309,-9.11223 -2.60309,-14.06914 0,-3.00755 0.33918,-5.93636 0.98158,-8.75072 0.99419,-4.35549 2.71463,-8.43683 5.0281,-12.11162 1.34162,-2.13107 2.88269,-4.12542 4.5972,-5.95721 2.32494,-2.48397 4.96883,-4.66903 7.86689,-6.49079 2.80763,-1.76491 5.85382,-3.18884 9.07964,-4.21323 3.80627,-1.20872 7.86263,-1.86117 12.07232,-1.86117 3.0155,0 5.95233,0.33479 8.77491,0.969 3.78306,0.85003 7.3609,2.23795 10.64787,4.07863 3.20377,1.79408 6.13121,4.0183 8.70301,6.59382 2.39529,2.39876 4.48209,5.10226 6.19633,8.04682 2.05172,3.52427 3.56973,7.39384 4.4442,11.49956 0.56315,2.64409 0.8594,5.38611 0.8594,8.19691 z"
       id="circle70155"
       inkscape:connector-curvature="0"
       sodipodi:nodetypes="ssssssssssssssssssssss" />
    <path
       style="opacity:0.79000005;fill:#b4b4b4;fill-opacity:1;stroke:none;stroke-width:1;stroke-linecap:round;stroke-miterlimit:4;stroke-dasharray:none;stroke-dashoffset:0;stroke-opacity:1"
       d="m 245.45117,257.41797 c -1.05274,-1e-5 -2.07079,0.1485 -3.03435,0.42572 -1.65412,0.47589 -3.14763,1.3311 -4.38032,2.4654 -1.03032,0.94808 -1.87843,2.09114 -2.48579,3.37065 -0.67502,1.42202 -1.05268,3.01258 -1.05266,4.69135 -2e-5,1.92466 0.49638,3.73337 1.36814,5.30509 0.756,1.36302 1.79431,2.5478 3.03595,3.47539 1.82669,1.36466 4.0935,2.17268 6.54903,2.17265 1.93459,2e-5 3.75204,-0.50151 5.32941,-1.38167 0.97625,-0.54474 1.86054,-1.2345 2.62372,-2.04015 0.78955,-0.8335 1.44948,-1.79102 1.94751,-2.84031 0.67491,-1.42193 1.05251,-3.01237 1.05249,-4.691 2e-5,-1.60507 -0.34521,-3.1295 -0.96548,-4.50309 -0.39527,-0.87532 -0.90222,-1.68939 -1.5027,-2.42403 -0.96112,-1.17587 -2.16185,-2.14826 -3.52766,-2.84265 -1.09944,-0.55897 -2.30585,-0.93781 -3.58038,-1.09765 -0.45101,-0.0566 -0.91056,-0.0857 -1.37691,-0.0857 z m -3.59179,7.07031 c 1.2025,0 2.19429,0.51961 2.77929,1.38086 l -0.83008,0.97461 c -0.13,-0.0975 -0.0307,-0.2593 -0.0957,-0.37305 -0.0487,-0.0975 -0.65047,-0.97461 -1.91797,-0.97461 -1.365,0 -2.45508,1.0561 -2.45508,2.7461 0,1.73875 1.10649,2.9414 2.55274,2.9414 0.73125,0 1.46109,-0.32578 1.96484,-0.89453 l 0.66797,0.7793 c -0.69875,0.76375 -1.70672,1.1875 -2.73047,1.1875 -2.1125,0 -3.65625,-1.65789 -3.65625,-3.90039 0,-2.22625 1.54321,-3.86719 3.72071,-3.86719 z m 8.125,0 c 1.2025,0 2.19429,0.51961 2.77929,1.38086 l -0.83008,0.97461 c -0.13,-0.0975 -0.0307,-0.2593 -0.0957,-0.37305 -0.0487,-0.0975 -0.65047,-0.97461 -1.91797,-0.97461 -1.365,0 -2.45508,1.0561 -2.45508,2.7461 0,1.73875 1.10649,2.9414 2.55274,2.9414 0.73125,0 1.46109,-0.32578 1.96484,-0.89453 l 0.66797,0.7793 c -0.69875,0.76375 -1.70672,1.1875 -2.73047,1.1875 -2.1125,0 -3.65625,-1.65789 -3.65625,-3.90039 0,-2.22625 1.54321,-3.86719 3.72071,-3.86719 z"
       id="path4143"
       inkscape:connector-curvature="0"
       sodipodi:nodetypes="cssscsscssscsssscscccsssccsssscccsssccsss" />
  </g>
</svg>
