M48
;DRILL file {KiCad 4.0.6-e0-6349~53~ubuntu16.04.1} date Fri May  5 11:32:48 2017
;FORMAT={2:4/ absolute / inch / suppress trailing zeros}
FMAT,2
INCH,LZ
T1C0.016
T2C0.030
T3C0.032
T4C0.039
T5C0.040
T6C0.043
T7C0.047
T8C0.059
T9C0.079
T10C0.087
T11C0.120
%
G90
G05
M72
T1
X-028289Y009665
X-020784Y-00934
X-012535Y-00353
T2
X-025592Y007666
X-025592Y005666
X-024592Y007666
X-024592Y005666
X-023232Y007666
X-023232Y005666
X-022232Y007666
X-022232Y005666
T3
X-02267Y001726
X-02267Y000726
X-02267Y-000274
X-02267Y-001274
X-02267Y-002274
T4
X-037084Y-008806
X-0361Y-008806
X-035116Y-008806
X-030536Y-004856
X-029552Y-004856
X-028568Y-004856
T5
X-031289Y009665
X-030289Y009665
X-02979Y-009336
X-029289Y009665
X-02879Y-009336
X-028289Y009665
X-02779Y-009336
X-027289Y009665
X-02679Y-009336
X-026289Y009665
X-02579Y-009336
X-025289Y009665
X-02479Y-009336
X-024289Y009665
X-02379Y-009336
X-02279Y-009336
X-02277Y009646
X-02177Y009646
X-020784Y-00934
X-02077Y009646
X-019784Y-00934
X-01977Y009646
X-018784Y-00934
X-01877Y009665
X-017784Y-00934
X-01777Y009646
X-016784Y-00934
X-01677Y009646
X-015784Y-00934
X-01577Y009646
T6
X-03927Y00928
X-035333Y00928
T7
X-01725Y002226
X-01725Y-002774
X-01525Y002226
X-01525Y-002774
X-01075Y002226
X-01075Y-002774
X-00875Y002226
X-00875Y-002774
X-00425Y002226
X-00425Y-002774
X-00225Y002226
X-00225Y-002774
X00225Y002226
X00225Y-002774
X00425Y002226
X00425Y-002774
X008751Y002226
X008751Y-002774
X010751Y002226
X010751Y-002774
X01525Y002226
X01525Y-002774
X01725Y002226
X01725Y-002774
X02175Y002226
X02175Y-002774
X02375Y002226
X02375Y-002774
X02827Y002232
X02827Y-002768
X03027Y002232
X03027Y-002768
T8
X-041288Y-012792
X-040467Y-009242
X-04016Y-010328
X-039005Y-013237
X-037084Y-01101
T9
X-043884Y000823
X-043884Y-001185
X-038884Y001669
X-038884Y-000181
X-038884Y-002051
T10
X-03799Y-00605
X-03421Y-00605
X-031442Y-0021
X-027662Y-0021
T11
X-043756Y004388
X-007853Y012983
T0
M30
