G04 #@! TF.FileFunction,Profile,NP*
%FSLAX45Y45*%
G04 Gerber Fmt 4.5, Leading zero omitted, Abs format (unit mm)*
G04 Created by KiCad (PCBNEW 4.0.6-e0-6349~53~ubuntu16.04.1) date Fri May  5 11:32:33 2017*
%MOMM*%
%LPD*%
G01*
G04 APERTURE LIST*
%ADD10C,0.150000*%
%ADD11C,0.100000*%
G04 APERTURE END LIST*
D10*
D11*
X7997155Y-1011956D02*
X8033782Y-1011975D01*
X-8572475Y4297460D02*
X-8572498Y4297460D01*
X-8572498Y4297460D02*
X-8572475Y4297460D01*
X8082019Y878403D02*
X-1580341Y902212D01*
X-8492851Y4296101D02*
X-8572498Y4297460D01*
X-8412611Y4292511D02*
X-8492851Y4296101D01*
X-8331783Y4286693D02*
X-8412611Y4292511D01*
X-8250371Y4278650D02*
X-8331783Y4286693D01*
X-8168379Y4268385D02*
X-8250371Y4278650D01*
X-8085810Y4255900D02*
X-8168379Y4268385D01*
X-8002669Y4241196D02*
X-8085810Y4255900D01*
X-7918960Y4224278D02*
X-8002669Y4241196D01*
X-7834686Y4205148D02*
X-7918960Y4224278D01*
X-7749852Y4183807D02*
X-7834686Y4205148D01*
X-7664463Y4160258D02*
X-7749852Y4183807D01*
X-7578521Y4134505D02*
X-7664463Y4160258D01*
X-7492031Y4106549D02*
X-7578521Y4134505D01*
X-7404997Y4076394D02*
X-7492031Y4106549D01*
X-7317423Y4044040D02*
X-7404997Y4076394D01*
X-7229314Y4009492D02*
X-7317423Y4044040D01*
X-7140672Y3972752D02*
X-7229314Y4009492D01*
X-7051502Y3933821D02*
X-7140672Y3972752D01*
X-6961809Y3892704D02*
X-7051502Y3933821D01*
X-6871596Y3849401D02*
X-6961809Y3892704D01*
X-6780867Y3803916D02*
X-6871596Y3849401D01*
X-6689626Y3756252D02*
X-6780867Y3803916D01*
X-6597878Y3706410D02*
X-6689626Y3756252D01*
X-6505626Y3654393D02*
X-6597878Y3706410D01*
X-6412874Y3600204D02*
X-6505626Y3654393D01*
X-6319627Y3543846D02*
X-6412874Y3600204D01*
X-6225888Y3485320D02*
X-6319627Y3543846D01*
X-6131662Y3424629D02*
X-6225888Y3485320D01*
X-6036953Y3361777D02*
X-6131662Y3424629D01*
X-5941763Y3296764D02*
X-6036953Y3361777D01*
X-5846099Y3229595D02*
X-5941763Y3296764D01*
X-5780476Y3185766D02*
X-5846099Y3229595D01*
X-5715960Y3145851D02*
X-5780476Y3185766D01*
X-5652468Y3109738D02*
X-5715960Y3145851D01*
X-5589914Y3077316D02*
X-5652468Y3109738D01*
X-5528213Y3048473D02*
X-5589914Y3077316D01*
X-5467279Y3023097D02*
X-5528213Y3048473D01*
X-5407029Y3001077D02*
X-5467279Y3023097D01*
X-5347375Y2982302D02*
X-5407029Y3001077D01*
X-5288235Y2966659D02*
X-5347375Y2982302D01*
X-5229521Y2954037D02*
X-5288235Y2966659D01*
X-5171151Y2944325D02*
X-5229521Y2954037D01*
X-5113037Y2937411D02*
X-5171151Y2944325D01*
X-5055096Y2933183D02*
X-5113037Y2937411D01*
X-4997241Y2931531D02*
X-5055096Y2933183D01*
X-4939389Y2932341D02*
X-4997241Y2931531D01*
X-4881454Y2935503D02*
X-4939389Y2932341D01*
X-4823350Y2940905D02*
X-4881454Y2935503D01*
X-4764993Y2948436D02*
X-4823350Y2940905D01*
X-4706298Y2957983D02*
X-4764993Y2948436D01*
X-4647180Y2969436D02*
X-4706298Y2957983D01*
X-4587553Y2982683D02*
X-4647180Y2969436D01*
X-4527332Y2997612D02*
X-4587553Y2982683D01*
X-4466433Y3014111D02*
X-4527332Y2997612D01*
X-4404770Y3032070D02*
X-4466433Y3014111D01*
X-4342258Y3051375D02*
X-4404770Y3032070D01*
X-4278812Y3071917D02*
X-4342258Y3051375D01*
X-4214347Y3093583D02*
X-4278812Y3071917D01*
X-4148778Y3116262D02*
X-4214347Y3093583D01*
X-4082020Y3139841D02*
X-4148778Y3116262D01*
X-4013988Y3164210D02*
X-4082020Y3139841D01*
X-3944596Y3189258D02*
X-4013988Y3164210D01*
X-3862089Y3221173D02*
X-3944596Y3189258D01*
X-3780078Y3252551D02*
X-3862089Y3221173D01*
X-3698557Y3283356D02*
X-3780078Y3252551D01*
X-3617521Y3313553D02*
X-3698557Y3283356D01*
X-3536962Y3343109D02*
X-3617521Y3313553D01*
X-3456876Y3371988D02*
X-3536962Y3343109D01*
X-3377255Y3400157D02*
X-3456876Y3371988D01*
X-3298094Y3427581D02*
X-3377255Y3400157D01*
X-3219387Y3454225D02*
X-3298094Y3427581D01*
X-3141128Y3480056D02*
X-3219387Y3454225D01*
X-3063310Y3505038D02*
X-3141128Y3480056D01*
X-2985928Y3529137D02*
X-3063310Y3505038D01*
X-2908975Y3552319D02*
X-2985928Y3529137D01*
X-2832446Y3574549D02*
X-2908975Y3552319D01*
X-2756334Y3595793D02*
X-2832446Y3574549D01*
X-2680633Y3616016D02*
X-2756334Y3595793D01*
X-2605338Y3635184D02*
X-2680633Y3616016D01*
X-2530442Y3653263D02*
X-2605338Y3635184D01*
X-2455939Y3670217D02*
X-2530442Y3653263D01*
X-2381823Y3686014D02*
X-2455939Y3670217D01*
X-2308088Y3700617D02*
X-2381823Y3686014D01*
X-2234728Y3713993D02*
X-2308088Y3700617D01*
X-2161737Y3726107D02*
X-2234728Y3713993D01*
X-2089108Y3736926D02*
X-2161737Y3726107D01*
X-2016837Y3746413D02*
X-2089108Y3736926D01*
X-1944916Y3754535D02*
X-2016837Y3746413D01*
X-1873340Y3761258D02*
X-1944916Y3754535D01*
X-1802102Y3766547D02*
X-1873340Y3761258D01*
X-1731197Y3770367D02*
X-1802102Y3766547D01*
X-1660618Y3772685D02*
X-1731197Y3770367D01*
X-1590360Y3773465D02*
X-1660618Y3772685D01*
X-1562096Y3772426D02*
X-1590360Y3773465D01*
X-1533778Y3771252D02*
X-1562096Y3772426D01*
X-1505419Y3769932D02*
X-1533778Y3771252D01*
X-1477027Y3768457D02*
X-1505419Y3769932D01*
X-1448612Y3766817D02*
X-1477027Y3768457D01*
X-1420186Y3765001D02*
X-1448612Y3766817D01*
X-1391757Y3762998D02*
X-1420186Y3765001D01*
X-1363337Y3760800D02*
X-1391757Y3762998D01*
X-1334935Y3758394D02*
X-1363337Y3760800D01*
X-1306561Y3755773D02*
X-1334935Y3758394D01*
X-1278225Y3752924D02*
X-1306561Y3755773D01*
X-1249939Y3749838D02*
X-1278225Y3752924D01*
X-1221711Y3746505D02*
X-1249939Y3749838D01*
X-1193552Y3742914D02*
X-1221711Y3746505D01*
X-1165472Y3739056D02*
X-1193552Y3742914D01*
X-1137481Y3734919D02*
X-1165472Y3739056D01*
X-1109589Y3730495D02*
X-1137481Y3734919D01*
X-1081807Y3725772D02*
X-1109589Y3730495D01*
X-1054144Y3720740D02*
X-1081807Y3725772D01*
X-1026611Y3715390D02*
X-1054144Y3720740D01*
X-999218Y3709711D02*
X-1026611Y3715390D01*
X-971975Y3703692D02*
X-999218Y3709711D01*
X-944891Y3697324D02*
X-971975Y3703692D01*
X-917978Y3690597D02*
X-944891Y3697324D01*
X-891246Y3683500D02*
X-917978Y3690597D01*
X-864703Y3676022D02*
X-891246Y3683500D01*
X-838362Y3668155D02*
X-864703Y3676022D01*
X-812231Y3659887D02*
X-838362Y3668155D01*
X-786321Y3651208D02*
X-812231Y3659887D01*
X-760642Y3642108D02*
X-786321Y3651208D01*
X-735204Y3632578D02*
X-760642Y3642108D01*
X-705847Y3620047D02*
X-735204Y3632578D01*
X-678174Y3605930D02*
X-705847Y3620047D01*
X-652235Y3590336D02*
X-678174Y3605930D01*
X-628082Y3573378D02*
X-652235Y3590336D01*
X-605764Y3555168D02*
X-628082Y3573378D01*
X-585332Y3535817D02*
X-605764Y3555168D01*
X-566838Y3515437D02*
X-585332Y3535817D01*
X-550332Y3494139D02*
X-566838Y3515437D01*
X-535864Y3472036D02*
X-550332Y3494139D01*
X-523484Y3449238D02*
X-535864Y3472036D01*
X-513245Y3425857D02*
X-523484Y3449238D01*
X-505196Y3402006D02*
X-513245Y3425857D01*
X-499388Y3377795D02*
X-505196Y3402006D01*
X-495872Y3353337D02*
X-499388Y3377795D01*
X-494698Y3328743D02*
X-495872Y3353337D01*
X-495917Y3304124D02*
X-494698Y3328743D01*
X-499580Y3279592D02*
X-495917Y3304124D01*
X-505737Y3255260D02*
X-499580Y3279592D01*
X-514439Y3231238D02*
X-505737Y3255260D01*
X-525737Y3207638D02*
X-514439Y3231238D01*
X-539681Y3184572D02*
X-525737Y3207638D01*
X-556322Y3162152D02*
X-539681Y3184572D01*
X-575710Y3140488D02*
X-556322Y3162152D01*
X-597897Y3119694D02*
X-575710Y3140488D01*
X-622933Y3099880D02*
X-597897Y3119694D01*
X-650868Y3081158D02*
X-622933Y3099880D01*
X-681754Y3063639D02*
X-650868Y3081158D01*
X-715640Y3047436D02*
X-681754Y3063639D01*
X-752578Y3032661D02*
X-715640Y3047436D01*
X-792618Y3019423D02*
X-752578Y3032661D01*
X-835811Y3007836D02*
X-792618Y3019423D01*
X-903586Y2996981D02*
X-835811Y3007836D01*
X-970599Y2985846D02*
X-903586Y2996981D01*
X-1036841Y2974402D02*
X-970599Y2985846D01*
X-1102306Y2962621D02*
X-1036841Y2974402D01*
X-1166985Y2950474D02*
X-1102306Y2962621D01*
X-1230870Y2937934D02*
X-1166985Y2950474D01*
X-1293951Y2924972D02*
X-1230870Y2937934D01*
X-1356223Y2911558D02*
X-1293951Y2924972D01*
X-1417676Y2897666D02*
X-1356223Y2911558D01*
X-1478302Y2883267D02*
X-1417676Y2897666D01*
X-1538093Y2868332D02*
X-1478302Y2883267D01*
X-1597041Y2852833D02*
X-1538093Y2868332D01*
X-1655138Y2836741D02*
X-1597041Y2852833D01*
X-1712377Y2820028D02*
X-1655138Y2836741D01*
X-1768747Y2802666D02*
X-1712377Y2820028D01*
X-1824243Y2784626D02*
X-1768747Y2802666D01*
X-1878855Y2765880D02*
X-1824243Y2784626D01*
X-1932576Y2746400D02*
X-1878855Y2765880D01*
X-1985396Y2726157D02*
X-1932576Y2746400D01*
X-2037309Y2705122D02*
X-1985396Y2726157D01*
X-2088307Y2683268D02*
X-2037309Y2705122D01*
X-2138380Y2660566D02*
X-2088307Y2683268D01*
X-2187521Y2636987D02*
X-2138380Y2660566D01*
X-2235722Y2612503D02*
X-2187521Y2636987D01*
X-2282975Y2587087D02*
X-2235722Y2612503D01*
X-2329271Y2560708D02*
X-2282975Y2587087D01*
X-2374603Y2533340D02*
X-2329271Y2560708D01*
X-2418962Y2504953D02*
X-2374603Y2533340D01*
X-2462340Y2475519D02*
X-2418962Y2504953D01*
X-2504730Y2445010D02*
X-2462340Y2475519D01*
X-2546123Y2413398D02*
X-2504730Y2445010D01*
X-2587337Y2374125D02*
X-2546123Y2413398D01*
X-2625338Y2334338D02*
X-2587337Y2374125D01*
X-2660174Y2294086D02*
X-2625338Y2334338D01*
X-2691896Y2253420D02*
X-2660174Y2294086D01*
X-2720555Y2212392D02*
X-2691896Y2253420D01*
X-2746203Y2171052D02*
X-2720555Y2212392D01*
X-2768888Y2129450D02*
X-2746203Y2171052D01*
X-2788662Y2087637D02*
X-2768888Y2129450D01*
X-2805575Y2045665D02*
X-2788662Y2087637D01*
X-2819679Y2003583D02*
X-2805575Y2045665D01*
X-2831023Y1961442D02*
X-2819679Y2003583D01*
X-2839658Y1919294D02*
X-2831023Y1961442D01*
X-2845635Y1877188D02*
X-2839658Y1919294D01*
X-2849004Y1835175D02*
X-2845635Y1877188D01*
X-2849817Y1793307D02*
X-2849004Y1835175D01*
X-2848123Y1751633D02*
X-2849817Y1793307D01*
X-2843973Y1710205D02*
X-2848123Y1751633D01*
X-2837418Y1669073D02*
X-2843973Y1710205D01*
X-2828508Y1628288D02*
X-2837418Y1669073D01*
X-2817294Y1587901D02*
X-2828508Y1628288D01*
X-2803826Y1547962D02*
X-2817294Y1587901D01*
X-2788156Y1508522D02*
X-2803826Y1547962D01*
X-2770334Y1469631D02*
X-2788156Y1508522D01*
X-2750409Y1431341D02*
X-2770334Y1469631D01*
X-2728434Y1393702D02*
X-2750409Y1431341D01*
X-2704458Y1356765D02*
X-2728434Y1393702D01*
X-2678532Y1320580D02*
X-2704458Y1356765D01*
X-2650707Y1285198D02*
X-2678532Y1320580D01*
X-2621033Y1250670D02*
X-2650707Y1285198D01*
X-2589561Y1217047D02*
X-2621033Y1250670D01*
X-2556342Y1184379D02*
X-2589561Y1217047D01*
X-2535580Y1166108D02*
X-2556342Y1184379D01*
X-2514182Y1148349D02*
X-2535580Y1166108D01*
X-2492138Y1131114D02*
X-2514182Y1148349D01*
X-2469441Y1114412D02*
X-2492138Y1131114D01*
X-2446083Y1098254D02*
X-2469441Y1114412D01*
X-2422057Y1082649D02*
X-2446083Y1098254D01*
X-2397352Y1067608D02*
X-2422057Y1082649D01*
X-2371963Y1053140D02*
X-2397352Y1067608D01*
X-2345880Y1039257D02*
X-2371963Y1053140D01*
X-2319096Y1025968D02*
X-2345880Y1039257D01*
X-2291603Y1013284D02*
X-2319096Y1025968D01*
X-2263392Y1001215D02*
X-2291603Y1013284D01*
X-2234455Y989770D02*
X-2263392Y1001215D01*
X-2204785Y978960D02*
X-2234455Y989770D01*
X-2174373Y968795D02*
X-2204785Y978960D01*
X-2143211Y959286D02*
X-2174373Y968795D01*
X-2111292Y950442D02*
X-2143211Y959286D01*
X-2078606Y942275D02*
X-2111292Y950442D01*
X-2045147Y934792D02*
X-2078606Y942275D01*
X-2010906Y928006D02*
X-2045147Y934792D01*
X-1975875Y921927D02*
X-2010906Y928006D01*
X-1940046Y916563D02*
X-1975875Y921927D01*
X-1903411Y911927D02*
X-1940046Y916563D01*
X-1865961Y908027D02*
X-1903411Y911927D01*
X-1827689Y904874D02*
X-1865961Y908027D01*
X-1788587Y902478D02*
X-1827689Y904874D01*
X-1748647Y900850D02*
X-1788587Y902478D01*
X-1707860Y899999D02*
X-1748647Y900850D01*
X-1666219Y899935D02*
X-1707860Y899999D01*
X-1623715Y900670D02*
X-1666219Y899935D01*
X-1580341Y902212D02*
X-1623715Y900670D01*
X-1852073Y-1011956D02*
X7997155Y-1011956D01*
X8113231Y878348D02*
X8082019Y878403D01*
X8144537Y878361D02*
X8113231Y878348D01*
X8175907Y878477D02*
X8144537Y878361D01*
X8207309Y878730D02*
X8175907Y878477D01*
X8238714Y879156D02*
X8207309Y878730D01*
X8270092Y879787D02*
X8238714Y879156D01*
X8301412Y880660D02*
X8270092Y879787D01*
X8332644Y881808D02*
X8301412Y880660D01*
X8363757Y883266D02*
X8332644Y881808D01*
X8394723Y885069D02*
X8363757Y883266D01*
X8425509Y887250D02*
X8394723Y885069D01*
X8456085Y889844D02*
X8425509Y887250D01*
X8486423Y892887D02*
X8456085Y889844D01*
X8516490Y896412D02*
X8486423Y892887D01*
X8546258Y900453D02*
X8516490Y896412D01*
X8575695Y905046D02*
X8546258Y900453D01*
X8604772Y910225D02*
X8575695Y905046D01*
X8633457Y916025D02*
X8604772Y910225D01*
X8661722Y922479D02*
X8633457Y916025D01*
X8689535Y929622D02*
X8661722Y922479D01*
X8716866Y937490D02*
X8689535Y929622D01*
X8743685Y946115D02*
X8716866Y937490D01*
X8769962Y955534D02*
X8743685Y946115D01*
X8795667Y965779D02*
X8769962Y955534D01*
X8820768Y976887D02*
X8795667Y965779D01*
X8845237Y988891D02*
X8820768Y976887D01*
X8869042Y1001826D02*
X8845237Y988891D01*
X8892153Y1015726D02*
X8869042Y1001826D01*
X8914540Y1030626D02*
X8892153Y1015726D01*
X8936173Y1046560D02*
X8914540Y1030626D01*
X8957021Y1063563D02*
X8936173Y1046560D01*
X8982375Y1088109D02*
X8957021Y1063563D01*
X9007800Y1111072D02*
X8982375Y1088109D01*
X9033281Y1132484D02*
X9007800Y1111072D01*
X9058807Y1152380D02*
X9033281Y1132484D01*
X9084363Y1170791D02*
X9058807Y1152380D01*
X9109935Y1187753D02*
X9084363Y1170791D01*
X9135510Y1203298D02*
X9109935Y1187753D01*
X9161075Y1217458D02*
X9135510Y1203298D01*
X9186616Y1230269D02*
X9161075Y1217458D01*
X9212119Y1241762D02*
X9186616Y1230269D01*
X9237571Y1251971D02*
X9212119Y1241762D01*
X9262958Y1260930D02*
X9237571Y1251971D01*
X9288268Y1268672D02*
X9262958Y1260930D01*
X9313485Y1275229D02*
X9288268Y1268672D01*
X9338597Y1280636D02*
X9313485Y1275229D01*
X9363590Y1284926D02*
X9338597Y1280636D01*
X9388451Y1288131D02*
X9363590Y1284926D01*
X9413166Y1290285D02*
X9388451Y1288131D01*
X9437722Y1291422D02*
X9413166Y1290285D01*
X9462104Y1291575D02*
X9437722Y1291422D01*
X9486300Y1290777D02*
X9462104Y1291575D01*
X9510295Y1289061D02*
X9486300Y1290777D01*
X9534077Y1286461D02*
X9510295Y1289061D01*
X9557632Y1283009D02*
X9534077Y1286461D01*
X9580946Y1278740D02*
X9557632Y1283009D01*
X9604006Y1273687D02*
X9580946Y1278740D01*
X9626798Y1267882D02*
X9604006Y1273687D01*
X9649309Y1261359D02*
X9626798Y1267882D01*
X9671524Y1254152D02*
X9649309Y1261359D01*
X9693431Y1246293D02*
X9671524Y1254152D01*
X9715016Y1237817D02*
X9693431Y1246293D01*
X9815460Y1188969D02*
X9715016Y1237817D01*
X9916398Y1139782D02*
X9815460Y1188969D01*
X10017798Y1090255D02*
X9916398Y1139782D01*
X10119626Y1040384D02*
X10017798Y1090255D01*
X10221848Y990169D02*
X10119626Y1040384D01*
X10324431Y939608D02*
X10221848Y990169D01*
X10427341Y888698D02*
X10324431Y939608D01*
X10530545Y837438D02*
X10427341Y888698D01*
X10634008Y785826D02*
X10530545Y837438D01*
X10737698Y733861D02*
X10634008Y785826D01*
X10841580Y681540D02*
X10737698Y733861D01*
X10945622Y628861D02*
X10841580Y681540D01*
X11049788Y575823D02*
X10945622Y628861D01*
X11154047Y522424D02*
X11049788Y575823D01*
X11258363Y468661D02*
X11154047Y522424D01*
X11362705Y414534D02*
X11258363Y468661D01*
X11467037Y360041D02*
X11362705Y414534D01*
X11571326Y305179D02*
X11467037Y360041D01*
X11675539Y249946D02*
X11571326Y305179D01*
X11779642Y194342D02*
X11675539Y249946D01*
X11883602Y138364D02*
X11779642Y194342D01*
X11987384Y82009D02*
X11883602Y138364D01*
X12090956Y25277D02*
X11987384Y82009D01*
X12194283Y-31834D02*
X12090956Y25277D01*
X12297332Y-89327D02*
X12194283Y-31834D01*
X12400070Y-147203D02*
X12297332Y-89327D01*
X12502462Y-205463D02*
X12400070Y-147203D01*
X12604476Y-264111D02*
X12502462Y-205463D01*
X12706076Y-323147D02*
X12604476Y-264111D01*
X12807231Y-382574D02*
X12706076Y-323147D01*
X12907906Y-442393D02*
X12807231Y-382574D01*
X12937395Y-461841D02*
X12907906Y-442393D01*
X12965734Y-481256D02*
X12937395Y-461841D01*
X12992936Y-500653D02*
X12965734Y-481256D01*
X13019014Y-520047D02*
X12992936Y-500653D01*
X13043979Y-539454D02*
X13019014Y-520047D01*
X13067845Y-558889D02*
X13043979Y-539454D01*
X13090623Y-578368D02*
X13067845Y-558889D01*
X13112326Y-597906D02*
X13090623Y-578368D01*
X13132966Y-617519D02*
X13112326Y-597906D01*
X13152556Y-637222D02*
X13132966Y-617519D01*
X13171108Y-657030D02*
X13152556Y-637222D01*
X13188634Y-676959D02*
X13171108Y-657030D01*
X13205147Y-697025D02*
X13188634Y-676959D01*
X13220659Y-717242D02*
X13205147Y-697025D01*
X13235183Y-737626D02*
X13220659Y-717242D01*
X13248731Y-758194D02*
X13235183Y-737626D01*
X13261315Y-778959D02*
X13248731Y-758194D01*
X13272947Y-799938D02*
X13261315Y-778959D01*
X13283641Y-821146D02*
X13272947Y-799938D01*
X13293408Y-842598D02*
X13283641Y-821146D01*
X13302261Y-864311D02*
X13293408Y-842598D01*
X13310212Y-886298D02*
X13302261Y-864311D01*
X13317273Y-908577D02*
X13310212Y-886298D01*
X13323457Y-931161D02*
X13317273Y-908577D01*
X13328777Y-954068D02*
X13323457Y-931161D01*
X13333244Y-977311D02*
X13328777Y-954068D01*
X13336872Y-1000907D02*
X13333244Y-977311D01*
X13339671Y-1024871D02*
X13336872Y-1000907D01*
X13341656Y-1049218D02*
X13339671Y-1024871D01*
X13342837Y-1073964D02*
X13341656Y-1049218D01*
X13343228Y-1099125D02*
X13342837Y-1073964D01*
X13342589Y-1130697D02*
X13343228Y-1099125D01*
X13340697Y-1161328D02*
X13342589Y-1130697D01*
X13337574Y-1191014D02*
X13340697Y-1161328D01*
X13333242Y-1219749D02*
X13337574Y-1191014D01*
X13327722Y-1247529D02*
X13333242Y-1219749D01*
X13321036Y-1274350D02*
X13327722Y-1247529D01*
X13313206Y-1300208D02*
X13321036Y-1274350D01*
X13304253Y-1325098D02*
X13313206Y-1300208D01*
X13294198Y-1349016D02*
X13304253Y-1325098D01*
X13283064Y-1371957D02*
X13294198Y-1349016D01*
X13270872Y-1393917D02*
X13283064Y-1371957D01*
X13257643Y-1414892D02*
X13270872Y-1393917D01*
X13243400Y-1434877D02*
X13257643Y-1414892D01*
X13228164Y-1453868D02*
X13243400Y-1434877D01*
X13211955Y-1471860D02*
X13228164Y-1453868D01*
X13194797Y-1488849D02*
X13211955Y-1471860D01*
X13176711Y-1504831D02*
X13194797Y-1488849D01*
X13157718Y-1519801D02*
X13176711Y-1504831D01*
X13137840Y-1533755D02*
X13157718Y-1519801D01*
X13117098Y-1546689D02*
X13137840Y-1533755D01*
X13095514Y-1558598D02*
X13117098Y-1546689D01*
X13073110Y-1569477D02*
X13095514Y-1558598D01*
X13049908Y-1579323D02*
X13073110Y-1569477D01*
X13025928Y-1588131D02*
X13049908Y-1579323D01*
X13001193Y-1595896D02*
X13025928Y-1588131D01*
X12975724Y-1602614D02*
X13001193Y-1595896D01*
X12949542Y-1608281D02*
X12975724Y-1602614D01*
X12922670Y-1612893D02*
X12949542Y-1608281D01*
X12895129Y-1616444D02*
X12922670Y-1612893D01*
X12866941Y-1618931D02*
X12895129Y-1616444D01*
X12838127Y-1620349D02*
X12866941Y-1618931D01*
X12806145Y-1619127D02*
X12838127Y-1620349D01*
X12775175Y-1615960D02*
X12806145Y-1619127D01*
X12745211Y-1610938D02*
X12775175Y-1615960D01*
X12716246Y-1604151D02*
X12745211Y-1610938D01*
X12688275Y-1595688D02*
X12716246Y-1604151D01*
X12661290Y-1585640D02*
X12688275Y-1595688D01*
X12635285Y-1574096D02*
X12661290Y-1585640D01*
X12610255Y-1561146D02*
X12635285Y-1574096D01*
X12586192Y-1546879D02*
X12610255Y-1561146D01*
X12563091Y-1531386D02*
X12586192Y-1546879D01*
X12540945Y-1514756D02*
X12563091Y-1531386D01*
X12519747Y-1497079D02*
X12540945Y-1514756D01*
X12499492Y-1478445D02*
X12519747Y-1497079D01*
X12480172Y-1458943D02*
X12499492Y-1478445D01*
X12461782Y-1438663D02*
X12480172Y-1458943D01*
X12444316Y-1417696D02*
X12461782Y-1438663D01*
X12427766Y-1396130D02*
X12444316Y-1417696D01*
X12412127Y-1374056D02*
X12427766Y-1396130D01*
X12397392Y-1351563D02*
X12412127Y-1374056D01*
X12383556Y-1328741D02*
X12397392Y-1351563D01*
X12370610Y-1305680D02*
X12383556Y-1328741D01*
X12358550Y-1282469D02*
X12370610Y-1305680D01*
X12347369Y-1259199D02*
X12358550Y-1282469D01*
X12337060Y-1235959D02*
X12347369Y-1259199D01*
X12327617Y-1212839D02*
X12337060Y-1235959D01*
X12319034Y-1189929D02*
X12327617Y-1212839D01*
X12311305Y-1167318D02*
X12319034Y-1189929D01*
X12304423Y-1145097D02*
X12311305Y-1167318D01*
X12298381Y-1123354D02*
X12304423Y-1145097D01*
X12293174Y-1102180D02*
X12298381Y-1123354D01*
X12288795Y-1081665D02*
X12293174Y-1102180D01*
X12288416Y-1081808D02*
X12288795Y-1081665D01*
X12287288Y-1082231D02*
X12288416Y-1081808D01*
X12285423Y-1082921D02*
X12287288Y-1082231D01*
X12282837Y-1083870D02*
X12285423Y-1082921D01*
X12279543Y-1085065D02*
X12282837Y-1083870D01*
X12275555Y-1086496D02*
X12279543Y-1085065D01*
X12270885Y-1088153D02*
X12275555Y-1086496D01*
X12265549Y-1090024D02*
X12270885Y-1088153D01*
X12259559Y-1092099D02*
X12265549Y-1090024D01*
X12252929Y-1094367D02*
X12259559Y-1092099D01*
X12245674Y-1096817D02*
X12252929Y-1094367D01*
X12237807Y-1099439D02*
X12245674Y-1096817D01*
X12229341Y-1102221D02*
X12237807Y-1099439D01*
X12220290Y-1105153D02*
X12229341Y-1102221D01*
X12210668Y-1108225D02*
X12220290Y-1105153D01*
X12200489Y-1111424D02*
X12210668Y-1108225D01*
X12189766Y-1114742D02*
X12200489Y-1111424D01*
X12178513Y-1118166D02*
X12189766Y-1114742D01*
X12166744Y-1121686D02*
X12178513Y-1118166D01*
X12154472Y-1125291D02*
X12166744Y-1121686D01*
X12141712Y-1128971D02*
X12154472Y-1125291D01*
X12128477Y-1132714D02*
X12141712Y-1128971D01*
X12114780Y-1136511D02*
X12128477Y-1132714D01*
X12100635Y-1140349D02*
X12114780Y-1136511D01*
X12086057Y-1144219D02*
X12100635Y-1140349D01*
X12071058Y-1148110D02*
X12086057Y-1144219D01*
X12055653Y-1152010D02*
X12071058Y-1148110D01*
X12039855Y-1155909D02*
X12055653Y-1152010D01*
X12023678Y-1159797D02*
X12039855Y-1155909D01*
X12007135Y-1163662D02*
X12023678Y-1159797D01*
X11990241Y-1167494D02*
X12007135Y-1163662D01*
X11922132Y-1183785D02*
X11990241Y-1167494D01*
X11853020Y-1200284D02*
X11922132Y-1183785D01*
X11782981Y-1216972D02*
X11853020Y-1200284D01*
X11712086Y-1233829D02*
X11782981Y-1216972D01*
X11640410Y-1250833D02*
X11712086Y-1233829D01*
X11568026Y-1267964D02*
X11640410Y-1250833D01*
X11495007Y-1285201D02*
X11568026Y-1267964D01*
X11421427Y-1302526D02*
X11495007Y-1285201D01*
X11347360Y-1319916D02*
X11421427Y-1302526D01*
X11272879Y-1337351D02*
X11347360Y-1319916D01*
X11198057Y-1354812D02*
X11272879Y-1337351D01*
X11122968Y-1372278D02*
X11198057Y-1354812D01*
X11047685Y-1389727D02*
X11122968Y-1372278D01*
X10972282Y-1407140D02*
X11047685Y-1389727D01*
X10896832Y-1424497D02*
X10972282Y-1407140D01*
X10821409Y-1441776D02*
X10896832Y-1424497D01*
X10746086Y-1458958D02*
X10821409Y-1441776D01*
X10670937Y-1476022D02*
X10746086Y-1458958D01*
X10596034Y-1492948D02*
X10670937Y-1476022D01*
X10521453Y-1509715D02*
X10596034Y-1492948D01*
X10447266Y-1526302D02*
X10521453Y-1509715D01*
X10373546Y-1542690D02*
X10447266Y-1526302D01*
X10300367Y-1558858D02*
X10373546Y-1542690D01*
X10227803Y-1574785D02*
X10300367Y-1558858D01*
X10155926Y-1590451D02*
X10227803Y-1574785D01*
X10084811Y-1605836D02*
X10155926Y-1590451D01*
X10014531Y-1620918D02*
X10084811Y-1605836D01*
X9945160Y-1635679D02*
X10014531Y-1620918D01*
X9876770Y-1650097D02*
X9945160Y-1635679D01*
X9809436Y-1664151D02*
X9876770Y-1650097D01*
X9743230Y-1677823D02*
X9809436Y-1664151D01*
X9727168Y-1662756D02*
X9743230Y-1677823D01*
X9710770Y-1646049D02*
X9727168Y-1662756D01*
X9694042Y-1627839D02*
X9710770Y-1646049D01*
X9676991Y-1608266D02*
X9694042Y-1627839D01*
X9659622Y-1587465D02*
X9676991Y-1608266D01*
X9641940Y-1565576D02*
X9659622Y-1587465D01*
X9623953Y-1542736D02*
X9641940Y-1565576D01*
X9605665Y-1519083D02*
X9623953Y-1542736D01*
X9587083Y-1494755D02*
X9605665Y-1519083D01*
X9568212Y-1469890D02*
X9587083Y-1494755D01*
X9549058Y-1444625D02*
X9568212Y-1469890D01*
X9529628Y-1419100D02*
X9549058Y-1444625D01*
X9509926Y-1393450D02*
X9529628Y-1419100D01*
X9489959Y-1367815D02*
X9509926Y-1393450D01*
X9469733Y-1342333D02*
X9489959Y-1367815D01*
X9449253Y-1317140D02*
X9469733Y-1342333D01*
X9428526Y-1292376D02*
X9449253Y-1317140D01*
X9407557Y-1268178D02*
X9428526Y-1292376D01*
X9386352Y-1244683D02*
X9407557Y-1268178D01*
X9364916Y-1222030D02*
X9386352Y-1244683D01*
X9343257Y-1200357D02*
X9364916Y-1222030D01*
X9321379Y-1179801D02*
X9343257Y-1200357D01*
X9299289Y-1160501D02*
X9321379Y-1179801D01*
X9276992Y-1142594D02*
X9299289Y-1160501D01*
X9254494Y-1126218D02*
X9276992Y-1142594D01*
X9231801Y-1111511D02*
X9254494Y-1126218D01*
X9208920Y-1098611D02*
X9231801Y-1111511D01*
X9185855Y-1087656D02*
X9208920Y-1098611D01*
X9162612Y-1078784D02*
X9185855Y-1087656D01*
X9139198Y-1072132D02*
X9162612Y-1078784D01*
X9115619Y-1067839D02*
X9139198Y-1072132D01*
X9078439Y-1063141D02*
X9115619Y-1067839D01*
X9041442Y-1058711D02*
X9078439Y-1063141D01*
X9004617Y-1054540D02*
X9041442Y-1058711D01*
X8967953Y-1050621D02*
X9004617Y-1054540D01*
X8931437Y-1046945D02*
X8967953Y-1050621D01*
X8895060Y-1043507D02*
X8931437Y-1046945D01*
X8858809Y-1040297D02*
X8895060Y-1043507D01*
X8822673Y-1037308D02*
X8858809Y-1040297D01*
X8786641Y-1034533D02*
X8822673Y-1037308D01*
X8750701Y-1031963D02*
X8786641Y-1034533D01*
X8714842Y-1029592D02*
X8750701Y-1031963D01*
X8679053Y-1027411D02*
X8714842Y-1029592D01*
X8643322Y-1025413D02*
X8679053Y-1027411D01*
X8607637Y-1023590D02*
X8643322Y-1025413D01*
X8571989Y-1021934D02*
X8607637Y-1023590D01*
X8536364Y-1020438D02*
X8571989Y-1021934D01*
X8500752Y-1019094D02*
X8536364Y-1020438D01*
X8465141Y-1017895D02*
X8500752Y-1019094D01*
X8429521Y-1016832D02*
X8465141Y-1017895D01*
X8393879Y-1015899D02*
X8429521Y-1016832D01*
X8358204Y-1015087D02*
X8393879Y-1015899D01*
X8322485Y-1014388D02*
X8358204Y-1015087D01*
X8286711Y-1013796D02*
X8322485Y-1014388D01*
X8250869Y-1013302D02*
X8286711Y-1013796D01*
X8214950Y-1012899D02*
X8250869Y-1013302D01*
X8178941Y-1012579D02*
X8214950Y-1012899D01*
X8142831Y-1012334D02*
X8178941Y-1012579D01*
X8106609Y-1012157D02*
X8142831Y-1012334D01*
X8070263Y-1012040D02*
X8106609Y-1012157D01*
X8033782Y-1011975D02*
X8070263Y-1012040D01*
X-1955921Y-1012705D02*
X-1852073Y-1011956D01*
X-2055286Y-1014936D02*
X-1955921Y-1012705D01*
X-2150271Y-1018618D02*
X-2055286Y-1014936D01*
X-2240980Y-1023724D02*
X-2150271Y-1018618D01*
X-2327516Y-1030226D02*
X-2240980Y-1023724D01*
X-2409983Y-1038095D02*
X-2327516Y-1030226D01*
X-2488484Y-1047302D02*
X-2409983Y-1038095D01*
X-2563122Y-1057820D02*
X-2488484Y-1047302D01*
X-2634001Y-1069620D02*
X-2563122Y-1057820D01*
X-2701225Y-1082673D02*
X-2634001Y-1069620D01*
X-2764896Y-1096952D02*
X-2701225Y-1082673D01*
X-2825118Y-1112428D02*
X-2764896Y-1096952D01*
X-2881994Y-1129072D02*
X-2825118Y-1112428D01*
X-2935628Y-1146856D02*
X-2881994Y-1129072D01*
X-2986124Y-1165753D02*
X-2935628Y-1146856D01*
X-3033584Y-1185732D02*
X-2986124Y-1165753D01*
X-3078113Y-1206767D02*
X-3033584Y-1185732D01*
X-3119812Y-1228829D02*
X-3078113Y-1206767D01*
X-3158787Y-1251889D02*
X-3119812Y-1228829D01*
X-3195140Y-1275919D02*
X-3158787Y-1251889D01*
X-3228974Y-1300891D02*
X-3195140Y-1275919D01*
X-3260394Y-1326776D02*
X-3228974Y-1300891D01*
X-3289502Y-1353546D02*
X-3260394Y-1326776D01*
X-3316402Y-1381173D02*
X-3289502Y-1353546D01*
X-3341197Y-1409628D02*
X-3316402Y-1381173D01*
X-3363991Y-1438883D02*
X-3341197Y-1409628D01*
X-3384887Y-1468910D02*
X-3363991Y-1438883D01*
X-3403988Y-1499679D02*
X-3384887Y-1468910D01*
X-3421398Y-1531164D02*
X-3403988Y-1499679D01*
X-3437221Y-1563335D02*
X-3421398Y-1531164D01*
X-3451559Y-1596164D02*
X-3437221Y-1563335D01*
X-3460851Y-1626293D02*
X-3451559Y-1596164D01*
X-3469235Y-1656230D02*
X-3460851Y-1626293D01*
X-3476684Y-1685971D02*
X-3469235Y-1656230D01*
X-3483168Y-1715511D02*
X-3476684Y-1685971D01*
X-3488659Y-1744847D02*
X-3483168Y-1715511D01*
X-3493129Y-1773975D02*
X-3488659Y-1744847D01*
X-3496550Y-1802890D02*
X-3493129Y-1773975D01*
X-3498893Y-1831588D02*
X-3496550Y-1802890D01*
X-3500130Y-1860066D02*
X-3498893Y-1831588D01*
X-3500233Y-1888318D02*
X-3500130Y-1860066D01*
X-3499172Y-1916342D02*
X-3500233Y-1888318D01*
X-3496920Y-1944132D02*
X-3499172Y-1916342D01*
X-3493448Y-1971685D02*
X-3496920Y-1944132D01*
X-3488728Y-1998997D02*
X-3493448Y-1971685D01*
X-3482732Y-2026064D02*
X-3488728Y-1998997D01*
X-3475430Y-2052880D02*
X-3482732Y-2026064D01*
X-3466796Y-2079444D02*
X-3475430Y-2052880D01*
X-3456799Y-2105749D02*
X-3466796Y-2079444D01*
X-3445413Y-2131793D02*
X-3456799Y-2105749D01*
X-3432608Y-2157570D02*
X-3445413Y-2131793D01*
X-3418357Y-2183078D02*
X-3432608Y-2157570D01*
X-3402630Y-2208311D02*
X-3418357Y-2183078D01*
X-3385399Y-2233266D02*
X-3402630Y-2208311D01*
X-3366637Y-2257939D02*
X-3385399Y-2233266D01*
X-3346314Y-2282325D02*
X-3366637Y-2257939D01*
X-3324403Y-2306421D02*
X-3346314Y-2282325D01*
X-3300874Y-2330221D02*
X-3324403Y-2306421D01*
X-3275700Y-2353724D02*
X-3300874Y-2330221D01*
X-3248852Y-2376923D02*
X-3275700Y-2353724D01*
X-3220302Y-2399815D02*
X-3248852Y-2376923D01*
X-3190021Y-2422396D02*
X-3220302Y-2399815D01*
X-3145401Y-2449439D02*
X-3190021Y-2422396D01*
X-3101155Y-2474131D02*
X-3145401Y-2449439D01*
X-3057339Y-2496640D02*
X-3101155Y-2474131D01*
X-3014014Y-2517130D02*
X-3057339Y-2496640D01*
X-2971237Y-2535770D02*
X-3014014Y-2517130D01*
X-2929069Y-2552725D02*
X-2971237Y-2535770D01*
X-2887567Y-2568161D02*
X-2929069Y-2552725D01*
X-2846790Y-2582245D02*
X-2887567Y-2568161D01*
X-2806797Y-2595144D02*
X-2846790Y-2582245D01*
X-2767647Y-2607025D02*
X-2806797Y-2595144D01*
X-2729398Y-2618052D02*
X-2767647Y-2607025D01*
X-2692110Y-2628393D02*
X-2729398Y-2618052D01*
X-2655842Y-2638215D02*
X-2692110Y-2628393D01*
X-2620651Y-2647684D02*
X-2655842Y-2638215D01*
X-2586596Y-2656965D02*
X-2620651Y-2647684D01*
X-2553737Y-2666227D02*
X-2586596Y-2656965D01*
X-2522133Y-2675634D02*
X-2553737Y-2666227D01*
X-2491841Y-2685355D02*
X-2522133Y-2675634D01*
X-2462922Y-2695554D02*
X-2491841Y-2685355D01*
X-2435433Y-2706398D02*
X-2462922Y-2695554D01*
X-2409433Y-2718055D02*
X-2435433Y-2706398D01*
X-2384981Y-2730690D02*
X-2409433Y-2718055D01*
X-2362136Y-2744470D02*
X-2384981Y-2730690D01*
X-2340957Y-2759560D02*
X-2362136Y-2744470D01*
X-2321503Y-2776129D02*
X-2340957Y-2759560D01*
X-2303831Y-2794342D02*
X-2321503Y-2776129D01*
X-2288002Y-2814365D02*
X-2303831Y-2794342D01*
X-2274073Y-2836365D02*
X-2288002Y-2814365D01*
X-2262104Y-2860509D02*
X-2274073Y-2836365D01*
X-2252154Y-2886963D02*
X-2262104Y-2860509D01*
X-2244280Y-2915893D02*
X-2252154Y-2886963D01*
X-2243233Y-2937091D02*
X-2244280Y-2915893D01*
X-2243943Y-2957786D02*
X-2243233Y-2937091D01*
X-2246345Y-2977979D02*
X-2243943Y-2957786D01*
X-2250375Y-2997669D02*
X-2246345Y-2977979D01*
X-2255967Y-3016857D02*
X-2250375Y-2997669D01*
X-2263056Y-3035541D02*
X-2255967Y-3016857D01*
X-2271578Y-3053723D02*
X-2263056Y-3035541D01*
X-2281468Y-3071402D02*
X-2271578Y-3053723D01*
X-2292661Y-3088579D02*
X-2281468Y-3071402D01*
X-2305092Y-3105252D02*
X-2292661Y-3088579D01*
X-2318696Y-3121423D02*
X-2305092Y-3105252D01*
X-2333409Y-3137090D02*
X-2318696Y-3121423D01*
X-2349165Y-3152255D02*
X-2333409Y-3137090D01*
X-2365900Y-3166916D02*
X-2349165Y-3152255D01*
X-2383548Y-3181074D02*
X-2365900Y-3166916D01*
X-2402046Y-3194730D02*
X-2383548Y-3181074D01*
X-2421328Y-3207881D02*
X-2402046Y-3194730D01*
X-2441329Y-3220530D02*
X-2421328Y-3207881D01*
X-2461985Y-3232675D02*
X-2441329Y-3220530D01*
X-2483230Y-3244317D02*
X-2461985Y-3232675D01*
X-2505000Y-3255456D02*
X-2483230Y-3244317D01*
X-2527230Y-3266091D02*
X-2505000Y-3255456D01*
X-2549855Y-3276222D02*
X-2527230Y-3266091D01*
X-2572810Y-3285850D02*
X-2549855Y-3276222D01*
X-2596030Y-3294974D02*
X-2572810Y-3285850D01*
X-2619451Y-3303595D02*
X-2596030Y-3294974D01*
X-2643007Y-3311712D02*
X-2619451Y-3303595D01*
X-2666634Y-3319325D02*
X-2643007Y-3311712D01*
X-2690267Y-3326435D02*
X-2666634Y-3319325D01*
X-2713841Y-3333040D02*
X-2690267Y-3326435D01*
X-2737291Y-3339142D02*
X-2713841Y-3333040D01*
X-2793511Y-3347353D02*
X-2737291Y-3339142D01*
X-2849235Y-3354450D02*
X-2793511Y-3347353D01*
X-2904468Y-3360451D02*
X-2849235Y-3354450D01*
X-2959218Y-3365374D02*
X-2904468Y-3360451D01*
X-3013490Y-3369237D02*
X-2959218Y-3365374D01*
X-3067291Y-3372060D02*
X-3013490Y-3369237D01*
X-3120625Y-3373859D02*
X-3067291Y-3372060D01*
X-3173500Y-3374654D02*
X-3120625Y-3373859D01*
X-3225921Y-3374462D02*
X-3173500Y-3374654D01*
X-3277895Y-3373302D02*
X-3225921Y-3374462D01*
X-3329426Y-3371192D02*
X-3277895Y-3373302D01*
X-3380523Y-3368151D02*
X-3329426Y-3371192D01*
X-3431190Y-3364197D02*
X-3380523Y-3368151D01*
X-3481434Y-3359348D02*
X-3431190Y-3364197D01*
X-3531260Y-3353622D02*
X-3481434Y-3359348D01*
X-3580675Y-3347038D02*
X-3531260Y-3353622D01*
X-3629684Y-3339614D02*
X-3580675Y-3347038D01*
X-3678295Y-3331369D02*
X-3629684Y-3339614D01*
X-3726512Y-3322319D02*
X-3678295Y-3331369D01*
X-3774342Y-3312485D02*
X-3726512Y-3322319D01*
X-3821791Y-3301884D02*
X-3774342Y-3312485D01*
X-3868865Y-3290534D02*
X-3821791Y-3301884D01*
X-3915570Y-3278454D02*
X-3868865Y-3290534D01*
X-3961912Y-3265663D02*
X-3915570Y-3278454D01*
X-4007898Y-3252177D02*
X-3961912Y-3265663D01*
X-4053532Y-3238016D02*
X-4007898Y-3252177D01*
X-4098822Y-3223198D02*
X-4053532Y-3238016D01*
X-4143772Y-3207741D02*
X-4098822Y-3223198D01*
X-4188390Y-3191664D02*
X-4143772Y-3207741D01*
X-4232682Y-3174985D02*
X-4188390Y-3191664D01*
X-4276653Y-3157721D02*
X-4232682Y-3174985D01*
X-4333219Y-3134683D02*
X-4276653Y-3157721D01*
X-4389987Y-3112422D02*
X-4333219Y-3134683D01*
X-4446973Y-3091024D02*
X-4389987Y-3112422D01*
X-4504189Y-3070573D02*
X-4446973Y-3091024D01*
X-4561651Y-3051156D02*
X-4504189Y-3070573D01*
X-4619372Y-3032857D02*
X-4561651Y-3051156D01*
X-4677366Y-3015762D02*
X-4619372Y-3032857D01*
X-4735649Y-2999955D02*
X-4677366Y-3015762D01*
X-4794233Y-2985523D02*
X-4735649Y-2999955D01*
X-4853133Y-2972549D02*
X-4794233Y-2985523D01*
X-4912364Y-2961120D02*
X-4853133Y-2972549D01*
X-4971939Y-2951320D02*
X-4912364Y-2961120D01*
X-5031873Y-2943235D02*
X-4971939Y-2951320D01*
X-5092179Y-2936950D02*
X-5031873Y-2943235D01*
X-5152873Y-2932549D02*
X-5092179Y-2936950D01*
X-5213967Y-2930119D02*
X-5152873Y-2932549D01*
X-5275478Y-2929745D02*
X-5213967Y-2930119D01*
X-5337417Y-2931511D02*
X-5275478Y-2929745D01*
X-5399801Y-2935502D02*
X-5337417Y-2931511D01*
X-5462642Y-2941805D02*
X-5399801Y-2935502D01*
X-5525956Y-2950504D02*
X-5462642Y-2941805D01*
X-5589755Y-2961684D02*
X-5525956Y-2950504D01*
X-5654056Y-2975431D02*
X-5589755Y-2961684D01*
X-5718871Y-2991830D02*
X-5654056Y-2975431D01*
X-5784214Y-3010965D02*
X-5718871Y-2991830D01*
X-5850101Y-3032922D02*
X-5784214Y-3010965D01*
X-5916545Y-3057787D02*
X-5850101Y-3032922D01*
X-5983561Y-3085645D02*
X-5916545Y-3057787D01*
X-6051162Y-3116580D02*
X-5983561Y-3085645D01*
X-6119363Y-3150677D02*
X-6051162Y-3116580D01*
X-6188178Y-3188023D02*
X-6119363Y-3150677D01*
X-6505990Y-3383656D02*
X-6188178Y-3188023D01*
X-6811156Y-3555898D02*
X-6505990Y-3383656D01*
X-7103907Y-3705763D02*
X-6811156Y-3555898D01*
X-7384473Y-3834266D02*
X-7103907Y-3705763D01*
X-7653086Y-3942422D02*
X-7384473Y-3834266D01*
X-7909976Y-4031246D02*
X-7653086Y-3942422D01*
X-8155376Y-4101751D02*
X-7909976Y-4031246D01*
X-8389515Y-4154952D02*
X-8155376Y-4101751D01*
X-8612624Y-4191864D02*
X-8389515Y-4154952D01*
X-8824936Y-4213502D02*
X-8612624Y-4191864D01*
X-9026680Y-4220879D02*
X-8824936Y-4213502D01*
X-9218088Y-4215011D02*
X-9026680Y-4220879D01*
X-9399391Y-4196912D02*
X-9218088Y-4215011D01*
X-9570821Y-4167595D02*
X-9399391Y-4196912D01*
X-9732607Y-4128077D02*
X-9570821Y-4167595D01*
X-9884981Y-4079372D02*
X-9732607Y-4128077D01*
X-10028174Y-4022493D02*
X-9884981Y-4079372D01*
X-10162418Y-3958456D02*
X-10028174Y-4022493D01*
X-10287942Y-3888275D02*
X-10162418Y-3958456D01*
X-10404979Y-3812964D02*
X-10287942Y-3888275D01*
X-10513759Y-3733539D02*
X-10404979Y-3812964D01*
X-10614514Y-3651013D02*
X-10513759Y-3733539D01*
X-10707473Y-3566401D02*
X-10614514Y-3651013D01*
X-10792870Y-3480718D02*
X-10707473Y-3566401D01*
X-10870933Y-3394978D02*
X-10792870Y-3480718D01*
X-10941895Y-3310196D02*
X-10870933Y-3394978D01*
X-11005987Y-3227386D02*
X-10941895Y-3310196D01*
X-11063439Y-3147563D02*
X-11005987Y-3227386D01*
X-11114482Y-3071741D02*
X-11063439Y-3147563D01*
X-11159348Y-3000935D02*
X-11114482Y-3071741D01*
X-11198268Y-2936159D02*
X-11159348Y-3000935D01*
X-11234331Y-2868702D02*
X-11198268Y-2936159D01*
X-11268555Y-2798937D02*
X-11234331Y-2868702D01*
X-11300985Y-2726886D02*
X-11268555Y-2798937D01*
X-11331665Y-2652569D02*
X-11300985Y-2726886D01*
X-11360639Y-2576005D02*
X-11331665Y-2652569D01*
X-11387953Y-2497215D02*
X-11360639Y-2576005D01*
X-11413650Y-2416220D02*
X-11387953Y-2497215D01*
X-11437775Y-2333039D02*
X-11413650Y-2416220D01*
X-11460373Y-2247694D02*
X-11437775Y-2333039D01*
X-11481488Y-2160203D02*
X-11460373Y-2247694D01*
X-11501165Y-2070589D02*
X-11481488Y-2160203D01*
X-11519448Y-1978870D02*
X-11501165Y-2070589D01*
X-11536382Y-1885067D02*
X-11519448Y-1978870D01*
X-11552011Y-1789201D02*
X-11536382Y-1885067D01*
X-11566380Y-1691292D02*
X-11552011Y-1789201D01*
X-11579533Y-1591359D02*
X-11566380Y-1691292D01*
X-11591515Y-1489424D02*
X-11579533Y-1591359D01*
X-11602371Y-1385507D02*
X-11591515Y-1489424D01*
X-11612144Y-1279627D02*
X-11602371Y-1385507D01*
X-11620879Y-1171806D02*
X-11612144Y-1279627D01*
X-11628622Y-1062063D02*
X-11620879Y-1171806D01*
X-11635415Y-950419D02*
X-11628622Y-1062063D01*
X-11641305Y-836894D02*
X-11635415Y-950419D01*
X-11646335Y-721509D02*
X-11641305Y-836894D01*
X-11650550Y-604283D02*
X-11646335Y-721509D01*
X-11653994Y-485237D02*
X-11650550Y-604283D01*
X-11656712Y-364391D02*
X-11653994Y-485237D01*
X-11658749Y-241765D02*
X-11656712Y-364391D01*
X-11660149Y-117381D02*
X-11658749Y-241765D01*
X-11660956Y8742D02*
X-11660149Y-117381D01*
X-11661215Y136584D02*
X-11660956Y8742D01*
X-11662217Y270118D02*
X-11661215Y136584D01*
X-11661315Y399790D02*
X-11662217Y270118D01*
X-11658493Y525765D02*
X-11661315Y399790D01*
X-11653730Y648207D02*
X-11658493Y525765D01*
X-11647011Y767281D02*
X-11653730Y648207D01*
X-11638315Y883151D02*
X-11647011Y767281D01*
X-11627625Y995981D02*
X-11638315Y883151D01*
X-11614922Y1105936D02*
X-11627625Y995981D01*
X-11600190Y1213180D02*
X-11614922Y1105936D01*
X-11583408Y1317877D02*
X-11600190Y1213180D01*
X-11564559Y1420192D02*
X-11583408Y1317877D01*
X-11543626Y1520290D02*
X-11564559Y1420192D01*
X-11520589Y1618334D02*
X-11543626Y1520290D01*
X-11495430Y1714488D02*
X-11520589Y1618334D01*
X-11468132Y1808918D02*
X-11495430Y1714488D01*
X-11438675Y1901788D02*
X-11468132Y1808918D01*
X-11407043Y1993262D02*
X-11438675Y1901788D01*
X-11373216Y2083504D02*
X-11407043Y1993262D01*
X-11337177Y2172679D02*
X-11373216Y2083504D01*
X-11298906Y2260951D02*
X-11337177Y2172679D01*
X-11258387Y2348485D02*
X-11298906Y2260951D01*
X-11215601Y2435444D02*
X-11258387Y2348485D01*
X-11170529Y2521994D02*
X-11215601Y2435444D01*
X-11123153Y2608298D02*
X-11170529Y2521994D01*
X-11073456Y2694521D02*
X-11123153Y2608298D01*
X-11021419Y2780828D02*
X-11073456Y2694521D01*
X-10967023Y2867382D02*
X-11021419Y2780828D01*
X-10910251Y2954348D02*
X-10967023Y2867382D01*
X-10851085Y3041891D02*
X-10910251Y2954348D01*
X-10789505Y3130175D02*
X-10851085Y3041891D01*
X-10725495Y3219363D02*
X-10789505Y3130175D01*
X-10666231Y3288405D02*
X-10725495Y3219363D01*
X-10606248Y3355139D02*
X-10666231Y3288405D01*
X-10545551Y3419567D02*
X-10606248Y3355139D01*
X-10484143Y3481691D02*
X-10545551Y3419567D01*
X-10422030Y3541514D02*
X-10484143Y3481691D01*
X-10359213Y3599039D02*
X-10422030Y3541514D01*
X-10295699Y3654269D02*
X-10359213Y3599039D01*
X-10231491Y3707204D02*
X-10295699Y3654269D01*
X-10166592Y3757849D02*
X-10231491Y3707204D01*
X-10101008Y3806205D02*
X-10166592Y3757849D01*
X-10034741Y3852275D02*
X-10101008Y3806205D01*
X-9967797Y3896062D02*
X-10034741Y3852275D01*
X-9900179Y3937568D02*
X-9967797Y3896062D01*
X-9831891Y3976795D02*
X-9900179Y3937568D01*
X-9762938Y4013746D02*
X-9831891Y3976795D01*
X-9693323Y4048424D02*
X-9762938Y4013746D01*
X-9623050Y4080831D02*
X-9693323Y4048424D01*
X-9552125Y4110969D02*
X-9623050Y4080831D01*
X-9480549Y4138841D02*
X-9552125Y4110969D01*
X-9408329Y4164450D02*
X-9480549Y4138841D01*
X-9335467Y4187797D02*
X-9408329Y4164450D01*
X-9261968Y4208886D02*
X-9335467Y4187797D01*
X-9187836Y4227719D02*
X-9261968Y4208886D01*
X-9113075Y4244298D02*
X-9187836Y4227719D01*
X-9037688Y4258626D02*
X-9113075Y4244298D01*
X-8961681Y4270705D02*
X-9037688Y4258626D01*
X-8885058Y4280539D02*
X-8961681Y4270705D01*
X-8807821Y4288128D02*
X-8885058Y4280539D01*
X-8729976Y4293477D02*
X-8807821Y4288128D01*
X-8651526Y4296587D02*
X-8729976Y4293477D01*
X-8572475Y4297460D02*
X-8651526Y4296587D01*
M02*
