G04 #@! TF.FileFunction,Copper,L1,Top,Signal*
%FSLAX45Y45*%
G04 Gerber Fmt 4.5, Leading zero omitted, Abs format (unit mm)*
G04 Created by KiCad (PCBNEW 4.0.6-e0-6349~53~ubuntu16.04.1) date Fri May  5 11:32:33 2017*
%MOMM*%
%LPD*%
G01*
G04 APERTURE LIST*
%ADD10C,0.150000*%
%ADD11C,3.048000*%
%ADD12O,2.114400X3.435200*%
%ADD13O,2.115500X3.435200*%
%ADD14C,1.524000*%
%ADD15R,1.727200X2.032000*%
%ADD16O,1.727200X2.032000*%
%ADD17C,2.200000*%
%ADD18O,1.500000X2.000000*%
%ADD19C,3.500000*%
%ADD20C,2.250000*%
%ADD21R,2.199640X1.524000*%
%ADD22O,2.199640X1.524000*%
%ADD23C,0.600000*%
%ADD24C,0.400000*%
%ADD25C,0.250000*%
%ADD26C,0.025400*%
G04 APERTURE END LIST*
D10*
D11*
X-1994662Y3297682D03*
D12*
X7180580Y566928D03*
X7688580Y566928D03*
X7180580Y-703072D03*
X7688580Y-703072D03*
X5524500Y565404D03*
X6032500Y565404D03*
X5524500Y-704596D03*
X6032500Y-704596D03*
X3873500Y565404D03*
X4381500Y565404D03*
X3873500Y-704596D03*
X4381500Y-704596D03*
X2222754Y565404D03*
X2730754Y565404D03*
X2222754Y-704596D03*
X2730754Y-704596D03*
X571500Y565404D03*
X1079500Y565404D03*
X571500Y-704596D03*
D13*
X1079500Y-704596D03*
D12*
X-1079500Y565404D03*
X-571500Y565404D03*
X-1079500Y-704596D03*
X-571500Y-704596D03*
X-2730500Y565404D03*
X-2222500Y565404D03*
X-2730500Y-704596D03*
X-2222500Y-704596D03*
D14*
X-6500368Y1439164D03*
X-6500368Y1947164D03*
X-6246368Y1439164D03*
X-6246368Y1947164D03*
X-5900928Y1439164D03*
X-5900928Y1947164D03*
X-5646928Y1439164D03*
X-5646928Y1947164D03*
D15*
X-4005580Y2450084D03*
D16*
X-4259580Y2450084D03*
X-4513580Y2450084D03*
X-4767580Y2454910D03*
X-5021580Y2450084D03*
X-5275580Y2450084D03*
X-5529580Y2450084D03*
X-5783580Y2450084D03*
D15*
X-6169406Y2454910D03*
D16*
X-6423406Y2454910D03*
X-6677406Y2454910D03*
X-6931406Y2454910D03*
X-7185406Y2454910D03*
X-7439406Y2454910D03*
X-7693406Y2454910D03*
X-7947406Y2454910D03*
D17*
X-8974500Y2357000D03*
X-9974500Y2357000D03*
D11*
X-11114024Y1114552D03*
D18*
X-9419400Y-2236700D03*
X-9169400Y-2236700D03*
X-8919400Y-2236700D03*
D19*
X-9649400Y-1536700D03*
X-8689400Y-1536700D03*
D20*
X-10487137Y-3249153D03*
X-9907310Y-3362290D03*
X-9419406Y-2796605D03*
X-10200759Y-2623364D03*
X-10278541Y-2347592D03*
D19*
X-11146500Y-301000D03*
X-11146500Y209000D03*
X-9876500Y-521000D03*
X-9876500Y-46000D03*
X-9876500Y424000D03*
D18*
X-7756208Y-1233400D03*
X-7506208Y-1233400D03*
X-7256208Y-1233400D03*
D19*
X-7986208Y-533400D03*
X-7026208Y-533400D03*
D12*
X-4381500Y565404D03*
X-3873500Y565404D03*
X-4381500Y-704596D03*
X-3873500Y-704596D03*
D21*
X-5758180Y-577596D03*
D22*
X-5758180Y-323596D03*
X-5758180Y-69596D03*
X-5758180Y184404D03*
X-5758180Y438404D03*
D15*
X-5279136Y-2372360D03*
D16*
X-5025136Y-2372360D03*
X-4771136Y-2372360D03*
X-4517136Y-2372360D03*
X-4263136Y-2372360D03*
X-4009136Y-2372360D03*
D15*
X-7566660Y-2371344D03*
D16*
X-7312660Y-2371344D03*
X-7058660Y-2371344D03*
X-6804660Y-2371344D03*
X-6550660Y-2371344D03*
X-6296660Y-2371344D03*
X-6042660Y-2371344D03*
X-5788660Y-2371344D03*
D23*
X-3183890Y-896620D03*
X-5279136Y-2372360D03*
X-7185406Y2454910D03*
D24*
X5524500Y-635000D02*
X5524500Y635000D01*
X-9419406Y-2796605D02*
X-9419406Y-2732970D01*
X-9419406Y-2732970D02*
X-10411968Y-1740408D01*
X-10411968Y-1740408D02*
X-10411968Y2070608D01*
X-10411968Y2070608D02*
X-10125576Y2357000D01*
X-10125576Y2357000D02*
X-9974500Y2357000D01*
X-9974500Y2357000D02*
X-10025500Y2357000D01*
X-6022340Y-55880D02*
X-6022594Y-56134D01*
X-6022340Y272312D02*
X-6022340Y-55880D01*
X-6075148Y325120D02*
X-6022340Y272312D01*
X-6377432Y325120D02*
X-6075148Y325120D01*
X-6022594Y-56134D02*
X-6022594Y-647954D01*
X-6377432Y325120D02*
X-6405626Y325120D01*
X-6405626Y325120D02*
X-6405626Y324890D01*
X-6736080Y2089150D02*
X-6736080Y2088642D01*
X-6271006Y2274316D02*
X-6551168Y2274316D01*
X-6551168Y2274316D02*
X-6736080Y2089404D01*
X-6736080Y2089404D02*
X-6736080Y2089150D01*
X-6169406Y2375916D02*
X-6271006Y2274316D01*
X-6503924Y324890D02*
X-6405626Y324890D01*
X-6736080Y2088642D02*
X-6826250Y1998472D01*
X-6826250Y1998472D02*
X-6826250Y408940D01*
X-6826250Y408940D02*
X-6742430Y325120D01*
X-6742430Y325120D02*
X-6503924Y325120D01*
X-6503924Y325120D02*
X-6503924Y324890D01*
X7688580Y566928D02*
X7688580Y-703072D01*
X-5765546Y-905002D02*
X-5764530Y-905002D01*
X-3296666Y-1009396D02*
X-3183890Y-896620D01*
X-5660136Y-1009396D02*
X-3296666Y-1009396D01*
X-5764530Y-905002D02*
X-5660136Y-1009396D01*
X-6022594Y-647954D02*
X-5765546Y-905002D01*
X-6169406Y2454910D02*
X-6169406Y2375916D01*
X-3873500Y565404D02*
X-3873500Y-704596D01*
D25*
X-6413500Y2445004D02*
X-6423406Y2454910D01*
D24*
X-2222500Y-704596D02*
X-2222500Y565404D01*
X-6921500Y2445004D02*
X-6931406Y2454910D01*
X-7506208Y-1233400D02*
X-7506208Y-1782318D01*
X-7506208Y-1782318D02*
X-7173722Y-2114804D01*
X-5279136Y-2212848D02*
X-5279136Y-2372360D01*
X-7173722Y-2114804D02*
X-5377180Y-2114804D01*
X-5377180Y-2114804D02*
X-5279136Y-2212848D01*
X-571500Y565404D02*
X-571500Y-704596D01*
X1079500Y565404D02*
X1079500Y-704596D01*
X2730754Y565404D02*
X2730754Y-704596D01*
X4381500Y635000D02*
X4381500Y-635000D01*
X-9169400Y-2236700D02*
X-9169400Y1634490D01*
X-9169400Y1634490D02*
X-8095234Y2708656D01*
X-8095234Y2708656D02*
X-4871212Y2708656D01*
X-4871212Y2708656D02*
X-4767580Y2605024D01*
X-4767580Y2605024D02*
X-4767580Y2454910D01*
X-5941568Y317500D02*
X-5941568Y-4572D01*
X-6022340Y398272D02*
X-5941568Y317500D01*
X-6369812Y398272D02*
X-6022340Y398272D01*
X-5941568Y-4572D02*
X-5876544Y-69596D01*
X-5876544Y-69596D02*
X-5758180Y-69596D01*
X-6661428Y398272D02*
X-6369812Y398272D01*
X-6761250Y498094D02*
X-6661428Y398272D01*
X-6761250Y1657096D02*
X-6761250Y498094D01*
X-6500368Y1917978D02*
X-6761250Y1657096D01*
X-6500368Y1947164D02*
X-6500368Y1917978D01*
X-5799328Y479552D02*
X-5758180Y438404D01*
X-6598412Y479552D02*
X-5799328Y479552D01*
X-6696250Y577390D02*
X-6598412Y479552D01*
X-6696250Y1319228D02*
X-6696250Y577390D01*
X-6576314Y1439164D02*
X-6696250Y1319228D01*
X-6500368Y1439164D02*
X-6576314Y1439164D01*
X-6500368Y1439164D02*
X-6489192Y1439164D01*
X-5567172Y231140D02*
X-5613908Y184404D01*
X-5567172Y860552D02*
X-5567172Y231140D01*
X-5900928Y1194308D02*
X-5567172Y860552D01*
X-5613908Y184404D02*
X-5758180Y184404D01*
X-5900928Y1439164D02*
X-5900928Y1194308D01*
X-5646928Y1439164D02*
X-5646928Y1459992D01*
X-5646928Y1459992D02*
X-5469382Y1637538D01*
X-5469382Y1637538D02*
X-5469382Y2389886D01*
X-5469382Y2389886D02*
X-5529580Y2450084D01*
X6032500Y565404D02*
X6032500Y-704596D01*
D26*
G36*
X-8494614Y4239052D02*
X-8415937Y4235532D01*
X-8336635Y4229825D01*
X-8256723Y4221930D01*
X-8176191Y4211848D01*
X-8095048Y4199578D01*
X-8013294Y4185120D01*
X-7930928Y4168473D01*
X-7847969Y4149641D01*
X-7764400Y4128618D01*
X-7680243Y4105410D01*
X-7595490Y4080013D01*
X-7510150Y4052429D01*
X-7424228Y4022658D01*
X-7337732Y3990703D01*
X-7250659Y3956562D01*
X-7163014Y3920234D01*
X-7074811Y3881726D01*
X-6986054Y3841037D01*
X-6896734Y3798163D01*
X-6806871Y3753113D01*
X-6716459Y3705881D01*
X-6625513Y3656475D01*
X-6534037Y3604896D01*
X-6442029Y3551141D01*
X-6349500Y3495216D01*
X-6256456Y3437125D01*
X-6162897Y3376864D01*
X-6068827Y3314436D01*
X-5974257Y3249847D01*
X-5878893Y3182888D01*
X-5878274Y3182615D01*
X-5877796Y3182137D01*
X-5812172Y3138308D01*
X-5811240Y3137922D01*
X-5810502Y3137234D01*
X-5745987Y3097319D01*
X-5744985Y3096944D01*
X-5744176Y3096244D01*
X-5680684Y3060131D01*
X-5679612Y3059775D01*
X-5678730Y3059070D01*
X-5616176Y3026647D01*
X-5615037Y3026318D01*
X-5614082Y3025616D01*
X-5552381Y2996772D01*
X-5551180Y2996477D01*
X-5550153Y2995788D01*
X-5489220Y2970413D01*
X-5487964Y2970160D01*
X-5486869Y2969494D01*
X-5426619Y2947475D01*
X-5425317Y2947273D01*
X-5424162Y2946640D01*
X-5364509Y2927864D01*
X-5363175Y2927719D01*
X-5361969Y2927129D01*
X-5302828Y2911486D01*
X-5301474Y2911402D01*
X-5300229Y2910863D01*
X-5241516Y2898242D01*
X-5240158Y2898221D01*
X-5238888Y2897741D01*
X-5180517Y2888029D01*
X-5179172Y2888071D01*
X-5177893Y2887655D01*
X-5119779Y2880741D01*
X-5118463Y2880844D01*
X-5117190Y2880492D01*
X-5059249Y2876265D01*
X-5057976Y2876423D01*
X-5056725Y2876137D01*
X-4998871Y2874484D01*
X-4997655Y2874690D01*
X-4996442Y2874466D01*
X-4938590Y2875277D01*
X-4937441Y2875522D01*
X-4936279Y2875356D01*
X-4878344Y2878518D01*
X-4877271Y2878793D01*
X-4876171Y2878678D01*
X-4818067Y2884080D01*
X-4817077Y2884375D01*
X-4816046Y2884304D01*
X-4757689Y2891835D01*
X-4756784Y2892140D01*
X-4755831Y2892106D01*
X-4697136Y2901654D01*
X-4696318Y2901960D01*
X-4695444Y2901955D01*
X-4636326Y2913408D01*
X-4635594Y2913707D01*
X-4634803Y2913725D01*
X-4575176Y2926971D01*
X-4574528Y2927257D01*
X-4573821Y2927290D01*
X-4513600Y2942218D01*
X-4513033Y2942485D01*
X-4512408Y2942528D01*
X-4451509Y2959027D01*
X-4451020Y2959270D01*
X-4450475Y2959318D01*
X-4388812Y2977276D01*
X-4388396Y2977492D01*
X-4387930Y2977541D01*
X-4325418Y2996847D01*
X-4325071Y2997034D01*
X-4324679Y2997080D01*
X-4261233Y3017622D01*
X-4260951Y3017779D01*
X-4260631Y3017821D01*
X-4196166Y3039486D01*
X-4195945Y3039613D01*
X-4195693Y3039648D01*
X-4130123Y3062327D01*
X-4129959Y3062423D01*
X-4129771Y3062450D01*
X-4063013Y3086029D01*
X-4062902Y3086095D01*
X-4062775Y3086114D01*
X-3994743Y3110483D01*
X-3994682Y3110520D01*
X-3994612Y3110530D01*
X-3925220Y3135577D01*
X-3924655Y3135918D01*
X-3924006Y3136031D01*
X-3841587Y3167913D01*
X-3759810Y3199201D01*
X-3678504Y3229925D01*
X-3605340Y3257189D01*
X-2199167Y3257189D01*
X-2168104Y3182010D01*
X-2110636Y3124442D01*
X-2035512Y3093248D01*
X-1954169Y3093177D01*
X-1878990Y3124240D01*
X-1821422Y3181708D01*
X-1790228Y3256832D01*
X-1790157Y3338175D01*
X-1821220Y3413354D01*
X-1878688Y3470922D01*
X-1953812Y3502116D01*
X-2035155Y3502187D01*
X-2110334Y3471124D01*
X-2167902Y3413656D01*
X-2199096Y3338532D01*
X-2199167Y3257189D01*
X-3605340Y3257189D01*
X-3597728Y3260025D01*
X-3517446Y3289479D01*
X-3437676Y3318245D01*
X-3358399Y3346292D01*
X-3279609Y3373587D01*
X-3201286Y3400101D01*
X-3123468Y3425786D01*
X-3046102Y3450623D01*
X-2969213Y3474569D01*
X-2892791Y3497591D01*
X-2816812Y3519661D01*
X-2741293Y3540739D01*
X-2666232Y3560792D01*
X-2591604Y3579790D01*
X-2517414Y3597698D01*
X-2443658Y3614483D01*
X-2370328Y3630112D01*
X-2297423Y3644551D01*
X-2224941Y3657767D01*
X-2152854Y3669731D01*
X-2081191Y3680405D01*
X-2009921Y3689761D01*
X-1939044Y3697766D01*
X-1868561Y3704386D01*
X-1798450Y3709591D01*
X-1728729Y3713348D01*
X-1659364Y3715625D01*
X-1591092Y3716383D01*
X-1564320Y3715399D01*
X-1536276Y3714236D01*
X-1508243Y3712932D01*
X-1480138Y3711472D01*
X-1452087Y3709853D01*
X-1424012Y3708059D01*
X-1395960Y3706083D01*
X-1367948Y3703916D01*
X-1339962Y3701546D01*
X-1312039Y3698966D01*
X-1284176Y3696164D01*
X-1256376Y3693132D01*
X-1228671Y3689860D01*
X-1201044Y3686337D01*
X-1173532Y3682557D01*
X-1146119Y3678506D01*
X-1118843Y3674179D01*
X-1091701Y3669565D01*
X-1064696Y3664653D01*
X-1037847Y3659436D01*
X-1011160Y3653903D01*
X-984657Y3648048D01*
X-958343Y3641861D01*
X-932223Y3635332D01*
X-906308Y3628452D01*
X-880605Y3621211D01*
X-855140Y3613605D01*
X-829902Y3605619D01*
X-804918Y3597251D01*
X-780187Y3588487D01*
X-756428Y3579586D01*
X-730044Y3568324D01*
X-705877Y3555995D01*
X-683373Y3542466D01*
X-662563Y3527856D01*
X-643476Y3512282D01*
X-626144Y3495866D01*
X-610589Y3478725D01*
X-596835Y3460978D01*
X-584898Y3442743D01*
X-574791Y3424129D01*
X-566522Y3405247D01*
X-560092Y3386193D01*
X-555501Y3367055D01*
X-552748Y3347904D01*
X-551836Y3328793D01*
X-552778Y3309763D01*
X-555604Y3290834D01*
X-560365Y3272020D01*
X-567135Y3253332D01*
X-576013Y3234786D01*
X-587121Y3216412D01*
X-600590Y3198264D01*
X-616565Y3180415D01*
X-635185Y3162964D01*
X-656581Y3146031D01*
X-680874Y3129749D01*
X-708174Y3114265D01*
X-738571Y3099730D01*
X-772151Y3086297D01*
X-808981Y3074121D01*
X-847748Y3063722D01*
X-912611Y3053333D01*
X-912770Y3053274D01*
X-912940Y3053279D01*
X-979953Y3042144D01*
X-980127Y3042078D01*
X-980314Y3042083D01*
X-1046557Y3030639D01*
X-1046747Y3030566D01*
X-1046949Y3030569D01*
X-1112414Y3018788D01*
X-1112619Y3018708D01*
X-1112840Y3018710D01*
X-1177519Y3006564D01*
X-1177740Y3006475D01*
X-1177978Y3006476D01*
X-1241862Y2993935D01*
X-1242100Y2993838D01*
X-1242357Y2993836D01*
X-1305438Y2980874D01*
X-1305693Y2980766D01*
X-1305969Y2980762D01*
X-1368240Y2967349D01*
X-1368511Y2967232D01*
X-1368807Y2967224D01*
X-1430259Y2953332D01*
X-1430548Y2953203D01*
X-1430863Y2953192D01*
X-1491490Y2938792D01*
X-1491796Y2938652D01*
X-1492132Y2938636D01*
X-1551923Y2923701D01*
X-1552247Y2923548D01*
X-1552605Y2923526D01*
X-1611553Y2908027D01*
X-1611896Y2907860D01*
X-1612275Y2907832D01*
X-1670372Y2891740D01*
X-1670732Y2891559D01*
X-1671134Y2891523D01*
X-1728372Y2874811D01*
X-1728751Y2874613D01*
X-1729175Y2874570D01*
X-1785546Y2857208D01*
X-1785943Y2856993D01*
X-1786390Y2856940D01*
X-1841886Y2838901D01*
X-1842300Y2838668D01*
X-1842771Y2838605D01*
X-1897384Y2819859D01*
X-1897816Y2819607D01*
X-1898310Y2819532D01*
X-1952031Y2800051D01*
X-1952480Y2799779D01*
X-1952999Y2799690D01*
X-2005820Y2779447D01*
X-2006286Y2779153D01*
X-2006828Y2779050D01*
X-2058741Y2758015D01*
X-2059224Y2757698D01*
X-2059789Y2757578D01*
X-2110786Y2735724D01*
X-2111284Y2735383D01*
X-2111872Y2735245D01*
X-2161945Y2712543D01*
X-2162458Y2712176D01*
X-2163068Y2712019D01*
X-2212209Y2688440D01*
X-2212735Y2688046D01*
X-2213366Y2687869D01*
X-2261567Y2663386D01*
X-2262104Y2662964D01*
X-2262757Y2662764D01*
X-2310009Y2637347D01*
X-2310556Y2636896D01*
X-2311227Y2636672D01*
X-2357524Y2610294D01*
X-2358078Y2609814D01*
X-2358767Y2609565D01*
X-2404099Y2582196D01*
X-2404659Y2581686D01*
X-2405364Y2581410D01*
X-2449723Y2553023D01*
X-2450286Y2552482D01*
X-2451005Y2552178D01*
X-2494384Y2522744D01*
X-2494947Y2522173D01*
X-2495678Y2521840D01*
X-2538068Y2491331D01*
X-2538629Y2490729D01*
X-2539369Y2490366D01*
X-2580761Y2458754D01*
X-2582838Y2456396D01*
X-2585492Y2454714D01*
X-2626707Y2415442D01*
X-2627492Y2414326D01*
X-2628608Y2413542D01*
X-2666609Y2373755D01*
X-2667370Y2372556D01*
X-2668491Y2371685D01*
X-2703327Y2331433D01*
X-2704055Y2330151D01*
X-2705172Y2329188D01*
X-2736894Y2288523D01*
X-2737580Y2287159D01*
X-2738682Y2286102D01*
X-2767341Y2245073D01*
X-2767975Y2243630D01*
X-2769051Y2242478D01*
X-2794698Y2201138D01*
X-2795268Y2199619D01*
X-2796307Y2198374D01*
X-2818993Y2156772D01*
X-2819489Y2155185D01*
X-2820479Y2153849D01*
X-2840253Y2112036D01*
X-2840666Y2110389D01*
X-2841596Y2108968D01*
X-2858509Y2066995D01*
X-2858830Y2065299D01*
X-2859687Y2063800D01*
X-2873791Y2021718D01*
X-2874012Y2019984D01*
X-2874787Y2018418D01*
X-2886131Y1976277D01*
X-2886248Y1974520D01*
X-2886932Y1972896D01*
X-2895567Y1930748D01*
X-2895577Y1928981D01*
X-2896162Y1927314D01*
X-2902139Y1885208D01*
X-2902041Y1883447D01*
X-2902522Y1881750D01*
X-2905892Y1839738D01*
X-2905688Y1837996D01*
X-2906064Y1836282D01*
X-2906876Y1794414D01*
X-2906570Y1792704D01*
X-2906840Y1790989D01*
X-2905146Y1749315D01*
X-2904743Y1747650D01*
X-2904909Y1745945D01*
X-2900759Y1704517D01*
X-2900267Y1702906D01*
X-2900332Y1701223D01*
X-2893776Y1660091D01*
X-2893204Y1658543D01*
X-2893173Y1656893D01*
X-2884263Y1616108D01*
X-2883617Y1614629D01*
X-2883497Y1613020D01*
X-2872283Y1572633D01*
X-2871574Y1571227D01*
X-2871372Y1569666D01*
X-2857905Y1529727D01*
X-2857141Y1528397D01*
X-2856863Y1526889D01*
X-2841193Y1487449D01*
X-2840382Y1486197D01*
X-2840038Y1484746D01*
X-2822215Y1445855D01*
X-2821365Y1444680D01*
X-2820960Y1443288D01*
X-2801035Y1404998D01*
X-2800154Y1403898D01*
X-2799694Y1402566D01*
X-2777719Y1364927D01*
X-2776811Y1363902D01*
X-2776304Y1362630D01*
X-2752328Y1325693D01*
X-2751399Y1324739D01*
X-2750850Y1323526D01*
X-2724924Y1287341D01*
X-2723979Y1286456D01*
X-2723392Y1285301D01*
X-2695567Y1249919D01*
X-2694609Y1249099D01*
X-2693989Y1248001D01*
X-2664316Y1213473D01*
X-2663348Y1212715D01*
X-2662699Y1211671D01*
X-2631227Y1178047D01*
X-2630252Y1177348D01*
X-2629577Y1176356D01*
X-2596357Y1143688D01*
X-2595018Y1142809D01*
X-2594045Y1141536D01*
X-2573283Y1123265D01*
X-2572556Y1122844D01*
X-2572026Y1122191D01*
X-2550627Y1104432D01*
X-2549885Y1104030D01*
X-2549334Y1103390D01*
X-2527290Y1086155D01*
X-2526534Y1085774D01*
X-2525963Y1085148D01*
X-2503266Y1068446D01*
X-2502499Y1068087D01*
X-2501909Y1067478D01*
X-2478552Y1051320D01*
X-2477775Y1050983D01*
X-2477168Y1050392D01*
X-2453141Y1034787D01*
X-2452357Y1034474D01*
X-2451736Y1033903D01*
X-2427031Y1018862D01*
X-2426242Y1018573D01*
X-2425607Y1018022D01*
X-2400217Y1003555D01*
X-2399425Y1003291D01*
X-2398778Y1002762D01*
X-2372695Y988879D01*
X-2371901Y988640D01*
X-2371245Y988134D01*
X-2344461Y974845D01*
X-2343668Y974630D01*
X-2343004Y974148D01*
X-2315510Y961463D01*
X-2314721Y961273D01*
X-2314051Y960815D01*
X-2285840Y948745D01*
X-2285055Y948579D01*
X-2284381Y948145D01*
X-2255445Y936700D01*
X-2254667Y936558D01*
X-2253991Y936148D01*
X-2224321Y925338D01*
X-2223552Y925219D01*
X-2222875Y924833D01*
X-2192464Y914669D01*
X-2191704Y914572D01*
X-2191030Y914210D01*
X-2159868Y904701D01*
X-2159121Y904626D01*
X-2158449Y904288D01*
X-2126530Y895444D01*
X-2125794Y895390D01*
X-2125128Y895075D01*
X-2092442Y886907D01*
X-2091721Y886872D01*
X-2091061Y886580D01*
X-2057602Y879098D01*
X-2056895Y879081D01*
X-2056242Y878811D01*
X-2022001Y872025D01*
X-2021310Y872026D01*
X-2020665Y871777D01*
X-1985634Y865697D01*
X-1984959Y865714D01*
X-1984324Y865486D01*
X-1948495Y860122D01*
X-1947836Y860154D01*
X-1947212Y859945D01*
X-1910576Y855308D01*
X-1909935Y855354D01*
X-1909322Y855164D01*
X-1871872Y851264D01*
X-1871249Y851322D01*
X-1870647Y851150D01*
X-1832375Y847997D01*
X-1831769Y848066D01*
X-1831180Y847911D01*
X-1792078Y845515D01*
X-1791489Y845595D01*
X-1790912Y845455D01*
X-1750972Y843827D01*
X-1750402Y843916D01*
X-1749838Y843792D01*
X-1709051Y842941D01*
X-1708498Y843039D01*
X-1707947Y842929D01*
X-1666306Y842865D01*
X-1665770Y842971D01*
X-1665233Y842874D01*
X-1622729Y843608D01*
X-1622211Y843721D01*
X-1621687Y843636D01*
X-1579397Y845140D01*
X8081878Y821333D01*
X8081898Y821337D01*
X8081918Y821333D01*
X8113130Y821278D01*
X8113193Y821290D01*
X8113256Y821278D01*
X8144562Y821291D01*
X8144655Y821309D01*
X8144748Y821291D01*
X8176118Y821407D01*
X8176243Y821432D01*
X8176368Y821409D01*
X8207770Y821662D01*
X8207926Y821694D01*
X8208082Y821665D01*
X8239487Y822091D01*
X8239675Y822131D01*
X8239863Y822097D01*
X8271241Y822729D01*
X8271460Y822777D01*
X8271682Y822740D01*
X8303002Y823612D01*
X8303253Y823670D01*
X8303508Y823629D01*
X8334740Y824777D01*
X8335026Y824844D01*
X8335315Y824801D01*
X8366429Y826259D01*
X8366748Y826338D01*
X8367074Y826293D01*
X8398039Y828095D01*
X8398393Y828187D01*
X8398756Y828141D01*
X8429542Y830322D01*
X8429932Y830429D01*
X8430334Y830384D01*
X8460911Y832979D01*
X8461338Y833102D01*
X8461780Y833059D01*
X8492118Y836102D01*
X8492583Y836244D01*
X8493067Y836205D01*
X8523135Y839730D01*
X8523639Y839893D01*
X8524169Y839861D01*
X8553936Y843902D01*
X8554481Y844090D01*
X8555056Y844066D01*
X8584493Y848659D01*
X8585079Y848873D01*
X8585702Y848861D01*
X8614779Y854040D01*
X8615406Y854285D01*
X8616080Y854287D01*
X8644766Y860086D01*
X8645436Y860366D01*
X8646162Y860387D01*
X8674426Y866841D01*
X8675139Y867160D01*
X8675919Y867203D01*
X8703732Y874346D01*
X8704487Y874709D01*
X8705321Y874779D01*
X8732653Y882646D01*
X8733449Y883058D01*
X8734340Y883160D01*
X8761159Y891786D01*
X8761995Y892251D01*
X8762941Y892392D01*
X8789218Y901810D01*
X8790092Y902335D01*
X8791094Y902520D01*
X8816798Y912766D01*
X8817705Y913355D01*
X8818761Y913591D01*
X8843862Y924699D01*
X8844798Y925357D01*
X8845904Y925651D01*
X8870373Y937655D01*
X8871332Y938387D01*
X8872484Y938746D01*
X8896289Y951680D01*
X8897263Y952491D01*
X8898456Y952920D01*
X8921567Y966820D01*
X8922548Y967712D01*
X8923773Y968216D01*
X8946160Y983116D01*
X8947137Y984090D01*
X8948386Y984675D01*
X8970018Y1000609D01*
X8970981Y1001664D01*
X8972242Y1002333D01*
X8993090Y1019336D01*
X8994654Y1021229D01*
X8996717Y1022560D01*
X9021361Y1046419D01*
X9045294Y1068035D01*
X9069194Y1088117D01*
X9093042Y1106706D01*
X9116828Y1123842D01*
X9140539Y1139570D01*
X9164169Y1153932D01*
X9187705Y1166969D01*
X9211144Y1178725D01*
X9234477Y1189240D01*
X9257698Y1198555D01*
X9280807Y1206710D01*
X9303801Y1213743D01*
X9326679Y1219692D01*
X9349435Y1224592D01*
X9372069Y1228476D01*
X9394580Y1231379D01*
X9416967Y1233330D01*
X9439220Y1234361D01*
X9461341Y1234499D01*
X9483324Y1233774D01*
X9505156Y1232213D01*
X9526836Y1229842D01*
X9548354Y1226690D01*
X9569694Y1222782D01*
X9590852Y1218145D01*
X9611808Y1212808D01*
X9632558Y1206795D01*
X9653077Y1200138D01*
X9673364Y1192861D01*
X9692071Y1185515D01*
X9790460Y1137666D01*
X9790460Y1137666D01*
X9891398Y1088480D01*
X9992696Y1039001D01*
X9992697Y1039001D01*
X10094516Y989135D01*
X10196676Y938951D01*
X10299144Y888446D01*
X10401996Y837565D01*
X10505113Y786348D01*
X10608464Y734792D01*
X10712099Y682854D01*
X10815840Y630604D01*
X10919770Y577982D01*
X11023817Y525005D01*
X11127961Y471664D01*
X11232150Y417967D01*
X11336351Y363913D01*
X11440543Y309493D01*
X11544690Y254706D01*
X11648744Y199558D01*
X11752659Y144054D01*
X11856460Y88161D01*
X11960064Y31903D01*
X12063438Y-24720D01*
X12166567Y-81722D01*
X12269425Y-139108D01*
X12371956Y-196868D01*
X12474143Y-255011D01*
X12575911Y-313518D01*
X12677282Y-372421D01*
X12778194Y-431705D01*
X12877604Y-490772D01*
X12905552Y-509204D01*
X12933039Y-528036D01*
X12959338Y-546788D01*
X12984469Y-565479D01*
X13008443Y-584115D01*
X13031277Y-602710D01*
X13052983Y-621272D01*
X13073571Y-639806D01*
X13093066Y-658331D01*
X13111484Y-676856D01*
X13128842Y-695389D01*
X13145161Y-713945D01*
X13160464Y-732540D01*
X13174767Y-751182D01*
X13188098Y-769892D01*
X13200481Y-788691D01*
X13211938Y-807596D01*
X13222492Y-826632D01*
X13232171Y-845826D01*
X13240994Y-865206D01*
X13248982Y-884795D01*
X13256155Y-904632D01*
X13262528Y-924741D01*
X13268120Y-945159D01*
X13272939Y-965911D01*
X13276999Y-987036D01*
X13280307Y-1008556D01*
X13282871Y-1030501D01*
X13284696Y-1052898D01*
X13285789Y-1075771D01*
X13286149Y-1098990D01*
X13285555Y-1128360D01*
X13283811Y-1156581D01*
X13280951Y-1183770D01*
X13277007Y-1209929D01*
X13272014Y-1235059D01*
X13266004Y-1259169D01*
X13259009Y-1282267D01*
X13251060Y-1304367D01*
X13242184Y-1325481D01*
X13232407Y-1345626D01*
X13221750Y-1364821D01*
X13210232Y-1383084D01*
X13197869Y-1400430D01*
X13184670Y-1416882D01*
X13170643Y-1432452D01*
X13155795Y-1447155D01*
X13140124Y-1461002D01*
X13123632Y-1474001D01*
X13106323Y-1486152D01*
X13088195Y-1497456D01*
X13069246Y-1507911D01*
X13049485Y-1517507D01*
X13028909Y-1526238D01*
X13007533Y-1534089D01*
X12985360Y-1541050D01*
X12962402Y-1547106D01*
X12938674Y-1552242D01*
X12914192Y-1556443D01*
X12888969Y-1559696D01*
X12863028Y-1561984D01*
X12837814Y-1563225D01*
X12810140Y-1562168D01*
X12782804Y-1559372D01*
X12756448Y-1554955D01*
X12731035Y-1549000D01*
X12706513Y-1541581D01*
X12682845Y-1532768D01*
X12659997Y-1522625D01*
X12637944Y-1511215D01*
X12616663Y-1498598D01*
X12596141Y-1484835D01*
X12576377Y-1469994D01*
X12557364Y-1454138D01*
X12539103Y-1437339D01*
X12521604Y-1419674D01*
X12504863Y-1401213D01*
X12488896Y-1382046D01*
X12473704Y-1362250D01*
X12459296Y-1341912D01*
X12445678Y-1321124D01*
X12432851Y-1299969D01*
X12420826Y-1278547D01*
X12409604Y-1256948D01*
X12399184Y-1235264D01*
X12389572Y-1213595D01*
X12380766Y-1192034D01*
X12372768Y-1170684D01*
X12365575Y-1149641D01*
X12359185Y-1129011D01*
X12353597Y-1108899D01*
X12348803Y-1089405D01*
X12344608Y-1069752D01*
X12342895Y-1065774D01*
X12342185Y-1061503D01*
X12338532Y-1055643D01*
X12335801Y-1049300D01*
X12332696Y-1046281D01*
X12330405Y-1042606D01*
X12324788Y-1038590D01*
X12319837Y-1033775D01*
X12315813Y-1032174D01*
X12312291Y-1029656D01*
X12305564Y-1028095D01*
X12299148Y-1025542D01*
X12294818Y-1025602D01*
X12290599Y-1024623D01*
X12283787Y-1025756D01*
X12276882Y-1025852D01*
X12272905Y-1027565D01*
X12268633Y-1028275D01*
X12268335Y-1028387D01*
X12267388Y-1028742D01*
X12265676Y-1029376D01*
X12263296Y-1030249D01*
X12260185Y-1031378D01*
X12256365Y-1032749D01*
X12251897Y-1034334D01*
X12246772Y-1036131D01*
X12240984Y-1038136D01*
X12234547Y-1040338D01*
X12227531Y-1042708D01*
X12219885Y-1045256D01*
X12211646Y-1047963D01*
X12202824Y-1050822D01*
X12193439Y-1053817D01*
X12183491Y-1056944D01*
X12173024Y-1060182D01*
X12162034Y-1063526D01*
X12150529Y-1066967D01*
X12138525Y-1070494D01*
X12126045Y-1074093D01*
X12113079Y-1077760D01*
X12099688Y-1081472D01*
X12085848Y-1085228D01*
X12071573Y-1089017D01*
X12056897Y-1092824D01*
X12041803Y-1096646D01*
X12026351Y-1100460D01*
X12010520Y-1104264D01*
X11994329Y-1108047D01*
X11977617Y-1111838D01*
X11977306Y-1111977D01*
X11976965Y-1111990D01*
X11908879Y-1128275D01*
X11839768Y-1144774D01*
X11839768Y-1144774D01*
X11769753Y-1161457D01*
X11698885Y-1178306D01*
X11698885Y-1178306D01*
X11627267Y-1195297D01*
X11627266Y-1195297D01*
X11554882Y-1212428D01*
X11554882Y-1212428D01*
X11481905Y-1229656D01*
X11408383Y-1246966D01*
X11408383Y-1246966D01*
X11334328Y-1264354D01*
X11259871Y-1281784D01*
X11259871Y-1281784D01*
X11185087Y-1299235D01*
X11185087Y-1299235D01*
X11110042Y-1316691D01*
X11034843Y-1334121D01*
X10959487Y-1351523D01*
X10884052Y-1368876D01*
X10808664Y-1386148D01*
X10808664Y-1386148D01*
X10733449Y-1403305D01*
X10658358Y-1420356D01*
X10583456Y-1437281D01*
X10508935Y-1454034D01*
X10434869Y-1470595D01*
X10361161Y-1486980D01*
X10361161Y-1486980D01*
X10288085Y-1503125D01*
X10215606Y-1519033D01*
X10143773Y-1534690D01*
X10143772Y-1534690D01*
X10072836Y-1550036D01*
X10072836Y-1550036D01*
X10002594Y-1565111D01*
X9933318Y-1579851D01*
X9865028Y-1594248D01*
X9797857Y-1608268D01*
X9761103Y-1615858D01*
X9752160Y-1606746D01*
X9736579Y-1589784D01*
X9720417Y-1571231D01*
X9703727Y-1551245D01*
X9686556Y-1529987D01*
X9668946Y-1507627D01*
X9650915Y-1484306D01*
X9632494Y-1460189D01*
X9613672Y-1435389D01*
X9613672Y-1435388D01*
X9594536Y-1410147D01*
X9594494Y-1410110D01*
X9594469Y-1410058D01*
X9575038Y-1384533D01*
X9574943Y-1384449D01*
X9574887Y-1384335D01*
X9555185Y-1358686D01*
X9555038Y-1358557D01*
X9554950Y-1358381D01*
X9534983Y-1332747D01*
X9534782Y-1332573D01*
X9534660Y-1332335D01*
X9514434Y-1306853D01*
X9514175Y-1306633D01*
X9514016Y-1306334D01*
X9493537Y-1281141D01*
X9493217Y-1280876D01*
X9493017Y-1280511D01*
X9472290Y-1255746D01*
X9471902Y-1255434D01*
X9471655Y-1255002D01*
X9450686Y-1230803D01*
X9450223Y-1230444D01*
X9449923Y-1229940D01*
X9428718Y-1206445D01*
X9428169Y-1206037D01*
X9427805Y-1205458D01*
X9406370Y-1182805D01*
X9405723Y-1182347D01*
X9405284Y-1181688D01*
X9383624Y-1160015D01*
X9382866Y-1159508D01*
X9382335Y-1158765D01*
X9360458Y-1138209D01*
X9359568Y-1137654D01*
X9358928Y-1136824D01*
X9336838Y-1117524D01*
X9335797Y-1116925D01*
X9335025Y-1116004D01*
X9312728Y-1098097D01*
X9311509Y-1097462D01*
X9310577Y-1096453D01*
X9288080Y-1080077D01*
X9286656Y-1079419D01*
X9285532Y-1078326D01*
X9262839Y-1063619D01*
X9261182Y-1062960D01*
X9259828Y-1061797D01*
X9236947Y-1048897D01*
X9235026Y-1048267D01*
X9233404Y-1047060D01*
X9210339Y-1036105D01*
X9208134Y-1035549D01*
X9206207Y-1034339D01*
X9182965Y-1025466D01*
X9180465Y-1025042D01*
X9178208Y-1023886D01*
X9154794Y-1017234D01*
X9152014Y-1017010D01*
X9149421Y-1015985D01*
X9125841Y-1011692D01*
X9124267Y-1011717D01*
X9122772Y-1011219D01*
X9085592Y-1006521D01*
X9085404Y-1006535D01*
X9085224Y-1006476D01*
X9048228Y-1002046D01*
X9048042Y-1002060D01*
X9047865Y-1002003D01*
X9011040Y-997832D01*
X9010858Y-997848D01*
X9010683Y-997793D01*
X8974019Y-993874D01*
X8973840Y-993890D01*
X8973668Y-993837D01*
X8937152Y-990162D01*
X8936977Y-990179D01*
X8936808Y-990129D01*
X8900431Y-986690D01*
X8900259Y-986708D01*
X8900094Y-986659D01*
X8863843Y-983449D01*
X8863675Y-983468D01*
X8863513Y-983421D01*
X8827377Y-980432D01*
X8827214Y-980451D01*
X8827056Y-980407D01*
X8791024Y-977631D01*
X8790865Y-977651D01*
X8790711Y-977608D01*
X8754771Y-975039D01*
X8754617Y-975058D01*
X8754467Y-975018D01*
X8718608Y-972646D01*
X8718459Y-972666D01*
X8718314Y-972628D01*
X8682524Y-970447D01*
X8682380Y-970466D01*
X8682239Y-970430D01*
X8646508Y-968432D01*
X8646369Y-968451D01*
X8646234Y-968417D01*
X8610549Y-966594D01*
X8610416Y-966614D01*
X8610285Y-966581D01*
X8574636Y-964926D01*
X8574509Y-964945D01*
X8574383Y-964914D01*
X8538758Y-963418D01*
X8538636Y-963437D01*
X8538516Y-963409D01*
X8502904Y-962065D01*
X8502788Y-962084D01*
X8502673Y-962057D01*
X8467062Y-960857D01*
X8466952Y-960875D01*
X8466843Y-960850D01*
X8431222Y-959788D01*
X8431118Y-959805D01*
X8431015Y-959782D01*
X8395373Y-958848D01*
X8395275Y-958865D01*
X8395177Y-958844D01*
X8359503Y-958031D01*
X8359411Y-958047D01*
X8359319Y-958027D01*
X8323601Y-957329D01*
X8323515Y-957344D01*
X8323430Y-957326D01*
X8287655Y-956734D01*
X8287576Y-956748D01*
X8287497Y-956731D01*
X8251656Y-956237D01*
X8251583Y-956251D01*
X8251510Y-956236D01*
X8215591Y-955832D01*
X8215524Y-955845D01*
X8215457Y-955831D01*
X8179449Y-955511D01*
X8179388Y-955522D01*
X8179328Y-955510D01*
X8143218Y-955265D01*
X8143164Y-955276D01*
X8143110Y-955265D01*
X8106888Y-955088D01*
X8106840Y-955097D01*
X8106793Y-955087D01*
X8070447Y-954970D01*
X8070406Y-954978D01*
X8070364Y-954970D01*
X8033883Y-954906D01*
X8033848Y-954912D01*
X8033813Y-954905D01*
X7997186Y-954886D01*
X7997170Y-954889D01*
X7997155Y-954886D01*
X-1852073Y-954886D01*
X-1852279Y-954927D01*
X-1852485Y-954887D01*
X-1956333Y-955637D01*
X-1956766Y-955726D01*
X-1957201Y-955650D01*
X-2056566Y-957880D01*
X-2057028Y-957983D01*
X-2057496Y-957908D01*
X-2152482Y-961591D01*
X-2152976Y-961709D01*
X-2153478Y-961638D01*
X-2244187Y-966744D01*
X-2244715Y-966881D01*
X-2245256Y-966815D01*
X-2331792Y-973316D01*
X-2332355Y-973473D01*
X-2332937Y-973414D01*
X-2415404Y-981283D01*
X-2416005Y-981463D01*
X-2416631Y-981413D01*
X-2495132Y-990621D01*
X-2495774Y-990828D01*
X-2496447Y-990790D01*
X-2571086Y-1001308D01*
X-2571770Y-1001547D01*
X-2572494Y-1001525D01*
X-2643373Y-1013324D01*
X-2644101Y-1013600D01*
X-2644880Y-1013596D01*
X-2712103Y-1026649D01*
X-2712877Y-1026966D01*
X-2713713Y-1026986D01*
X-2777384Y-1041265D01*
X-2778204Y-1041628D01*
X-2779100Y-1041678D01*
X-2839322Y-1057153D01*
X-2840188Y-1057570D01*
X-2841146Y-1057655D01*
X-2898023Y-1074299D01*
X-2898935Y-1074775D01*
X-2899956Y-1074902D01*
X-2953590Y-1092687D01*
X-2954546Y-1093229D01*
X-2955630Y-1093406D01*
X-3006126Y-1112302D01*
X-3007121Y-1112919D01*
X-3008267Y-1113153D01*
X-3055727Y-1133133D01*
X-3056756Y-1133829D01*
X-3057961Y-1134130D01*
X-3102489Y-1155165D01*
X-3103543Y-1155946D01*
X-3104801Y-1156322D01*
X-3146501Y-1178384D01*
X-3147571Y-1179255D01*
X-3148873Y-1179712D01*
X-3187848Y-1202772D01*
X-3188922Y-1203735D01*
X-3190257Y-1204280D01*
X-3226610Y-1228311D01*
X-3227675Y-1229364D01*
X-3229030Y-1230001D01*
X-3262864Y-1254973D01*
X-3263903Y-1256114D01*
X-3265263Y-1256844D01*
X-3296682Y-1282729D01*
X-3297680Y-1283950D01*
X-3299026Y-1284770D01*
X-3328134Y-1311540D01*
X-3329076Y-1312829D01*
X-3330391Y-1313733D01*
X-3357291Y-1341360D01*
X-3358162Y-1342703D01*
X-3359429Y-1343681D01*
X-3384224Y-1372136D01*
X-3385013Y-1373514D01*
X-3386215Y-1374552D01*
X-3409009Y-1403807D01*
X-3409710Y-1405202D01*
X-3410834Y-1406284D01*
X-3431730Y-1436311D01*
X-3432337Y-1437702D01*
X-3433374Y-1438810D01*
X-3452475Y-1469579D01*
X-3452989Y-1470947D01*
X-3453931Y-1472062D01*
X-3471341Y-1503547D01*
X-3471764Y-1504872D01*
X-3472610Y-1505977D01*
X-3488432Y-1538148D01*
X-3488771Y-1539416D01*
X-3489520Y-1540493D01*
X-3503859Y-1573322D01*
X-3504552Y-1576491D01*
X-3506095Y-1579345D01*
X-3515386Y-1609474D01*
X-3515464Y-1610227D01*
X-3515806Y-1610902D01*
X-3524191Y-1640839D01*
X-3524252Y-1641639D01*
X-3524596Y-1642365D01*
X-3532044Y-1672106D01*
X-3532086Y-1672956D01*
X-3532427Y-1673735D01*
X-3538911Y-1703276D01*
X-3538928Y-1704175D01*
X-3539263Y-1705011D01*
X-3544755Y-1734347D01*
X-3544744Y-1735297D01*
X-3545069Y-1736190D01*
X-3549539Y-1765318D01*
X-3549495Y-1766318D01*
X-3549804Y-1767270D01*
X-3553225Y-1796185D01*
X-3553142Y-1797234D01*
X-3553431Y-1798246D01*
X-3555774Y-1826944D01*
X-3555648Y-1828040D01*
X-3555910Y-1829112D01*
X-3557147Y-1857589D01*
X-3556971Y-1858729D01*
X-3557200Y-1859859D01*
X-3557302Y-1888112D01*
X-3557072Y-1889290D01*
X-3557262Y-1890477D01*
X-3556201Y-1918500D01*
X-3555912Y-1919713D01*
X-3556055Y-1920951D01*
X-3553803Y-1948742D01*
X-3553451Y-1949981D01*
X-3553542Y-1951267D01*
X-3550070Y-1978820D01*
X-3549651Y-1980078D01*
X-3549684Y-1981404D01*
X-3544964Y-2008716D01*
X-3544476Y-2009983D01*
X-3544447Y-2011341D01*
X-3538451Y-2038408D01*
X-3537893Y-2039675D01*
X-3537797Y-2041056D01*
X-3530496Y-2067873D01*
X-3529870Y-2069129D01*
X-3529705Y-2070523D01*
X-3521070Y-2097086D01*
X-3520379Y-2098321D01*
X-3520144Y-2099716D01*
X-3510147Y-2126022D01*
X-3509394Y-2127225D01*
X-3509090Y-2128611D01*
X-3497704Y-2154654D01*
X-3496895Y-2155816D01*
X-3496524Y-2157182D01*
X-3483720Y-2182959D01*
X-3482862Y-2184071D01*
X-3482429Y-2185406D01*
X-3468178Y-2210914D01*
X-3467279Y-2211968D01*
X-3466790Y-2213264D01*
X-3451063Y-2238497D01*
X-3450132Y-2239489D01*
X-3449593Y-2240737D01*
X-3432362Y-2265692D01*
X-3431409Y-2266617D01*
X-3430826Y-2267811D01*
X-3412064Y-2292484D01*
X-3411096Y-2293340D01*
X-3410479Y-2294475D01*
X-3390156Y-2318861D01*
X-3389182Y-2319648D01*
X-3388537Y-2320721D01*
X-3366626Y-2344816D01*
X-3365654Y-2345534D01*
X-3364989Y-2346542D01*
X-3341460Y-2370343D01*
X-3340498Y-2370994D01*
X-3339820Y-2371938D01*
X-3314645Y-2395440D01*
X-3313698Y-2396027D01*
X-3313013Y-2396906D01*
X-3286166Y-2420105D01*
X-3285238Y-2420631D01*
X-3284553Y-2421447D01*
X-3256003Y-2444339D01*
X-3255100Y-2444809D01*
X-3254418Y-2445565D01*
X-3224137Y-2468146D01*
X-3221641Y-2469335D01*
X-3219601Y-2471201D01*
X-3174982Y-2498244D01*
X-3174004Y-2498600D01*
X-3173212Y-2499274D01*
X-3128966Y-2523966D01*
X-3128015Y-2524274D01*
X-3127232Y-2524895D01*
X-3083417Y-2547403D01*
X-3082503Y-2547664D01*
X-3081739Y-2548231D01*
X-3038414Y-2568721D01*
X-3037546Y-2568939D01*
X-3036811Y-2569449D01*
X-2994035Y-2588089D01*
X-2993223Y-2588266D01*
X-2992527Y-2588720D01*
X-2950358Y-2605675D01*
X-2949611Y-2605815D01*
X-2948964Y-2606214D01*
X-2907462Y-2621651D01*
X-2906788Y-2621759D01*
X-2906199Y-2622104D01*
X-2865422Y-2636188D01*
X-2864830Y-2636269D01*
X-2864308Y-2636560D01*
X-2824315Y-2649459D01*
X-2823814Y-2649517D01*
X-2823369Y-2649755D01*
X-2784219Y-2661636D01*
X-2783816Y-2661675D01*
X-2783457Y-2661861D01*
X-2745208Y-2672888D01*
X-2744914Y-2672913D01*
X-2744650Y-2673046D01*
X-2707362Y-2683388D01*
X-2707186Y-2683401D01*
X-2707028Y-2683479D01*
X-2670759Y-2693301D01*
X-2670712Y-2693304D01*
X-2670669Y-2693325D01*
X-2635571Y-2702769D01*
X-2601849Y-2711960D01*
X-2569620Y-2721044D01*
X-2538994Y-2730160D01*
X-2510055Y-2739446D01*
X-2482890Y-2749027D01*
X-2457588Y-2759008D01*
X-2434225Y-2769483D01*
X-2412850Y-2780528D01*
X-2393478Y-2792213D01*
X-2376083Y-2804607D01*
X-2360572Y-2817818D01*
X-2346806Y-2832006D01*
X-2334624Y-2847415D01*
X-2323884Y-2864380D01*
X-2314510Y-2883287D01*
X-2306515Y-2904542D01*
X-2300975Y-2924899D01*
X-2300352Y-2937521D01*
X-2300897Y-2953429D01*
X-2302734Y-2968871D01*
X-2305818Y-2983941D01*
X-2310126Y-2998723D01*
X-2315648Y-3013276D01*
X-2322384Y-3027648D01*
X-2330334Y-3041859D01*
X-2339491Y-3055912D01*
X-2349843Y-3069796D01*
X-2361364Y-3083491D01*
X-2374023Y-3096971D01*
X-2387778Y-3110209D01*
X-2402577Y-3123175D01*
X-2418365Y-3135841D01*
X-2435084Y-3148183D01*
X-2452668Y-3160176D01*
X-2471051Y-3171801D01*
X-2490168Y-3183042D01*
X-2509946Y-3193880D01*
X-2530316Y-3204302D01*
X-2551210Y-3214298D01*
X-2572558Y-3223858D01*
X-2594286Y-3232971D01*
X-2616326Y-3241632D01*
X-2638608Y-3249833D01*
X-2661057Y-3257568D01*
X-2683609Y-3264835D01*
X-2706187Y-3271627D01*
X-2728727Y-3277943D01*
X-2748635Y-3283123D01*
X-2801240Y-3290807D01*
X-2855924Y-3297771D01*
X-2910103Y-3303657D01*
X-2963803Y-3308486D01*
X-3017012Y-3312274D01*
X-3069748Y-3315040D01*
X-3122016Y-3316803D01*
X-3173828Y-3317582D01*
X-3225179Y-3317394D01*
X-3276093Y-3316258D01*
X-3326561Y-3314192D01*
X-3376606Y-3311214D01*
X-3426232Y-3307341D01*
X-3475436Y-3302592D01*
X-3524233Y-3296984D01*
X-3572632Y-3290536D01*
X-3620642Y-3283263D01*
X-3668257Y-3275186D01*
X-3715502Y-3266319D01*
X-3762373Y-3256682D01*
X-3808879Y-3246292D01*
X-3855027Y-3235165D01*
X-3900833Y-3223318D01*
X-3946288Y-3210771D01*
X-3991411Y-3197538D01*
X-4036201Y-3183640D01*
X-4080665Y-3169092D01*
X-4124818Y-3153909D01*
X-4168662Y-3138111D01*
X-4212192Y-3121718D01*
X-4255464Y-3104730D01*
X-4311692Y-3081829D01*
X-4312065Y-3081757D01*
X-4312384Y-3081552D01*
X-4369153Y-3059291D01*
X-4369568Y-3059217D01*
X-4369925Y-3058994D01*
X-4426911Y-3037596D01*
X-4427368Y-3037521D01*
X-4427765Y-3037283D01*
X-4484981Y-3016833D01*
X-4485481Y-3016759D01*
X-4485919Y-3016507D01*
X-4543381Y-2997090D01*
X-4543924Y-2997019D01*
X-4544404Y-2996754D01*
X-4602125Y-2978456D01*
X-4602713Y-2978390D01*
X-4603236Y-2978116D01*
X-4661230Y-2961021D01*
X-4661861Y-2960964D01*
X-4662428Y-2960682D01*
X-4720711Y-2944875D01*
X-4721385Y-2944829D01*
X-4721997Y-2944542D01*
X-4780582Y-2930110D01*
X-4781299Y-2930077D01*
X-4781957Y-2929789D01*
X-4840857Y-2916815D01*
X-4841617Y-2916800D01*
X-4842320Y-2916513D01*
X-4901551Y-2905084D01*
X-4902351Y-2905088D01*
X-4903101Y-2904807D01*
X-4962676Y-2895007D01*
X-4963515Y-2895035D01*
X-4964309Y-2894762D01*
X-5024243Y-2886677D01*
X-5025119Y-2886732D01*
X-5025956Y-2886473D01*
X-5086263Y-2880187D01*
X-5087172Y-2880271D01*
X-5088052Y-2880029D01*
X-5148746Y-2875629D01*
X-5149685Y-2875746D01*
X-5150604Y-2875525D01*
X-5211699Y-2873094D01*
X-5212664Y-2873247D01*
X-5213620Y-2873050D01*
X-5275130Y-2872676D01*
X-5276115Y-2872866D01*
X-5277104Y-2872698D01*
X-5339044Y-2874464D01*
X-5340044Y-2874693D01*
X-5341062Y-2874557D01*
X-5403445Y-2878549D01*
X-5404455Y-2878818D01*
X-5405496Y-2878717D01*
X-5468337Y-2885020D01*
X-5469352Y-2885330D01*
X-5470410Y-2885266D01*
X-5533724Y-2893965D01*
X-5534736Y-2894315D01*
X-5535806Y-2894291D01*
X-5599606Y-2905471D01*
X-5600610Y-2905860D01*
X-5601687Y-2905875D01*
X-5665987Y-2919622D01*
X-5666977Y-2920049D01*
X-5668054Y-2920104D01*
X-5732869Y-2936503D01*
X-5733839Y-2936965D01*
X-5734910Y-2937060D01*
X-5800253Y-2956195D01*
X-5801199Y-2956689D01*
X-5802258Y-2956822D01*
X-5868145Y-2978780D01*
X-5869062Y-2979303D01*
X-5870104Y-2979473D01*
X-5936548Y-3004337D01*
X-5937432Y-3004885D01*
X-5938451Y-3005089D01*
X-6005467Y-3032946D01*
X-6006315Y-3033515D01*
X-6007308Y-3033750D01*
X-6074910Y-3064685D01*
X-6075719Y-3065270D01*
X-6076683Y-3065534D01*
X-6144884Y-3099632D01*
X-6145654Y-3100229D01*
X-6146584Y-3100518D01*
X-6215399Y-3137864D01*
X-6216614Y-3138874D01*
X-6218094Y-3139423D01*
X-6534985Y-3334488D01*
X-6838196Y-3505627D01*
X-7128804Y-3654395D01*
X-7407026Y-3781825D01*
X-7673082Y-3888951D01*
X-7927194Y-3976814D01*
X-8169588Y-4046455D01*
X-8400504Y-4098925D01*
X-8620182Y-4135269D01*
X-8828875Y-4156538D01*
X-9026849Y-4163777D01*
X-9214375Y-4158028D01*
X-9391737Y-4140322D01*
X-9559226Y-4111680D01*
X-9717129Y-4073110D01*
X-9865736Y-4025609D01*
X-10005329Y-3970160D01*
X-10136179Y-3907742D01*
X-10258548Y-3839325D01*
X-10372684Y-3765881D01*
X-10478825Y-3688382D01*
X-10577200Y-3607806D01*
X-10668031Y-3525132D01*
X-10751538Y-3441344D01*
X-10827934Y-3357436D01*
X-10876876Y-3298962D01*
X-10647368Y-3298962D01*
X-10616110Y-3356488D01*
X-10565218Y-3397674D01*
X-10536946Y-3409384D01*
X-10511267Y-3402037D01*
X-10511267Y-3273283D01*
X-10463007Y-3273283D01*
X-10463007Y-3402037D01*
X-10437329Y-3409384D01*
X-10410639Y-3394882D01*
X-10071908Y-3394882D01*
X-10046907Y-3455390D01*
X-10000653Y-3501725D01*
X-9940188Y-3526832D01*
X-9874718Y-3526889D01*
X-9814210Y-3501887D01*
X-9767876Y-3455634D01*
X-9742768Y-3395169D01*
X-9742711Y-3329699D01*
X-9767713Y-3269191D01*
X-9813967Y-3222856D01*
X-9874431Y-3197749D01*
X-9939901Y-3197692D01*
X-10000409Y-3222693D01*
X-10046744Y-3268947D01*
X-10071851Y-3329412D01*
X-10071908Y-3394882D01*
X-10410639Y-3394882D01*
X-10379802Y-3378126D01*
X-10338617Y-3327234D01*
X-10326907Y-3298962D01*
X-10334253Y-3273283D01*
X-10463007Y-3273283D01*
X-10511267Y-3273283D01*
X-10640022Y-3273283D01*
X-10647368Y-3298962D01*
X-10876876Y-3298962D01*
X-10897431Y-3274404D01*
X-10955524Y-3199344D01*
X-10647368Y-3199344D01*
X-10640022Y-3225023D01*
X-10511267Y-3225023D01*
X-10511267Y-3096269D01*
X-10463007Y-3096269D01*
X-10463007Y-3225023D01*
X-10334253Y-3225023D01*
X-10326907Y-3199344D01*
X-10358164Y-3141818D01*
X-10409057Y-3100633D01*
X-10437329Y-3088922D01*
X-10463007Y-3096269D01*
X-10511267Y-3096269D01*
X-10536946Y-3088922D01*
X-10594473Y-3120180D01*
X-10635658Y-3171073D01*
X-10647368Y-3199344D01*
X-10955524Y-3199344D01*
X-10960247Y-3193242D01*
X-11016598Y-3114948D01*
X-11066700Y-3040525D01*
X-11110777Y-2970963D01*
X-11148613Y-2907992D01*
X-11183533Y-2842673D01*
X-11216901Y-2774653D01*
X-11248575Y-2704281D01*
X-11278590Y-2631574D01*
X-11306980Y-2556555D01*
X-11333784Y-2479235D01*
X-11359037Y-2399640D01*
X-11364680Y-2380184D01*
X-10443139Y-2380184D01*
X-10418138Y-2440692D01*
X-10371884Y-2487027D01*
X-10319086Y-2508950D01*
X-10340193Y-2530021D01*
X-10365301Y-2590485D01*
X-10365358Y-2655955D01*
X-10340356Y-2716464D01*
X-10294102Y-2762798D01*
X-10233638Y-2787905D01*
X-10168168Y-2787962D01*
X-10107660Y-2762961D01*
X-10061325Y-2716707D01*
X-10036218Y-2656243D01*
X-10036161Y-2590773D01*
X-10061162Y-2530264D01*
X-10107416Y-2483930D01*
X-10160214Y-2462006D01*
X-10139107Y-2440935D01*
X-10114000Y-2380471D01*
X-10113942Y-2315001D01*
X-10138944Y-2254493D01*
X-10185198Y-2208158D01*
X-10245662Y-2183051D01*
X-10311132Y-2182994D01*
X-10371641Y-2207995D01*
X-10417975Y-2254249D01*
X-10443082Y-2314714D01*
X-10443139Y-2380184D01*
X-11364680Y-2380184D01*
X-11382778Y-2317782D01*
X-11405043Y-2233696D01*
X-11425873Y-2147388D01*
X-11445305Y-2058888D01*
X-11463378Y-1968224D01*
X-11480134Y-1875406D01*
X-11495612Y-1780463D01*
X-11509854Y-1683422D01*
X-11522900Y-1584306D01*
X-11534793Y-1483123D01*
X-11545574Y-1379922D01*
X-11555286Y-1274700D01*
X-11563972Y-1167494D01*
X-11571674Y-1058319D01*
X-11578435Y-947215D01*
X-11584299Y-834173D01*
X-11589310Y-719228D01*
X-11593509Y-602435D01*
X-11596942Y-483779D01*
X-11599653Y-363265D01*
X-11599940Y-345969D01*
X-11373609Y-345969D01*
X-11339113Y-429457D01*
X-11275293Y-493388D01*
X-11191865Y-528031D01*
X-11101531Y-528109D01*
X-11018043Y-493613D01*
X-10954112Y-429793D01*
X-10919470Y-346365D01*
X-10919391Y-256031D01*
X-10953887Y-172543D01*
X-11017707Y-108612D01*
X-11101135Y-73970D01*
X-11191469Y-73891D01*
X-11274957Y-108387D01*
X-11338888Y-172207D01*
X-11373530Y-255635D01*
X-11373609Y-345969D01*
X-11599940Y-345969D01*
X-11601684Y-240978D01*
X-11603081Y-116868D01*
X-11603886Y8972D01*
X-11604145Y136700D01*
X-11604177Y136856D01*
X-11604147Y137012D01*
X-11604349Y164031D01*
X-11373609Y164031D01*
X-11339113Y80543D01*
X-11275293Y16612D01*
X-11191865Y-18031D01*
X-11101531Y-18109D01*
X-11018043Y16387D01*
X-10954112Y80207D01*
X-10919470Y163635D01*
X-10919391Y253969D01*
X-10953887Y337457D01*
X-11017707Y401388D01*
X-11101135Y436030D01*
X-11191469Y436109D01*
X-11274957Y401613D01*
X-11338888Y337793D01*
X-11373530Y254365D01*
X-11373609Y164031D01*
X-11604349Y164031D01*
X-11605145Y270136D01*
X-11604250Y398950D01*
X-11601447Y524017D01*
X-11596723Y645493D01*
X-11590061Y763533D01*
X-11581446Y878324D01*
X-11570864Y990014D01*
X-11561155Y1074059D01*
X-11318529Y1074059D01*
X-11287466Y998880D01*
X-11229998Y941312D01*
X-11154874Y910118D01*
X-11073531Y910047D01*
X-10998352Y941110D01*
X-10940784Y998578D01*
X-10909590Y1073702D01*
X-10909519Y1155045D01*
X-10940582Y1230224D01*
X-10998050Y1287792D01*
X-11073174Y1318986D01*
X-11154517Y1319057D01*
X-11229696Y1287994D01*
X-11287264Y1230526D01*
X-11318458Y1155402D01*
X-11318529Y1074059D01*
X-11561155Y1074059D01*
X-11558300Y1098778D01*
X-11543737Y1204781D01*
X-11527162Y1308189D01*
X-11508558Y1409179D01*
X-11487908Y1507919D01*
X-11465195Y1604584D01*
X-11440403Y1699337D01*
X-11413510Y1792365D01*
X-11384499Y1883832D01*
X-11353346Y1973918D01*
X-11320031Y2062794D01*
X-11316873Y2070608D01*
X-10484038Y2070608D01*
X-10484038Y-1740408D01*
X-10478552Y-1767988D01*
X-10462929Y-1791369D01*
X-9554935Y-2699363D01*
X-9558841Y-2703262D01*
X-9583948Y-2763727D01*
X-9584005Y-2829196D01*
X-9559003Y-2889705D01*
X-9512749Y-2936039D01*
X-9452285Y-2961146D01*
X-9386815Y-2961204D01*
X-9326307Y-2936202D01*
X-9279972Y-2889948D01*
X-9254865Y-2829484D01*
X-9254808Y-2764014D01*
X-9279809Y-2703506D01*
X-9326063Y-2657171D01*
X-9386528Y-2632064D01*
X-9418418Y-2632036D01*
X-9841733Y-2208721D01*
X-9546470Y-2208721D01*
X-9546470Y-2264679D01*
X-9536797Y-2313307D01*
X-9509252Y-2354531D01*
X-9468028Y-2382077D01*
X-9419400Y-2391749D01*
X-9370772Y-2382077D01*
X-9329548Y-2354531D01*
X-9302003Y-2313307D01*
X-9294400Y-2275086D01*
X-9286797Y-2313307D01*
X-9259252Y-2354531D01*
X-9218028Y-2382077D01*
X-9169400Y-2391749D01*
X-9120772Y-2382077D01*
X-9079548Y-2354531D01*
X-9052003Y-2313307D01*
X-9044400Y-2275086D01*
X-9036797Y-2313307D01*
X-9009252Y-2354531D01*
X-8968028Y-2382077D01*
X-8919400Y-2391749D01*
X-8870772Y-2382077D01*
X-8829548Y-2354531D01*
X-8802003Y-2313307D01*
X-8793338Y-2269744D01*
X-7706110Y-2269744D01*
X-7706110Y-2472944D01*
X-7702479Y-2492240D01*
X-7691075Y-2509962D01*
X-7673675Y-2521851D01*
X-7653020Y-2526034D01*
X-7480300Y-2526034D01*
X-7461004Y-2522403D01*
X-7443282Y-2510999D01*
X-7431393Y-2493599D01*
X-7427210Y-2472944D01*
X-7427210Y-2462538D01*
X-7410545Y-2487479D01*
X-7365635Y-2517487D01*
X-7312660Y-2528025D01*
X-7259685Y-2517487D01*
X-7214775Y-2487479D01*
X-7185660Y-2443905D01*
X-7156545Y-2487479D01*
X-7111635Y-2517487D01*
X-7058660Y-2528025D01*
X-7005685Y-2517487D01*
X-6960775Y-2487479D01*
X-6931660Y-2443905D01*
X-6902545Y-2487479D01*
X-6857635Y-2517487D01*
X-6804660Y-2528025D01*
X-6751685Y-2517487D01*
X-6706775Y-2487479D01*
X-6677660Y-2443905D01*
X-6648545Y-2487479D01*
X-6603635Y-2517487D01*
X-6550660Y-2528025D01*
X-6497685Y-2517487D01*
X-6452775Y-2487479D01*
X-6422767Y-2442570D01*
X-6421858Y-2437998D01*
X-6409384Y-2466088D01*
X-6370379Y-2503174D01*
X-6341817Y-2517442D01*
X-6320790Y-2509653D01*
X-6320790Y-2395474D01*
X-6272530Y-2395474D01*
X-6272530Y-2509653D01*
X-6251503Y-2517442D01*
X-6222941Y-2503174D01*
X-6183936Y-2466088D01*
X-6169660Y-2433941D01*
X-6155384Y-2466088D01*
X-6116379Y-2503174D01*
X-6087817Y-2517442D01*
X-6066790Y-2509653D01*
X-6066790Y-2395474D01*
X-6167296Y-2395474D01*
X-6169660Y-2400573D01*
X-6172024Y-2395474D01*
X-6272530Y-2395474D01*
X-6320790Y-2395474D01*
X-6322790Y-2395474D01*
X-6322790Y-2347214D01*
X-6320790Y-2347214D01*
X-6320790Y-2233035D01*
X-6272530Y-2233035D01*
X-6272530Y-2347214D01*
X-6172024Y-2347214D01*
X-6169660Y-2342115D01*
X-6167296Y-2347214D01*
X-6066790Y-2347214D01*
X-6066790Y-2233035D01*
X-6018530Y-2233035D01*
X-6018530Y-2347214D01*
X-6016530Y-2347214D01*
X-6016530Y-2395474D01*
X-6018530Y-2395474D01*
X-6018530Y-2509653D01*
X-5997503Y-2517442D01*
X-5968941Y-2503174D01*
X-5929936Y-2466088D01*
X-5917462Y-2437998D01*
X-5916553Y-2442570D01*
X-5886545Y-2487479D01*
X-5841635Y-2517487D01*
X-5788660Y-2528025D01*
X-5735685Y-2517487D01*
X-5690775Y-2487479D01*
X-5660767Y-2442570D01*
X-5650230Y-2389595D01*
X-5650230Y-2353093D01*
X-5660767Y-2300119D01*
X-5690775Y-2255209D01*
X-5735685Y-2225201D01*
X-5788660Y-2214663D01*
X-5841635Y-2225201D01*
X-5886545Y-2255209D01*
X-5916553Y-2300119D01*
X-5917462Y-2304690D01*
X-5929936Y-2276600D01*
X-5968941Y-2239514D01*
X-5997503Y-2225246D01*
X-6018530Y-2233035D01*
X-6066790Y-2233035D01*
X-6087817Y-2225246D01*
X-6116379Y-2239514D01*
X-6155384Y-2276600D01*
X-6169660Y-2308747D01*
X-6183936Y-2276600D01*
X-6222941Y-2239514D01*
X-6251503Y-2225246D01*
X-6272530Y-2233035D01*
X-6320790Y-2233035D01*
X-6341817Y-2225246D01*
X-6370379Y-2239514D01*
X-6409384Y-2276600D01*
X-6421858Y-2304690D01*
X-6422767Y-2300119D01*
X-6452775Y-2255209D01*
X-6497685Y-2225201D01*
X-6550660Y-2214663D01*
X-6603635Y-2225201D01*
X-6648545Y-2255209D01*
X-6677660Y-2298783D01*
X-6706775Y-2255209D01*
X-6751685Y-2225201D01*
X-6804660Y-2214663D01*
X-6857635Y-2225201D01*
X-6902545Y-2255209D01*
X-6931660Y-2298783D01*
X-6960775Y-2255209D01*
X-7005685Y-2225201D01*
X-7058660Y-2214663D01*
X-7111635Y-2225201D01*
X-7156545Y-2255209D01*
X-7185660Y-2298783D01*
X-7214775Y-2255209D01*
X-7259685Y-2225201D01*
X-7312660Y-2214663D01*
X-7365635Y-2225201D01*
X-7410545Y-2255209D01*
X-7427210Y-2280150D01*
X-7427210Y-2269744D01*
X-7430841Y-2250448D01*
X-7442245Y-2232726D01*
X-7459645Y-2220837D01*
X-7480300Y-2216654D01*
X-7653020Y-2216654D01*
X-7672316Y-2220285D01*
X-7690038Y-2231689D01*
X-7701927Y-2249089D01*
X-7706110Y-2269744D01*
X-8793338Y-2269744D01*
X-8792330Y-2264679D01*
X-8792330Y-2208721D01*
X-8802003Y-2160093D01*
X-8829548Y-2118869D01*
X-8870772Y-2091323D01*
X-8919400Y-2081651D01*
X-8968028Y-2091323D01*
X-9009252Y-2118869D01*
X-9036797Y-2160093D01*
X-9044400Y-2198314D01*
X-9052003Y-2160093D01*
X-9079548Y-2118869D01*
X-9097330Y-2106987D01*
X-9097330Y-1581669D01*
X-8916509Y-1581669D01*
X-8882013Y-1665157D01*
X-8818193Y-1729088D01*
X-8734765Y-1763730D01*
X-8644431Y-1763809D01*
X-8560943Y-1729313D01*
X-8497012Y-1665493D01*
X-8462370Y-1582065D01*
X-8462291Y-1491731D01*
X-8496787Y-1408243D01*
X-8560607Y-1344312D01*
X-8644035Y-1309670D01*
X-8734369Y-1309591D01*
X-8817857Y-1344087D01*
X-8881788Y-1407907D01*
X-8916431Y-1491335D01*
X-8916509Y-1581669D01*
X-9097330Y-1581669D01*
X-9097330Y-1205421D01*
X-7883278Y-1205421D01*
X-7883278Y-1261379D01*
X-7873605Y-1310007D01*
X-7846060Y-1351231D01*
X-7804836Y-1378777D01*
X-7756208Y-1388449D01*
X-7707580Y-1378777D01*
X-7666356Y-1351231D01*
X-7638811Y-1310007D01*
X-7631208Y-1271786D01*
X-7623605Y-1310007D01*
X-7596060Y-1351231D01*
X-7578278Y-1363113D01*
X-7578278Y-1782318D01*
X-7572792Y-1809898D01*
X-7557169Y-1833279D01*
X-7224683Y-2165765D01*
X-7201302Y-2181388D01*
X-7173722Y-2186874D01*
X-5407032Y-2186874D01*
X-5374536Y-2219371D01*
X-5384792Y-2221301D01*
X-5402514Y-2232705D01*
X-5414403Y-2250105D01*
X-5418586Y-2270760D01*
X-5418586Y-2473960D01*
X-5414955Y-2493256D01*
X-5403551Y-2510978D01*
X-5386151Y-2522867D01*
X-5365496Y-2527050D01*
X-5192776Y-2527050D01*
X-5173480Y-2523419D01*
X-5155758Y-2512015D01*
X-5143869Y-2494615D01*
X-5139686Y-2473960D01*
X-5139686Y-2463554D01*
X-5123021Y-2488495D01*
X-5078111Y-2518503D01*
X-5025136Y-2529041D01*
X-4972161Y-2518503D01*
X-4927251Y-2488495D01*
X-4898136Y-2444921D01*
X-4869021Y-2488495D01*
X-4824111Y-2518503D01*
X-4771136Y-2529041D01*
X-4718161Y-2518503D01*
X-4673251Y-2488495D01*
X-4644136Y-2444921D01*
X-4615021Y-2488495D01*
X-4570111Y-2518503D01*
X-4517136Y-2529041D01*
X-4464161Y-2518503D01*
X-4419251Y-2488495D01*
X-4390136Y-2444921D01*
X-4361021Y-2488495D01*
X-4316111Y-2518503D01*
X-4263136Y-2529041D01*
X-4210161Y-2518503D01*
X-4165251Y-2488495D01*
X-4136136Y-2444921D01*
X-4107021Y-2488495D01*
X-4062111Y-2518503D01*
X-4009136Y-2529041D01*
X-3956161Y-2518503D01*
X-3911251Y-2488495D01*
X-3881243Y-2443586D01*
X-3870706Y-2390611D01*
X-3870706Y-2354109D01*
X-3881243Y-2301135D01*
X-3911251Y-2256225D01*
X-3956161Y-2226217D01*
X-4009136Y-2215679D01*
X-4062111Y-2226217D01*
X-4107021Y-2256225D01*
X-4136136Y-2299799D01*
X-4165251Y-2256225D01*
X-4210161Y-2226217D01*
X-4263136Y-2215679D01*
X-4316111Y-2226217D01*
X-4361021Y-2256225D01*
X-4390136Y-2299799D01*
X-4419251Y-2256225D01*
X-4464161Y-2226217D01*
X-4517136Y-2215679D01*
X-4570111Y-2226217D01*
X-4615021Y-2256225D01*
X-4644136Y-2299799D01*
X-4673251Y-2256225D01*
X-4718161Y-2226217D01*
X-4771136Y-2215679D01*
X-4824111Y-2226217D01*
X-4869021Y-2256225D01*
X-4898136Y-2299799D01*
X-4927251Y-2256225D01*
X-4972161Y-2226217D01*
X-5025136Y-2215679D01*
X-5078111Y-2226217D01*
X-5123021Y-2256225D01*
X-5139686Y-2281166D01*
X-5139686Y-2270760D01*
X-5143317Y-2251464D01*
X-5154721Y-2233742D01*
X-5172121Y-2221853D01*
X-5192776Y-2217670D01*
X-5207066Y-2217670D01*
X-5207066Y-2212849D01*
X-5207066Y-2212848D01*
X-5212552Y-2185268D01*
X-5228175Y-2161887D01*
X-5326219Y-2063843D01*
X-5349600Y-2048220D01*
X-5377180Y-2042734D01*
X-7143870Y-2042734D01*
X-7434138Y-1752466D01*
X-7434138Y-1363113D01*
X-7416356Y-1351231D01*
X-7388811Y-1310007D01*
X-7379138Y-1261379D01*
X-7379138Y-1257530D01*
X-7370343Y-1257530D01*
X-7381931Y-1277432D01*
X-7365078Y-1324095D01*
X-7331650Y-1360757D01*
X-7299557Y-1377847D01*
X-7280338Y-1369871D01*
X-7280338Y-1257530D01*
X-7232078Y-1257530D01*
X-7232078Y-1369871D01*
X-7212859Y-1377847D01*
X-7180766Y-1360757D01*
X-7147338Y-1324095D01*
X-7130485Y-1277432D01*
X-7142073Y-1257530D01*
X-7232078Y-1257530D01*
X-7280338Y-1257530D01*
X-7282338Y-1257530D01*
X-7282338Y-1209270D01*
X-7280338Y-1209270D01*
X-7280338Y-1096929D01*
X-7232078Y-1096929D01*
X-7232078Y-1209270D01*
X-7142073Y-1209270D01*
X-7130485Y-1189368D01*
X-7147338Y-1142705D01*
X-7180766Y-1106043D01*
X-7212859Y-1088953D01*
X-7232078Y-1096929D01*
X-7280338Y-1096929D01*
X-7299557Y-1088953D01*
X-7331650Y-1106043D01*
X-7365078Y-1142705D01*
X-7381931Y-1189368D01*
X-7370343Y-1209270D01*
X-7379138Y-1209270D01*
X-7379138Y-1205421D01*
X-7388811Y-1156793D01*
X-7416356Y-1115569D01*
X-7457580Y-1088023D01*
X-7506208Y-1078351D01*
X-7554836Y-1088023D01*
X-7596060Y-1115569D01*
X-7623605Y-1156793D01*
X-7631208Y-1195014D01*
X-7638811Y-1156793D01*
X-7666356Y-1115569D01*
X-7707580Y-1088023D01*
X-7756208Y-1078351D01*
X-7804836Y-1088023D01*
X-7846060Y-1115569D01*
X-7873605Y-1156793D01*
X-7883278Y-1205421D01*
X-9097330Y-1205421D01*
X-9097330Y-578369D01*
X-8213317Y-578369D01*
X-8178821Y-661857D01*
X-8115001Y-725788D01*
X-8031573Y-760430D01*
X-7941239Y-760509D01*
X-7857751Y-726013D01*
X-7793820Y-662193D01*
X-7759177Y-578765D01*
X-7759177Y-578369D01*
X-7253317Y-578369D01*
X-7218821Y-661857D01*
X-7155001Y-725788D01*
X-7071573Y-760430D01*
X-6981239Y-760509D01*
X-6897751Y-726013D01*
X-6833820Y-662193D01*
X-6799177Y-578765D01*
X-6799099Y-488431D01*
X-6833595Y-404943D01*
X-6897415Y-341012D01*
X-6980843Y-306370D01*
X-7071177Y-306291D01*
X-7154665Y-340787D01*
X-7218596Y-404607D01*
X-7253238Y-488035D01*
X-7253317Y-578369D01*
X-7759177Y-578369D01*
X-7759099Y-488431D01*
X-7793595Y-404943D01*
X-7857415Y-341012D01*
X-7940843Y-306370D01*
X-8031177Y-306291D01*
X-8114665Y-340787D01*
X-8178596Y-404607D01*
X-8213238Y-488035D01*
X-8213317Y-578369D01*
X-9097330Y-578369D01*
X-9097330Y1604638D01*
X-8065382Y2636586D01*
X-4901064Y2636586D01*
X-4847517Y2583038D01*
X-4865465Y2571045D01*
X-4895473Y2526136D01*
X-4895803Y2524475D01*
X-4923695Y2566219D01*
X-4968605Y2596227D01*
X-5021580Y2606765D01*
X-5074555Y2596227D01*
X-5119465Y2566219D01*
X-5148580Y2522645D01*
X-5177695Y2566219D01*
X-5222605Y2596227D01*
X-5275580Y2606765D01*
X-5328555Y2596227D01*
X-5373465Y2566219D01*
X-5402580Y2522645D01*
X-5431695Y2566219D01*
X-5476605Y2596227D01*
X-5529580Y2606765D01*
X-5582555Y2596227D01*
X-5627465Y2566219D01*
X-5656580Y2522645D01*
X-5685695Y2566219D01*
X-5730605Y2596227D01*
X-5783580Y2606765D01*
X-5836555Y2596227D01*
X-5881465Y2566219D01*
X-5911473Y2521310D01*
X-5922010Y2468335D01*
X-5922010Y2431833D01*
X-5911473Y2378859D01*
X-5881465Y2333949D01*
X-5836555Y2303941D01*
X-5783580Y2293403D01*
X-5730605Y2303941D01*
X-5685695Y2333949D01*
X-5656580Y2377523D01*
X-5627465Y2333949D01*
X-5582555Y2303941D01*
X-5541452Y2295765D01*
X-5541452Y2023063D01*
X-5574174Y2055843D01*
X-5621302Y2075412D01*
X-5672331Y2075456D01*
X-5719492Y2055969D01*
X-5755607Y2019918D01*
X-5773949Y1975745D01*
X-5792122Y2019728D01*
X-5828174Y2055843D01*
X-5875302Y2075412D01*
X-5926331Y2075456D01*
X-5973492Y2055969D01*
X-6009607Y2019918D01*
X-6029176Y1972790D01*
X-6029220Y1921761D01*
X-6009733Y1874600D01*
X-5973682Y1838485D01*
X-5926554Y1818916D01*
X-5875525Y1818872D01*
X-5828364Y1838358D01*
X-5792249Y1874410D01*
X-5773907Y1918583D01*
X-5755733Y1874600D01*
X-5719682Y1838485D01*
X-5672554Y1818916D01*
X-5621525Y1818872D01*
X-5574364Y1838358D01*
X-5541452Y1871213D01*
X-5541452Y1667390D01*
X-5641413Y1567429D01*
X-5672331Y1567456D01*
X-5719492Y1547969D01*
X-5755607Y1511918D01*
X-5773949Y1467745D01*
X-5792122Y1511728D01*
X-5828174Y1547843D01*
X-5875302Y1567412D01*
X-5926331Y1567456D01*
X-5973492Y1547969D01*
X-6009607Y1511918D01*
X-6029176Y1464790D01*
X-6029220Y1413761D01*
X-6009733Y1366600D01*
X-5973682Y1330485D01*
X-5972998Y1330201D01*
X-5972998Y1194308D01*
X-5967512Y1166728D01*
X-5951889Y1143347D01*
X-5639242Y830700D01*
X-5639242Y534931D01*
X-5672136Y556910D01*
X-5721223Y566674D01*
X-5795137Y566674D01*
X-5844224Y556910D01*
X-5852138Y551622D01*
X-6568560Y551622D01*
X-6624180Y607242D01*
X-6624180Y1289376D01*
X-6578092Y1335464D01*
X-6573122Y1330485D01*
X-6525994Y1310916D01*
X-6474965Y1310872D01*
X-6427804Y1330359D01*
X-6391689Y1366410D01*
X-6373347Y1410583D01*
X-6355173Y1366600D01*
X-6319122Y1330485D01*
X-6271994Y1310916D01*
X-6220965Y1310872D01*
X-6173804Y1330359D01*
X-6137689Y1366410D01*
X-6118120Y1413538D01*
X-6118076Y1464567D01*
X-6137562Y1511728D01*
X-6173614Y1547843D01*
X-6220742Y1567412D01*
X-6271771Y1567456D01*
X-6318932Y1547969D01*
X-6355047Y1511918D01*
X-6373389Y1467745D01*
X-6391562Y1511728D01*
X-6427614Y1547843D01*
X-6474742Y1567412D01*
X-6525771Y1567456D01*
X-6572932Y1547969D01*
X-6609047Y1511918D01*
X-6614571Y1498614D01*
X-6627275Y1490125D01*
X-6689180Y1428221D01*
X-6689180Y1627244D01*
X-6497532Y1818891D01*
X-6474965Y1818872D01*
X-6427804Y1838358D01*
X-6391689Y1874410D01*
X-6373347Y1918583D01*
X-6355173Y1874600D01*
X-6319122Y1838485D01*
X-6271994Y1818916D01*
X-6220965Y1818872D01*
X-6173804Y1838358D01*
X-6137689Y1874410D01*
X-6118120Y1921538D01*
X-6118076Y1972567D01*
X-6137562Y2019728D01*
X-6173614Y2055843D01*
X-6220742Y2075412D01*
X-6271771Y2075456D01*
X-6318932Y2055969D01*
X-6355047Y2019918D01*
X-6373389Y1975745D01*
X-6391562Y2019728D01*
X-6427614Y2055843D01*
X-6474742Y2075412D01*
X-6525771Y2075456D01*
X-6572932Y2055969D01*
X-6609047Y2019918D01*
X-6628616Y1972790D01*
X-6628660Y1921761D01*
X-6619844Y1900424D01*
X-6754180Y1766088D01*
X-6754180Y1968620D01*
X-6685119Y2037681D01*
X-6683584Y2039977D01*
X-6521316Y2202246D01*
X-6271006Y2202246D01*
X-6243426Y2207732D01*
X-6220045Y2223355D01*
X-6143180Y2300220D01*
X-6083046Y2300220D01*
X-6063750Y2303851D01*
X-6046028Y2315255D01*
X-6034139Y2332655D01*
X-6029956Y2353310D01*
X-6029956Y2556510D01*
X-6033587Y2575806D01*
X-6044991Y2593528D01*
X-6062391Y2605417D01*
X-6083046Y2609600D01*
X-6255766Y2609600D01*
X-6275062Y2605969D01*
X-6292784Y2594565D01*
X-6304673Y2577165D01*
X-6308856Y2556510D01*
X-6308856Y2546104D01*
X-6325521Y2571045D01*
X-6370431Y2601053D01*
X-6423406Y2611591D01*
X-6476381Y2601053D01*
X-6521291Y2571045D01*
X-6550406Y2527471D01*
X-6579521Y2571045D01*
X-6624431Y2601053D01*
X-6677406Y2611591D01*
X-6730381Y2601053D01*
X-6775291Y2571045D01*
X-6804406Y2527471D01*
X-6833521Y2571045D01*
X-6878431Y2601053D01*
X-6931406Y2611591D01*
X-6984381Y2601053D01*
X-7029291Y2571045D01*
X-7058406Y2527471D01*
X-7087521Y2571045D01*
X-7132431Y2601053D01*
X-7185406Y2611591D01*
X-7238381Y2601053D01*
X-7283291Y2571045D01*
X-7312406Y2527471D01*
X-7341521Y2571045D01*
X-7386431Y2601053D01*
X-7439406Y2611591D01*
X-7492381Y2601053D01*
X-7537291Y2571045D01*
X-7566406Y2527471D01*
X-7595521Y2571045D01*
X-7640431Y2601053D01*
X-7693406Y2611591D01*
X-7746381Y2601053D01*
X-7791291Y2571045D01*
X-7820406Y2527471D01*
X-7849521Y2571045D01*
X-7894431Y2601053D01*
X-7947406Y2611591D01*
X-8000381Y2601053D01*
X-8045291Y2571045D01*
X-8075299Y2526136D01*
X-8085836Y2473161D01*
X-8085836Y2436659D01*
X-8075299Y2383685D01*
X-8045291Y2338775D01*
X-8000381Y2308767D01*
X-7947406Y2298229D01*
X-7894431Y2308767D01*
X-7849521Y2338775D01*
X-7820406Y2382349D01*
X-7791291Y2338775D01*
X-7746381Y2308767D01*
X-7693406Y2298229D01*
X-7640431Y2308767D01*
X-7595521Y2338775D01*
X-7566406Y2382349D01*
X-7537291Y2338775D01*
X-7492381Y2308767D01*
X-7439406Y2298229D01*
X-7386431Y2308767D01*
X-7341521Y2338775D01*
X-7312406Y2382349D01*
X-7283291Y2338775D01*
X-7238381Y2308767D01*
X-7185406Y2298229D01*
X-7132431Y2308767D01*
X-7087521Y2338775D01*
X-7058406Y2382349D01*
X-7029291Y2338775D01*
X-6984381Y2308767D01*
X-6931406Y2298229D01*
X-6878431Y2308767D01*
X-6833521Y2338775D01*
X-6804406Y2382349D01*
X-6775291Y2338775D01*
X-6730381Y2308767D01*
X-6677406Y2298229D01*
X-6624431Y2308767D01*
X-6606977Y2320429D01*
X-6787041Y2140365D01*
X-6788576Y2138069D01*
X-6877211Y2049433D01*
X-6892834Y2026052D01*
X-6898320Y1998472D01*
X-6898320Y408940D01*
X-6892834Y381360D01*
X-6877211Y357979D01*
X-6793391Y274159D01*
X-6770010Y258536D01*
X-6742430Y253050D01*
X-6505081Y253050D01*
X-6503924Y252820D01*
X-6405626Y252820D01*
X-6404469Y253050D01*
X-6105001Y253050D01*
X-6094410Y242459D01*
X-6094410Y-54857D01*
X-6094664Y-56134D01*
X-6094664Y-647954D01*
X-6089178Y-675534D01*
X-6073555Y-698915D01*
X-5816507Y-955963D01*
X-5813445Y-958009D01*
X-5711097Y-1060357D01*
X-5687716Y-1075980D01*
X-5660136Y-1081466D01*
X-3296666Y-1081466D01*
X-3269086Y-1075980D01*
X-3245705Y-1060357D01*
X-3161527Y-976180D01*
X-3137462Y-966236D01*
X-3114355Y-943170D01*
X-3101834Y-913016D01*
X-3101806Y-880367D01*
X-3114274Y-850192D01*
X-3137340Y-827085D01*
X-3167494Y-814564D01*
X-3200143Y-814536D01*
X-3230318Y-827004D01*
X-3253425Y-850070D01*
X-3263481Y-874289D01*
X-3326518Y-937326D01*
X-5630284Y-937326D01*
X-5713569Y-854041D01*
X-5716631Y-851995D01*
X-5839900Y-728726D01*
X-4539290Y-728726D01*
X-4539290Y-794766D01*
X-4518045Y-853313D01*
X-4476012Y-899273D01*
X-4429726Y-920875D01*
X-4405630Y-913383D01*
X-4405630Y-728726D01*
X-4357370Y-728726D01*
X-4357370Y-913383D01*
X-4333274Y-920875D01*
X-4286988Y-899273D01*
X-4244955Y-853313D01*
X-4223710Y-794766D01*
X-4223710Y-728726D01*
X-4357370Y-728726D01*
X-4405630Y-728726D01*
X-4539290Y-728726D01*
X-5839900Y-728726D01*
X-5862760Y-705866D01*
X-5795327Y-705866D01*
X-5782310Y-692849D01*
X-5782310Y-601726D01*
X-5734050Y-601726D01*
X-5734050Y-692849D01*
X-5721032Y-705866D01*
X-5637841Y-705866D01*
X-5618703Y-697939D01*
X-5604055Y-683291D01*
X-5596128Y-664153D01*
X-5596128Y-614744D01*
X-5596445Y-614426D01*
X-4539290Y-614426D01*
X-4539290Y-680466D01*
X-4405630Y-680466D01*
X-4405630Y-495809D01*
X-4357370Y-495809D01*
X-4357370Y-680466D01*
X-4223710Y-680466D01*
X-4223710Y-614426D01*
X-4244955Y-555879D01*
X-4286988Y-509919D01*
X-4333274Y-488317D01*
X-4357370Y-495809D01*
X-4405630Y-495809D01*
X-4429726Y-488317D01*
X-4476012Y-509919D01*
X-4518045Y-555879D01*
X-4539290Y-614426D01*
X-5596445Y-614426D01*
X-5609145Y-601726D01*
X-5734050Y-601726D01*
X-5782310Y-601726D01*
X-5907214Y-601726D01*
X-5920232Y-614744D01*
X-5920232Y-648394D01*
X-5950524Y-618102D01*
X-5950524Y-97538D01*
X-5927505Y-120557D01*
X-5904124Y-136180D01*
X-5901619Y-136678D01*
X-5885837Y-160297D01*
X-5844224Y-188102D01*
X-5801521Y-196596D01*
X-5844224Y-205090D01*
X-5885837Y-232895D01*
X-5913643Y-274509D01*
X-5923407Y-323596D01*
X-5913643Y-372683D01*
X-5885837Y-414297D01*
X-5844224Y-442102D01*
X-5807906Y-449326D01*
X-5878519Y-449326D01*
X-5897657Y-457253D01*
X-5912305Y-471901D01*
X-5920232Y-491039D01*
X-5920232Y-540449D01*
X-5907214Y-553466D01*
X-5782310Y-553466D01*
X-5782310Y-551466D01*
X-5734050Y-551466D01*
X-5734050Y-553466D01*
X-5609145Y-553466D01*
X-5596128Y-540449D01*
X-5596128Y-491039D01*
X-5604055Y-471901D01*
X-5618703Y-457253D01*
X-5637841Y-449326D01*
X-5708454Y-449326D01*
X-5672136Y-442102D01*
X-5630523Y-414297D01*
X-5602717Y-372683D01*
X-5592953Y-323596D01*
X-5602717Y-274509D01*
X-5630523Y-232895D01*
X-5672136Y-205090D01*
X-5714838Y-196596D01*
X-5672136Y-188102D01*
X-5630523Y-160297D01*
X-5602717Y-118683D01*
X-5592953Y-69596D01*
X-5602717Y-20509D01*
X-5630523Y21105D01*
X-5672136Y48910D01*
X-5714838Y57404D01*
X-5672136Y65898D01*
X-5630523Y93703D01*
X-5618074Y112334D01*
X-5613908Y112334D01*
X-5586328Y117820D01*
X-5562947Y133443D01*
X-5516211Y180179D01*
X-5500588Y203560D01*
X-5495102Y231140D01*
X-5495102Y541274D01*
X-4539290Y541274D01*
X-4539290Y475234D01*
X-4518045Y416687D01*
X-4476012Y370727D01*
X-4429726Y349125D01*
X-4405630Y356617D01*
X-4405630Y541274D01*
X-4357370Y541274D01*
X-4357370Y356617D01*
X-4333274Y349125D01*
X-4286988Y370727D01*
X-4244955Y416687D01*
X-4223710Y475234D01*
X-4223710Y541274D01*
X-4357370Y541274D01*
X-4405630Y541274D01*
X-4539290Y541274D01*
X-5495102Y541274D01*
X-5495102Y655574D01*
X-4539290Y655574D01*
X-4539290Y589534D01*
X-4405630Y589534D01*
X-4405630Y774191D01*
X-4357370Y774191D01*
X-4357370Y589534D01*
X-4223710Y589534D01*
X-4223710Y635829D01*
X-4031290Y635829D01*
X-4031290Y494979D01*
X-4019279Y434595D01*
X-3985074Y383404D01*
X-3945570Y357008D01*
X-3945570Y-496200D01*
X-3985074Y-522596D01*
X-4019279Y-573787D01*
X-4031290Y-634171D01*
X-4031290Y-775021D01*
X-4019279Y-835405D01*
X-3985074Y-886595D01*
X-3933884Y-920800D01*
X-3873500Y-932811D01*
X-3813116Y-920800D01*
X-3761926Y-886595D01*
X-3727721Y-835405D01*
X-3715710Y-775021D01*
X-3715710Y-728726D01*
X-2888290Y-728726D01*
X-2888290Y-794766D01*
X-2867045Y-853313D01*
X-2825012Y-899273D01*
X-2778726Y-920875D01*
X-2754630Y-913383D01*
X-2754630Y-728726D01*
X-2706370Y-728726D01*
X-2706370Y-913383D01*
X-2682274Y-920875D01*
X-2635988Y-899273D01*
X-2593955Y-853313D01*
X-2572710Y-794766D01*
X-2572710Y-728726D01*
X-2706370Y-728726D01*
X-2754630Y-728726D01*
X-2888290Y-728726D01*
X-3715710Y-728726D01*
X-3715710Y-634171D01*
X-3719637Y-614426D01*
X-2888290Y-614426D01*
X-2888290Y-680466D01*
X-2754630Y-680466D01*
X-2754630Y-495809D01*
X-2706370Y-495809D01*
X-2706370Y-680466D01*
X-2572710Y-680466D01*
X-2572710Y-614426D01*
X-2593955Y-555879D01*
X-2635988Y-509919D01*
X-2682274Y-488317D01*
X-2706370Y-495809D01*
X-2754630Y-495809D01*
X-2778726Y-488317D01*
X-2825012Y-509919D01*
X-2867045Y-555879D01*
X-2888290Y-614426D01*
X-3719637Y-614426D01*
X-3727721Y-573787D01*
X-3761926Y-522596D01*
X-3801430Y-496200D01*
X-3801430Y357008D01*
X-3761926Y383404D01*
X-3727721Y434595D01*
X-3715710Y494979D01*
X-3715710Y541274D01*
X-2888290Y541274D01*
X-2888290Y475234D01*
X-2867045Y416687D01*
X-2825012Y370727D01*
X-2778726Y349125D01*
X-2754630Y356617D01*
X-2754630Y541274D01*
X-2706370Y541274D01*
X-2706370Y356617D01*
X-2682274Y349125D01*
X-2635988Y370727D01*
X-2593955Y416687D01*
X-2572710Y475234D01*
X-2572710Y541274D01*
X-2706370Y541274D01*
X-2754630Y541274D01*
X-2888290Y541274D01*
X-3715710Y541274D01*
X-3715710Y635829D01*
X-3719637Y655574D01*
X-2888290Y655574D01*
X-2888290Y589534D01*
X-2754630Y589534D01*
X-2754630Y774191D01*
X-2706370Y774191D01*
X-2706370Y589534D01*
X-2572710Y589534D01*
X-2572710Y635829D01*
X-2380290Y635829D01*
X-2380290Y494979D01*
X-2368279Y434595D01*
X-2334074Y383404D01*
X-2294570Y357008D01*
X-2294570Y-496200D01*
X-2334074Y-522596D01*
X-2368279Y-573787D01*
X-2380290Y-634171D01*
X-2380290Y-775021D01*
X-2368279Y-835405D01*
X-2334074Y-886595D01*
X-2282884Y-920800D01*
X-2222500Y-932811D01*
X-2162116Y-920800D01*
X-2110926Y-886595D01*
X-2076721Y-835405D01*
X-2064710Y-775021D01*
X-2064710Y-728726D01*
X-1237290Y-728726D01*
X-1237290Y-794766D01*
X-1216045Y-853313D01*
X-1174012Y-899273D01*
X-1127726Y-920875D01*
X-1103630Y-913383D01*
X-1103630Y-728726D01*
X-1055370Y-728726D01*
X-1055370Y-913383D01*
X-1031274Y-920875D01*
X-984988Y-899273D01*
X-942955Y-853313D01*
X-921710Y-794766D01*
X-921710Y-728726D01*
X-1055370Y-728726D01*
X-1103630Y-728726D01*
X-1237290Y-728726D01*
X-2064710Y-728726D01*
X-2064710Y-634171D01*
X-2068637Y-614426D01*
X-1237290Y-614426D01*
X-1237290Y-680466D01*
X-1103630Y-680466D01*
X-1103630Y-495809D01*
X-1055370Y-495809D01*
X-1055370Y-680466D01*
X-921710Y-680466D01*
X-921710Y-614426D01*
X-942955Y-555879D01*
X-984988Y-509919D01*
X-1031274Y-488317D01*
X-1055370Y-495809D01*
X-1103630Y-495809D01*
X-1127726Y-488317D01*
X-1174012Y-509919D01*
X-1216045Y-555879D01*
X-1237290Y-614426D01*
X-2068637Y-614426D01*
X-2076721Y-573787D01*
X-2110926Y-522596D01*
X-2150430Y-496200D01*
X-2150430Y357008D01*
X-2110926Y383404D01*
X-2076721Y434595D01*
X-2064710Y494979D01*
X-2064710Y541274D01*
X-1237290Y541274D01*
X-1237290Y475234D01*
X-1216045Y416687D01*
X-1174012Y370727D01*
X-1127726Y349125D01*
X-1103630Y356617D01*
X-1103630Y541274D01*
X-1055370Y541274D01*
X-1055370Y356617D01*
X-1031274Y349125D01*
X-984988Y370727D01*
X-942955Y416687D01*
X-921710Y475234D01*
X-921710Y541274D01*
X-1055370Y541274D01*
X-1103630Y541274D01*
X-1237290Y541274D01*
X-2064710Y541274D01*
X-2064710Y635829D01*
X-2068637Y655574D01*
X-1237290Y655574D01*
X-1237290Y589534D01*
X-1103630Y589534D01*
X-1103630Y774191D01*
X-1055370Y774191D01*
X-1055370Y589534D01*
X-921710Y589534D01*
X-921710Y635829D01*
X-729290Y635829D01*
X-729290Y494979D01*
X-717279Y434595D01*
X-683074Y383404D01*
X-643570Y357008D01*
X-643570Y-496200D01*
X-683074Y-522596D01*
X-717279Y-573787D01*
X-729290Y-634171D01*
X-729290Y-775021D01*
X-717279Y-835405D01*
X-683074Y-886595D01*
X-631884Y-920800D01*
X-571500Y-932811D01*
X-511116Y-920800D01*
X-459926Y-886595D01*
X-425721Y-835405D01*
X-413710Y-775021D01*
X-413710Y-728726D01*
X413710Y-728726D01*
X413710Y-794766D01*
X434955Y-853313D01*
X476988Y-899273D01*
X523274Y-920875D01*
X547370Y-913383D01*
X547370Y-728726D01*
X595630Y-728726D01*
X595630Y-913383D01*
X619726Y-920875D01*
X666012Y-899273D01*
X708045Y-853313D01*
X729290Y-794766D01*
X729290Y-728726D01*
X595630Y-728726D01*
X547370Y-728726D01*
X413710Y-728726D01*
X-413710Y-728726D01*
X-413710Y-634171D01*
X-417637Y-614426D01*
X413710Y-614426D01*
X413710Y-680466D01*
X547370Y-680466D01*
X547370Y-495809D01*
X595630Y-495809D01*
X595630Y-680466D01*
X729290Y-680466D01*
X729290Y-634226D01*
X921655Y-634226D01*
X921655Y-774966D01*
X933670Y-835371D01*
X967887Y-886579D01*
X1019095Y-920796D01*
X1079500Y-932811D01*
X1139905Y-920796D01*
X1191113Y-886579D01*
X1225330Y-835371D01*
X1237345Y-774966D01*
X1237345Y-728726D01*
X2064964Y-728726D01*
X2064964Y-794766D01*
X2086209Y-853313D01*
X2128242Y-899273D01*
X2174528Y-920875D01*
X2198624Y-913383D01*
X2198624Y-728726D01*
X2246884Y-728726D01*
X2246884Y-913383D01*
X2270980Y-920875D01*
X2317266Y-899273D01*
X2359299Y-853313D01*
X2380544Y-794766D01*
X2380544Y-728726D01*
X2246884Y-728726D01*
X2198624Y-728726D01*
X2064964Y-728726D01*
X1237345Y-728726D01*
X1237345Y-634226D01*
X1233407Y-614426D01*
X2064964Y-614426D01*
X2064964Y-680466D01*
X2198624Y-680466D01*
X2198624Y-495809D01*
X2246884Y-495809D01*
X2246884Y-680466D01*
X2380544Y-680466D01*
X2380544Y-614426D01*
X2359299Y-555879D01*
X2317266Y-509919D01*
X2270980Y-488317D01*
X2246884Y-495809D01*
X2198624Y-495809D01*
X2174528Y-488317D01*
X2128242Y-509919D01*
X2086209Y-555879D01*
X2064964Y-614426D01*
X1233407Y-614426D01*
X1225330Y-573821D01*
X1191113Y-522613D01*
X1151570Y-496191D01*
X1151570Y357008D01*
X1191074Y383404D01*
X1225279Y434595D01*
X1237290Y494979D01*
X1237290Y541274D01*
X2064964Y541274D01*
X2064964Y475234D01*
X2086209Y416687D01*
X2128242Y370727D01*
X2174528Y349125D01*
X2198624Y356617D01*
X2198624Y541274D01*
X2246884Y541274D01*
X2246884Y356617D01*
X2270980Y349125D01*
X2317266Y370727D01*
X2359299Y416687D01*
X2380544Y475234D01*
X2380544Y541274D01*
X2246884Y541274D01*
X2198624Y541274D01*
X2064964Y541274D01*
X1237290Y541274D01*
X1237290Y635829D01*
X1233363Y655574D01*
X2064964Y655574D01*
X2064964Y589534D01*
X2198624Y589534D01*
X2198624Y774191D01*
X2246884Y774191D01*
X2246884Y589534D01*
X2380544Y589534D01*
X2380544Y635829D01*
X2572964Y635829D01*
X2572964Y494979D01*
X2584975Y434595D01*
X2619180Y383404D01*
X2658684Y357008D01*
X2658684Y-496200D01*
X2619180Y-522596D01*
X2584975Y-573787D01*
X2572964Y-634171D01*
X2572964Y-775021D01*
X2584975Y-835405D01*
X2619180Y-886595D01*
X2670370Y-920800D01*
X2730754Y-932811D01*
X2791138Y-920800D01*
X2842328Y-886595D01*
X2876533Y-835405D01*
X2888544Y-775021D01*
X2888544Y-728726D01*
X3715710Y-728726D01*
X3715710Y-794766D01*
X3736955Y-853313D01*
X3778988Y-899273D01*
X3825274Y-920875D01*
X3849370Y-913383D01*
X3849370Y-728726D01*
X3897630Y-728726D01*
X3897630Y-913383D01*
X3921726Y-920875D01*
X3968012Y-899273D01*
X4010045Y-853313D01*
X4031290Y-794766D01*
X4031290Y-728726D01*
X3897630Y-728726D01*
X3849370Y-728726D01*
X3715710Y-728726D01*
X2888544Y-728726D01*
X2888544Y-634171D01*
X2884617Y-614426D01*
X3715710Y-614426D01*
X3715710Y-680466D01*
X3849370Y-680466D01*
X3849370Y-495809D01*
X3897630Y-495809D01*
X3897630Y-680466D01*
X4031290Y-680466D01*
X4031290Y-614426D01*
X4010045Y-555879D01*
X3968012Y-509919D01*
X3921726Y-488317D01*
X3897630Y-495809D01*
X3849370Y-495809D01*
X3825274Y-488317D01*
X3778988Y-509919D01*
X3736955Y-555879D01*
X3715710Y-614426D01*
X2884617Y-614426D01*
X2876533Y-573787D01*
X2842328Y-522596D01*
X2802824Y-496200D01*
X2802824Y357008D01*
X2842328Y383404D01*
X2876533Y434595D01*
X2888544Y494979D01*
X2888544Y541274D01*
X3715710Y541274D01*
X3715710Y475234D01*
X3736955Y416687D01*
X3778988Y370727D01*
X3825274Y349125D01*
X3849370Y356617D01*
X3849370Y541274D01*
X3897630Y541274D01*
X3897630Y356617D01*
X3921726Y349125D01*
X3968012Y370727D01*
X4010045Y416687D01*
X4031290Y475234D01*
X4031290Y541274D01*
X3897630Y541274D01*
X3849370Y541274D01*
X3715710Y541274D01*
X2888544Y541274D01*
X2888544Y635829D01*
X2884617Y655574D01*
X3715710Y655574D01*
X3715710Y589534D01*
X3849370Y589534D01*
X3849370Y774191D01*
X3897630Y774191D01*
X3897630Y589534D01*
X4031290Y589534D01*
X4031290Y635829D01*
X4223710Y635829D01*
X4223710Y494979D01*
X4235721Y434595D01*
X4269926Y383404D01*
X4309430Y357008D01*
X4309430Y-496200D01*
X4269926Y-522596D01*
X4235721Y-573787D01*
X4223710Y-634171D01*
X4223710Y-775021D01*
X4235721Y-835405D01*
X4269926Y-886595D01*
X4321116Y-920800D01*
X4381500Y-932811D01*
X4441884Y-920800D01*
X4493074Y-886595D01*
X4527279Y-835405D01*
X4539290Y-775021D01*
X4539290Y-728726D01*
X5366710Y-728726D01*
X5366710Y-794766D01*
X5387955Y-853313D01*
X5429988Y-899273D01*
X5476274Y-920875D01*
X5500370Y-913383D01*
X5500370Y-728726D01*
X5548630Y-728726D01*
X5548630Y-913383D01*
X5572726Y-920875D01*
X5619012Y-899273D01*
X5661045Y-853313D01*
X5682290Y-794766D01*
X5682290Y-728726D01*
X5548630Y-728726D01*
X5500370Y-728726D01*
X5366710Y-728726D01*
X4539290Y-728726D01*
X4539290Y-634171D01*
X4535363Y-614426D01*
X5366710Y-614426D01*
X5366710Y-680466D01*
X5500370Y-680466D01*
X5500370Y-495809D01*
X5548630Y-495809D01*
X5548630Y-680466D01*
X5682290Y-680466D01*
X5682290Y-614426D01*
X5661045Y-555879D01*
X5619012Y-509919D01*
X5572726Y-488317D01*
X5548630Y-495809D01*
X5500370Y-495809D01*
X5476274Y-488317D01*
X5429988Y-509919D01*
X5387955Y-555879D01*
X5366710Y-614426D01*
X4535363Y-614426D01*
X4527279Y-573787D01*
X4493074Y-522596D01*
X4453570Y-496200D01*
X4453570Y357008D01*
X4493074Y383404D01*
X4527279Y434595D01*
X4539290Y494979D01*
X4539290Y541274D01*
X5366710Y541274D01*
X5366710Y475234D01*
X5387955Y416687D01*
X5429988Y370727D01*
X5476274Y349125D01*
X5500370Y356617D01*
X5500370Y541274D01*
X5548630Y541274D01*
X5548630Y356617D01*
X5572726Y349125D01*
X5619012Y370727D01*
X5661045Y416687D01*
X5682290Y475234D01*
X5682290Y541274D01*
X5548630Y541274D01*
X5500370Y541274D01*
X5366710Y541274D01*
X4539290Y541274D01*
X4539290Y635829D01*
X4535363Y655574D01*
X5366710Y655574D01*
X5366710Y589534D01*
X5500370Y589534D01*
X5500370Y774191D01*
X5548630Y774191D01*
X5548630Y589534D01*
X5682290Y589534D01*
X5682290Y635829D01*
X5874710Y635829D01*
X5874710Y494979D01*
X5886721Y434595D01*
X5920926Y383404D01*
X5960430Y357008D01*
X5960430Y-496200D01*
X5920926Y-522596D01*
X5886721Y-573787D01*
X5874710Y-634171D01*
X5874710Y-775021D01*
X5886721Y-835405D01*
X5920926Y-886595D01*
X5972116Y-920800D01*
X6032500Y-932811D01*
X6092884Y-920800D01*
X6144074Y-886595D01*
X6178279Y-835405D01*
X6190290Y-775021D01*
X6190290Y-727202D01*
X7022790Y-727202D01*
X7022790Y-793242D01*
X7044035Y-851789D01*
X7086068Y-897749D01*
X7132354Y-919351D01*
X7156450Y-911859D01*
X7156450Y-727202D01*
X7204710Y-727202D01*
X7204710Y-911859D01*
X7228806Y-919351D01*
X7275092Y-897749D01*
X7317125Y-851789D01*
X7338370Y-793242D01*
X7338370Y-727202D01*
X7204710Y-727202D01*
X7156450Y-727202D01*
X7022790Y-727202D01*
X6190290Y-727202D01*
X6190290Y-634171D01*
X6186059Y-612902D01*
X7022790Y-612902D01*
X7022790Y-678942D01*
X7156450Y-678942D01*
X7156450Y-494285D01*
X7204710Y-494285D01*
X7204710Y-678942D01*
X7338370Y-678942D01*
X7338370Y-612902D01*
X7317125Y-554355D01*
X7275092Y-508395D01*
X7228806Y-486793D01*
X7204710Y-494285D01*
X7156450Y-494285D01*
X7132354Y-486793D01*
X7086068Y-508395D01*
X7044035Y-554355D01*
X7022790Y-612902D01*
X6186059Y-612902D01*
X6178279Y-573787D01*
X6144074Y-522596D01*
X6104570Y-496200D01*
X6104570Y357008D01*
X6144074Y383404D01*
X6178279Y434595D01*
X6190290Y494979D01*
X6190290Y542798D01*
X7022790Y542798D01*
X7022790Y476758D01*
X7044035Y418211D01*
X7086068Y372251D01*
X7132354Y350649D01*
X7156450Y358141D01*
X7156450Y542798D01*
X7204710Y542798D01*
X7204710Y358141D01*
X7228806Y350649D01*
X7275092Y372251D01*
X7317125Y418211D01*
X7338370Y476758D01*
X7338370Y542798D01*
X7204710Y542798D01*
X7156450Y542798D01*
X7022790Y542798D01*
X6190290Y542798D01*
X6190290Y635829D01*
X6186059Y657098D01*
X7022790Y657098D01*
X7022790Y591058D01*
X7156450Y591058D01*
X7156450Y775715D01*
X7204710Y775715D01*
X7204710Y591058D01*
X7338370Y591058D01*
X7338370Y637353D01*
X7530790Y637353D01*
X7530790Y496503D01*
X7542801Y436119D01*
X7577006Y384928D01*
X7616510Y358532D01*
X7616510Y-494676D01*
X7577006Y-521072D01*
X7542801Y-572263D01*
X7530790Y-632647D01*
X7530790Y-773497D01*
X7542801Y-833881D01*
X7577006Y-885071D01*
X7628196Y-919276D01*
X7688580Y-931287D01*
X7748964Y-919276D01*
X7800154Y-885071D01*
X7834359Y-833881D01*
X7846370Y-773497D01*
X7846370Y-632647D01*
X7834359Y-572263D01*
X7800154Y-521072D01*
X7760650Y-494676D01*
X7760650Y358532D01*
X7800154Y384928D01*
X7834359Y436119D01*
X7846370Y496503D01*
X7846370Y637353D01*
X7834359Y697737D01*
X7800154Y748927D01*
X7748964Y783132D01*
X7688580Y795143D01*
X7628196Y783132D01*
X7577006Y748927D01*
X7542801Y697737D01*
X7530790Y637353D01*
X7338370Y637353D01*
X7338370Y657098D01*
X7317125Y715645D01*
X7275092Y761605D01*
X7228806Y783207D01*
X7204710Y775715D01*
X7156450Y775715D01*
X7132354Y783207D01*
X7086068Y761605D01*
X7044035Y715645D01*
X7022790Y657098D01*
X6186059Y657098D01*
X6178279Y696213D01*
X6144074Y747403D01*
X6092884Y781608D01*
X6032500Y793619D01*
X5972116Y781608D01*
X5920926Y747403D01*
X5886721Y696213D01*
X5874710Y635829D01*
X5682290Y635829D01*
X5682290Y655574D01*
X5661045Y714121D01*
X5619012Y760081D01*
X5572726Y781683D01*
X5548630Y774191D01*
X5500370Y774191D01*
X5476274Y781683D01*
X5429988Y760081D01*
X5387955Y714121D01*
X5366710Y655574D01*
X4535363Y655574D01*
X4527279Y696213D01*
X4493074Y747403D01*
X4441884Y781608D01*
X4381500Y793619D01*
X4321116Y781608D01*
X4269926Y747403D01*
X4235721Y696213D01*
X4223710Y635829D01*
X4031290Y635829D01*
X4031290Y655574D01*
X4010045Y714121D01*
X3968012Y760081D01*
X3921726Y781683D01*
X3897630Y774191D01*
X3849370Y774191D01*
X3825274Y781683D01*
X3778988Y760081D01*
X3736955Y714121D01*
X3715710Y655574D01*
X2884617Y655574D01*
X2876533Y696213D01*
X2842328Y747403D01*
X2791138Y781608D01*
X2730754Y793619D01*
X2670370Y781608D01*
X2619180Y747403D01*
X2584975Y696213D01*
X2572964Y635829D01*
X2380544Y635829D01*
X2380544Y655574D01*
X2359299Y714121D01*
X2317266Y760081D01*
X2270980Y781683D01*
X2246884Y774191D01*
X2198624Y774191D01*
X2174528Y781683D01*
X2128242Y760081D01*
X2086209Y714121D01*
X2064964Y655574D01*
X1233363Y655574D01*
X1225279Y696213D01*
X1191074Y747403D01*
X1139884Y781608D01*
X1079500Y793619D01*
X1019116Y781608D01*
X967926Y747403D01*
X933721Y696213D01*
X921710Y635829D01*
X921710Y494979D01*
X933721Y434595D01*
X967926Y383404D01*
X1007430Y357008D01*
X1007430Y-496191D01*
X967887Y-522613D01*
X933670Y-573821D01*
X921655Y-634226D01*
X729290Y-634226D01*
X729290Y-614426D01*
X708045Y-555879D01*
X666012Y-509919D01*
X619726Y-488317D01*
X595630Y-495809D01*
X547370Y-495809D01*
X523274Y-488317D01*
X476988Y-509919D01*
X434955Y-555879D01*
X413710Y-614426D01*
X-417637Y-614426D01*
X-425721Y-573787D01*
X-459926Y-522596D01*
X-499430Y-496200D01*
X-499430Y357008D01*
X-459926Y383404D01*
X-425721Y434595D01*
X-413710Y494979D01*
X-413710Y541274D01*
X413710Y541274D01*
X413710Y475234D01*
X434955Y416687D01*
X476988Y370727D01*
X523274Y349125D01*
X547370Y356617D01*
X547370Y541274D01*
X595630Y541274D01*
X595630Y356617D01*
X619726Y349125D01*
X666012Y370727D01*
X708045Y416687D01*
X729290Y475234D01*
X729290Y541274D01*
X595630Y541274D01*
X547370Y541274D01*
X413710Y541274D01*
X-413710Y541274D01*
X-413710Y635829D01*
X-417637Y655574D01*
X413710Y655574D01*
X413710Y589534D01*
X547370Y589534D01*
X547370Y774191D01*
X595630Y774191D01*
X595630Y589534D01*
X729290Y589534D01*
X729290Y655574D01*
X708045Y714121D01*
X666012Y760081D01*
X619726Y781683D01*
X595630Y774191D01*
X547370Y774191D01*
X523274Y781683D01*
X476988Y760081D01*
X434955Y714121D01*
X413710Y655574D01*
X-417637Y655574D01*
X-425721Y696213D01*
X-459926Y747403D01*
X-511116Y781608D01*
X-571500Y793619D01*
X-631884Y781608D01*
X-683074Y747403D01*
X-717279Y696213D01*
X-729290Y635829D01*
X-921710Y635829D01*
X-921710Y655574D01*
X-942955Y714121D01*
X-984988Y760081D01*
X-1031274Y781683D01*
X-1055370Y774191D01*
X-1103630Y774191D01*
X-1127726Y781683D01*
X-1174012Y760081D01*
X-1216045Y714121D01*
X-1237290Y655574D01*
X-2068637Y655574D01*
X-2076721Y696213D01*
X-2110926Y747403D01*
X-2162116Y781608D01*
X-2222500Y793619D01*
X-2282884Y781608D01*
X-2334074Y747403D01*
X-2368279Y696213D01*
X-2380290Y635829D01*
X-2572710Y635829D01*
X-2572710Y655574D01*
X-2593955Y714121D01*
X-2635988Y760081D01*
X-2682274Y781683D01*
X-2706370Y774191D01*
X-2754630Y774191D01*
X-2778726Y781683D01*
X-2825012Y760081D01*
X-2867045Y714121D01*
X-2888290Y655574D01*
X-3719637Y655574D01*
X-3727721Y696213D01*
X-3761926Y747403D01*
X-3813116Y781608D01*
X-3873500Y793619D01*
X-3933884Y781608D01*
X-3985074Y747403D01*
X-4019279Y696213D01*
X-4031290Y635829D01*
X-4223710Y635829D01*
X-4223710Y655574D01*
X-4244955Y714121D01*
X-4286988Y760081D01*
X-4333274Y781683D01*
X-4357370Y774191D01*
X-4405630Y774191D01*
X-4429726Y781683D01*
X-4476012Y760081D01*
X-4518045Y714121D01*
X-4539290Y655574D01*
X-5495102Y655574D01*
X-5495102Y860552D01*
X-5500588Y888132D01*
X-5516211Y911513D01*
X-5828858Y1224160D01*
X-5828858Y1330154D01*
X-5828364Y1330359D01*
X-5792249Y1366410D01*
X-5773907Y1410583D01*
X-5755733Y1366600D01*
X-5719682Y1330485D01*
X-5672554Y1310916D01*
X-5621525Y1310872D01*
X-5574364Y1330359D01*
X-5538249Y1366410D01*
X-5518680Y1413538D01*
X-5518636Y1464567D01*
X-5525008Y1479989D01*
X-5418421Y1586577D01*
X-5402798Y1609958D01*
X-5397312Y1637538D01*
X-5397312Y2369639D01*
X-5373465Y2333949D01*
X-5328555Y2303941D01*
X-5275580Y2293403D01*
X-5222605Y2303941D01*
X-5177695Y2333949D01*
X-5148580Y2377523D01*
X-5119465Y2333949D01*
X-5074555Y2303941D01*
X-5021580Y2293403D01*
X-4968605Y2303941D01*
X-4923695Y2333949D01*
X-4893687Y2378859D01*
X-4893357Y2380519D01*
X-4865465Y2338775D01*
X-4820555Y2308767D01*
X-4767580Y2298229D01*
X-4714605Y2308767D01*
X-4669695Y2338775D01*
X-4641803Y2380519D01*
X-4641473Y2378859D01*
X-4611465Y2333949D01*
X-4566555Y2303941D01*
X-4513580Y2293403D01*
X-4460605Y2303941D01*
X-4415695Y2333949D01*
X-4386580Y2377523D01*
X-4357465Y2333949D01*
X-4312555Y2303941D01*
X-4259580Y2293403D01*
X-4206605Y2303941D01*
X-4161695Y2333949D01*
X-4145030Y2358890D01*
X-4145030Y2348484D01*
X-4141399Y2329188D01*
X-4129995Y2311466D01*
X-4112595Y2299577D01*
X-4091940Y2295394D01*
X-3919220Y2295394D01*
X-3899924Y2299025D01*
X-3882202Y2310429D01*
X-3870313Y2327829D01*
X-3866130Y2348484D01*
X-3866130Y2551684D01*
X-3869761Y2570980D01*
X-3881165Y2588702D01*
X-3898565Y2600591D01*
X-3919220Y2604774D01*
X-4091940Y2604774D01*
X-4111236Y2601143D01*
X-4128958Y2589739D01*
X-4140847Y2572339D01*
X-4145030Y2551684D01*
X-4145030Y2541278D01*
X-4161695Y2566219D01*
X-4206605Y2596227D01*
X-4259580Y2606765D01*
X-4312555Y2596227D01*
X-4357465Y2566219D01*
X-4386580Y2522645D01*
X-4415695Y2566219D01*
X-4460605Y2596227D01*
X-4513580Y2606765D01*
X-4566555Y2596227D01*
X-4611465Y2566219D01*
X-4639357Y2524475D01*
X-4639687Y2526136D01*
X-4669695Y2571045D01*
X-4695510Y2588294D01*
X-4695510Y2605024D01*
X-4700996Y2632604D01*
X-4716619Y2655985D01*
X-4820251Y2759617D01*
X-4843632Y2775240D01*
X-4871212Y2780726D01*
X-8095234Y2780726D01*
X-8122814Y2775240D01*
X-8146195Y2759617D01*
X-9220361Y1685451D01*
X-9235984Y1662070D01*
X-9241470Y1634490D01*
X-9241470Y-2106987D01*
X-9259252Y-2118869D01*
X-9286797Y-2160093D01*
X-9294400Y-2198314D01*
X-9302003Y-2160093D01*
X-9329548Y-2118869D01*
X-9370772Y-2091323D01*
X-9419400Y-2081651D01*
X-9468028Y-2091323D01*
X-9509252Y-2118869D01*
X-9536797Y-2160093D01*
X-9546470Y-2208721D01*
X-9841733Y-2208721D01*
X-10339898Y-1710556D01*
X-10339898Y-1581669D01*
X-9876509Y-1581669D01*
X-9842013Y-1665157D01*
X-9778193Y-1729088D01*
X-9694765Y-1763730D01*
X-9604431Y-1763809D01*
X-9520943Y-1729313D01*
X-9457012Y-1665493D01*
X-9422370Y-1582065D01*
X-9422291Y-1491731D01*
X-9456787Y-1408243D01*
X-9520607Y-1344312D01*
X-9604035Y-1309670D01*
X-9694369Y-1309591D01*
X-9777857Y-1344087D01*
X-9841788Y-1407907D01*
X-9876431Y-1491335D01*
X-9876509Y-1581669D01*
X-10339898Y-1581669D01*
X-10339898Y-565969D01*
X-10103609Y-565969D01*
X-10069113Y-649457D01*
X-10005293Y-713388D01*
X-9921865Y-748030D01*
X-9831531Y-748109D01*
X-9748043Y-713613D01*
X-9684112Y-649793D01*
X-9649470Y-566365D01*
X-9649391Y-476031D01*
X-9683887Y-392543D01*
X-9747707Y-328612D01*
X-9831135Y-293970D01*
X-9921469Y-293891D01*
X-10004957Y-328387D01*
X-10068888Y-392207D01*
X-10103531Y-475635D01*
X-10103609Y-565969D01*
X-10339898Y-565969D01*
X-10339898Y-216621D01*
X-10012996Y-216621D01*
X-9992321Y-246466D01*
X-9906789Y-275529D01*
X-9816647Y-269648D01*
X-9760680Y-246466D01*
X-9740004Y-216621D01*
X-9876500Y-80125D01*
X-10012996Y-216621D01*
X-10339898Y-216621D01*
X-10339898Y-15711D01*
X-10106029Y-15711D01*
X-10100148Y-105853D01*
X-10076966Y-161821D01*
X-10047121Y-182496D01*
X-9910625Y-46000D01*
X-9842375Y-46000D01*
X-9705879Y-182496D01*
X-9676034Y-161821D01*
X-9646971Y-76289D01*
X-9652852Y13853D01*
X-9676034Y69821D01*
X-9705879Y90496D01*
X-9842375Y-46000D01*
X-9910625Y-46000D01*
X-10047121Y90496D01*
X-10076966Y69821D01*
X-10106029Y-15711D01*
X-10339898Y-15711D01*
X-10339898Y124621D01*
X-10012996Y124621D01*
X-9876500Y-11875D01*
X-9740004Y124621D01*
X-9760680Y154466D01*
X-9846211Y183529D01*
X-9936353Y177648D01*
X-9992321Y154466D01*
X-10012996Y124621D01*
X-10339898Y124621D01*
X-10339898Y379031D01*
X-10103609Y379031D01*
X-10069113Y295543D01*
X-10005293Y231612D01*
X-9921865Y196969D01*
X-9831531Y196891D01*
X-9748043Y231387D01*
X-9684112Y295207D01*
X-9649470Y378635D01*
X-9649391Y468969D01*
X-9683887Y552457D01*
X-9747707Y616388D01*
X-9831135Y651031D01*
X-9921469Y651109D01*
X-10004957Y616613D01*
X-10068888Y552793D01*
X-10103531Y469365D01*
X-10103609Y379031D01*
X-10339898Y379031D01*
X-10339898Y2040756D01*
X-10112960Y2267694D01*
X-10111976Y2265315D01*
X-10066425Y2219684D01*
X-10006879Y2194958D01*
X-9942404Y2194902D01*
X-9882815Y2219524D01*
X-9868657Y2233657D01*
X-9063718Y2233657D01*
X-9051066Y2210564D01*
X-8989199Y2192410D01*
X-8925094Y2199314D01*
X-8897934Y2210564D01*
X-8885282Y2233657D01*
X-8974500Y2322875D01*
X-9063718Y2233657D01*
X-9868657Y2233657D01*
X-9837184Y2265075D01*
X-9812458Y2324621D01*
X-9812417Y2371699D01*
X-9139090Y2371699D01*
X-9132186Y2307594D01*
X-9120936Y2280434D01*
X-9097843Y2267782D01*
X-9008625Y2357000D01*
X-8940375Y2357000D01*
X-8851157Y2267782D01*
X-8828064Y2280434D01*
X-8809910Y2342301D01*
X-8816814Y2406406D01*
X-8828064Y2433566D01*
X-8851157Y2446218D01*
X-8940375Y2357000D01*
X-9008625Y2357000D01*
X-9097843Y2446218D01*
X-9120936Y2433566D01*
X-9139090Y2371699D01*
X-9812417Y2371699D01*
X-9812402Y2389096D01*
X-9837024Y2448685D01*
X-9868626Y2480343D01*
X-9063718Y2480343D01*
X-8974500Y2391125D01*
X-8885282Y2480343D01*
X-8897934Y2503436D01*
X-8959801Y2521590D01*
X-9023906Y2514686D01*
X-9051066Y2503436D01*
X-9063718Y2480343D01*
X-9868626Y2480343D01*
X-9882575Y2494316D01*
X-9942121Y2519042D01*
X-10006596Y2519098D01*
X-10066185Y2494476D01*
X-10111816Y2448925D01*
X-10120061Y2429070D01*
X-10125576Y2429070D01*
X-10125576Y2429070D01*
X-10153156Y2423584D01*
X-10176537Y2407961D01*
X-10462929Y2121569D01*
X-10478552Y2098188D01*
X-10484038Y2070608D01*
X-11316873Y2070608D01*
X-11284533Y2150631D01*
X-11246822Y2237612D01*
X-11206881Y2323898D01*
X-11164682Y2409661D01*
X-11120199Y2495082D01*
X-11073411Y2580315D01*
X-11024290Y2665538D01*
X-10972818Y2750907D01*
X-10918966Y2836597D01*
X-10862710Y2922773D01*
X-10804036Y3009586D01*
X-10742920Y3097206D01*
X-10680576Y3184073D01*
X-10623350Y3250740D01*
X-10564249Y3316493D01*
X-10504482Y3379934D01*
X-10444050Y3441071D01*
X-10382956Y3499912D01*
X-10321213Y3556455D01*
X-10258817Y3610711D01*
X-10195777Y3662683D01*
X-10132096Y3712378D01*
X-10067778Y3759801D01*
X-10002828Y3804955D01*
X-9937244Y3847852D01*
X-9871031Y3888496D01*
X-9804193Y3926890D01*
X-9736733Y3963041D01*
X-9668643Y3996959D01*
X-9599936Y4028644D01*
X-9530606Y4058104D01*
X-9460655Y4085344D01*
X-9390079Y4110369D01*
X-9318887Y4133181D01*
X-9247069Y4153788D01*
X-9174628Y4172191D01*
X-9101567Y4188393D01*
X-9027881Y4202398D01*
X-8953568Y4214209D01*
X-8878631Y4223825D01*
X-8803076Y4231250D01*
X-8726888Y4236484D01*
X-8650080Y4239529D01*
X-8572662Y4240385D01*
X-8494614Y4239052D01*
X-8494614Y4239052D01*
G37*
X-8494614Y4239052D02*
X-8415937Y4235532D01*
X-8336635Y4229825D01*
X-8256723Y4221930D01*
X-8176191Y4211848D01*
X-8095048Y4199578D01*
X-8013294Y4185120D01*
X-7930928Y4168473D01*
X-7847969Y4149641D01*
X-7764400Y4128618D01*
X-7680243Y4105410D01*
X-7595490Y4080013D01*
X-7510150Y4052429D01*
X-7424228Y4022658D01*
X-7337732Y3990703D01*
X-7250659Y3956562D01*
X-7163014Y3920234D01*
X-7074811Y3881726D01*
X-6986054Y3841037D01*
X-6896734Y3798163D01*
X-6806871Y3753113D01*
X-6716459Y3705881D01*
X-6625513Y3656475D01*
X-6534037Y3604896D01*
X-6442029Y3551141D01*
X-6349500Y3495216D01*
X-6256456Y3437125D01*
X-6162897Y3376864D01*
X-6068827Y3314436D01*
X-5974257Y3249847D01*
X-5878893Y3182888D01*
X-5878274Y3182615D01*
X-5877796Y3182137D01*
X-5812172Y3138308D01*
X-5811240Y3137922D01*
X-5810502Y3137234D01*
X-5745987Y3097319D01*
X-5744985Y3096944D01*
X-5744176Y3096244D01*
X-5680684Y3060131D01*
X-5679612Y3059775D01*
X-5678730Y3059070D01*
X-5616176Y3026647D01*
X-5615037Y3026318D01*
X-5614082Y3025616D01*
X-5552381Y2996772D01*
X-5551180Y2996477D01*
X-5550153Y2995788D01*
X-5489220Y2970413D01*
X-5487964Y2970160D01*
X-5486869Y2969494D01*
X-5426619Y2947475D01*
X-5425317Y2947273D01*
X-5424162Y2946640D01*
X-5364509Y2927864D01*
X-5363175Y2927719D01*
X-5361969Y2927129D01*
X-5302828Y2911486D01*
X-5301474Y2911402D01*
X-5300229Y2910863D01*
X-5241516Y2898242D01*
X-5240158Y2898221D01*
X-5238888Y2897741D01*
X-5180517Y2888029D01*
X-5179172Y2888071D01*
X-5177893Y2887655D01*
X-5119779Y2880741D01*
X-5118463Y2880844D01*
X-5117190Y2880492D01*
X-5059249Y2876265D01*
X-5057976Y2876423D01*
X-5056725Y2876137D01*
X-4998871Y2874484D01*
X-4997655Y2874690D01*
X-4996442Y2874466D01*
X-4938590Y2875277D01*
X-4937441Y2875522D01*
X-4936279Y2875356D01*
X-4878344Y2878518D01*
X-4877271Y2878793D01*
X-4876171Y2878678D01*
X-4818067Y2884080D01*
X-4817077Y2884375D01*
X-4816046Y2884304D01*
X-4757689Y2891835D01*
X-4756784Y2892140D01*
X-4755831Y2892106D01*
X-4697136Y2901654D01*
X-4696318Y2901960D01*
X-4695444Y2901955D01*
X-4636326Y2913408D01*
X-4635594Y2913707D01*
X-4634803Y2913725D01*
X-4575176Y2926971D01*
X-4574528Y2927257D01*
X-4573821Y2927290D01*
X-4513600Y2942218D01*
X-4513033Y2942485D01*
X-4512408Y2942528D01*
X-4451509Y2959027D01*
X-4451020Y2959270D01*
X-4450475Y2959318D01*
X-4388812Y2977276D01*
X-4388396Y2977492D01*
X-4387930Y2977541D01*
X-4325418Y2996847D01*
X-4325071Y2997034D01*
X-4324679Y2997080D01*
X-4261233Y3017622D01*
X-4260951Y3017779D01*
X-4260631Y3017821D01*
X-4196166Y3039486D01*
X-4195945Y3039613D01*
X-4195693Y3039648D01*
X-4130123Y3062327D01*
X-4129959Y3062423D01*
X-4129771Y3062450D01*
X-4063013Y3086029D01*
X-4062902Y3086095D01*
X-4062775Y3086114D01*
X-3994743Y3110483D01*
X-3994682Y3110520D01*
X-3994612Y3110530D01*
X-3925220Y3135577D01*
X-3924655Y3135918D01*
X-3924006Y3136031D01*
X-3841587Y3167913D01*
X-3759810Y3199201D01*
X-3678504Y3229925D01*
X-3605340Y3257189D01*
X-2199167Y3257189D01*
X-2168104Y3182010D01*
X-2110636Y3124442D01*
X-2035512Y3093248D01*
X-1954169Y3093177D01*
X-1878990Y3124240D01*
X-1821422Y3181708D01*
X-1790228Y3256832D01*
X-1790157Y3338175D01*
X-1821220Y3413354D01*
X-1878688Y3470922D01*
X-1953812Y3502116D01*
X-2035155Y3502187D01*
X-2110334Y3471124D01*
X-2167902Y3413656D01*
X-2199096Y3338532D01*
X-2199167Y3257189D01*
X-3605340Y3257189D01*
X-3597728Y3260025D01*
X-3517446Y3289479D01*
X-3437676Y3318245D01*
X-3358399Y3346292D01*
X-3279609Y3373587D01*
X-3201286Y3400101D01*
X-3123468Y3425786D01*
X-3046102Y3450623D01*
X-2969213Y3474569D01*
X-2892791Y3497591D01*
X-2816812Y3519661D01*
X-2741293Y3540739D01*
X-2666232Y3560792D01*
X-2591604Y3579790D01*
X-2517414Y3597698D01*
X-2443658Y3614483D01*
X-2370328Y3630112D01*
X-2297423Y3644551D01*
X-2224941Y3657767D01*
X-2152854Y3669731D01*
X-2081191Y3680405D01*
X-2009921Y3689761D01*
X-1939044Y3697766D01*
X-1868561Y3704386D01*
X-1798450Y3709591D01*
X-1728729Y3713348D01*
X-1659364Y3715625D01*
X-1591092Y3716383D01*
X-1564320Y3715399D01*
X-1536276Y3714236D01*
X-1508243Y3712932D01*
X-1480138Y3711472D01*
X-1452087Y3709853D01*
X-1424012Y3708059D01*
X-1395960Y3706083D01*
X-1367948Y3703916D01*
X-1339962Y3701546D01*
X-1312039Y3698966D01*
X-1284176Y3696164D01*
X-1256376Y3693132D01*
X-1228671Y3689860D01*
X-1201044Y3686337D01*
X-1173532Y3682557D01*
X-1146119Y3678506D01*
X-1118843Y3674179D01*
X-1091701Y3669565D01*
X-1064696Y3664653D01*
X-1037847Y3659436D01*
X-1011160Y3653903D01*
X-984657Y3648048D01*
X-958343Y3641861D01*
X-932223Y3635332D01*
X-906308Y3628452D01*
X-880605Y3621211D01*
X-855140Y3613605D01*
X-829902Y3605619D01*
X-804918Y3597251D01*
X-780187Y3588487D01*
X-756428Y3579586D01*
X-730044Y3568324D01*
X-705877Y3555995D01*
X-683373Y3542466D01*
X-662563Y3527856D01*
X-643476Y3512282D01*
X-626144Y3495866D01*
X-610589Y3478725D01*
X-596835Y3460978D01*
X-584898Y3442743D01*
X-574791Y3424129D01*
X-566522Y3405247D01*
X-560092Y3386193D01*
X-555501Y3367055D01*
X-552748Y3347904D01*
X-551836Y3328793D01*
X-552778Y3309763D01*
X-555604Y3290834D01*
X-560365Y3272020D01*
X-567135Y3253332D01*
X-576013Y3234786D01*
X-587121Y3216412D01*
X-600590Y3198264D01*
X-616565Y3180415D01*
X-635185Y3162964D01*
X-656581Y3146031D01*
X-680874Y3129749D01*
X-708174Y3114265D01*
X-738571Y3099730D01*
X-772151Y3086297D01*
X-808981Y3074121D01*
X-847748Y3063722D01*
X-912611Y3053333D01*
X-912770Y3053274D01*
X-912940Y3053279D01*
X-979953Y3042144D01*
X-980127Y3042078D01*
X-980314Y3042083D01*
X-1046557Y3030639D01*
X-1046747Y3030566D01*
X-1046949Y3030569D01*
X-1112414Y3018788D01*
X-1112619Y3018708D01*
X-1112840Y3018710D01*
X-1177519Y3006564D01*
X-1177740Y3006475D01*
X-1177978Y3006476D01*
X-1241862Y2993935D01*
X-1242100Y2993838D01*
X-1242357Y2993836D01*
X-1305438Y2980874D01*
X-1305693Y2980766D01*
X-1305969Y2980762D01*
X-1368240Y2967349D01*
X-1368511Y2967232D01*
X-1368807Y2967224D01*
X-1430259Y2953332D01*
X-1430548Y2953203D01*
X-1430863Y2953192D01*
X-1491490Y2938792D01*
X-1491796Y2938652D01*
X-1492132Y2938636D01*
X-1551923Y2923701D01*
X-1552247Y2923548D01*
X-1552605Y2923526D01*
X-1611553Y2908027D01*
X-1611896Y2907860D01*
X-1612275Y2907832D01*
X-1670372Y2891740D01*
X-1670732Y2891559D01*
X-1671134Y2891523D01*
X-1728372Y2874811D01*
X-1728751Y2874613D01*
X-1729175Y2874570D01*
X-1785546Y2857208D01*
X-1785943Y2856993D01*
X-1786390Y2856940D01*
X-1841886Y2838901D01*
X-1842300Y2838668D01*
X-1842771Y2838605D01*
X-1897384Y2819859D01*
X-1897816Y2819607D01*
X-1898310Y2819532D01*
X-1952031Y2800051D01*
X-1952480Y2799779D01*
X-1952999Y2799690D01*
X-2005820Y2779447D01*
X-2006286Y2779153D01*
X-2006828Y2779050D01*
X-2058741Y2758015D01*
X-2059224Y2757698D01*
X-2059789Y2757578D01*
X-2110786Y2735724D01*
X-2111284Y2735383D01*
X-2111872Y2735245D01*
X-2161945Y2712543D01*
X-2162458Y2712176D01*
X-2163068Y2712019D01*
X-2212209Y2688440D01*
X-2212735Y2688046D01*
X-2213366Y2687869D01*
X-2261567Y2663386D01*
X-2262104Y2662964D01*
X-2262757Y2662764D01*
X-2310009Y2637347D01*
X-2310556Y2636896D01*
X-2311227Y2636672D01*
X-2357524Y2610294D01*
X-2358078Y2609814D01*
X-2358767Y2609565D01*
X-2404099Y2582196D01*
X-2404659Y2581686D01*
X-2405364Y2581410D01*
X-2449723Y2553023D01*
X-2450286Y2552482D01*
X-2451005Y2552178D01*
X-2494384Y2522744D01*
X-2494947Y2522173D01*
X-2495678Y2521840D01*
X-2538068Y2491331D01*
X-2538629Y2490729D01*
X-2539369Y2490366D01*
X-2580761Y2458754D01*
X-2582838Y2456396D01*
X-2585492Y2454714D01*
X-2626707Y2415442D01*
X-2627492Y2414326D01*
X-2628608Y2413542D01*
X-2666609Y2373755D01*
X-2667370Y2372556D01*
X-2668491Y2371685D01*
X-2703327Y2331433D01*
X-2704055Y2330151D01*
X-2705172Y2329188D01*
X-2736894Y2288523D01*
X-2737580Y2287159D01*
X-2738682Y2286102D01*
X-2767341Y2245073D01*
X-2767975Y2243630D01*
X-2769051Y2242478D01*
X-2794698Y2201138D01*
X-2795268Y2199619D01*
X-2796307Y2198374D01*
X-2818993Y2156772D01*
X-2819489Y2155185D01*
X-2820479Y2153849D01*
X-2840253Y2112036D01*
X-2840666Y2110389D01*
X-2841596Y2108968D01*
X-2858509Y2066995D01*
X-2858830Y2065299D01*
X-2859687Y2063800D01*
X-2873791Y2021718D01*
X-2874012Y2019984D01*
X-2874787Y2018418D01*
X-2886131Y1976277D01*
X-2886248Y1974520D01*
X-2886932Y1972896D01*
X-2895567Y1930748D01*
X-2895577Y1928981D01*
X-2896162Y1927314D01*
X-2902139Y1885208D01*
X-2902041Y1883447D01*
X-2902522Y1881750D01*
X-2905892Y1839738D01*
X-2905688Y1837996D01*
X-2906064Y1836282D01*
X-2906876Y1794414D01*
X-2906570Y1792704D01*
X-2906840Y1790989D01*
X-2905146Y1749315D01*
X-2904743Y1747650D01*
X-2904909Y1745945D01*
X-2900759Y1704517D01*
X-2900267Y1702906D01*
X-2900332Y1701223D01*
X-2893776Y1660091D01*
X-2893204Y1658543D01*
X-2893173Y1656893D01*
X-2884263Y1616108D01*
X-2883617Y1614629D01*
X-2883497Y1613020D01*
X-2872283Y1572633D01*
X-2871574Y1571227D01*
X-2871372Y1569666D01*
X-2857905Y1529727D01*
X-2857141Y1528397D01*
X-2856863Y1526889D01*
X-2841193Y1487449D01*
X-2840382Y1486197D01*
X-2840038Y1484746D01*
X-2822215Y1445855D01*
X-2821365Y1444680D01*
X-2820960Y1443288D01*
X-2801035Y1404998D01*
X-2800154Y1403898D01*
X-2799694Y1402566D01*
X-2777719Y1364927D01*
X-2776811Y1363902D01*
X-2776304Y1362630D01*
X-2752328Y1325693D01*
X-2751399Y1324739D01*
X-2750850Y1323526D01*
X-2724924Y1287341D01*
X-2723979Y1286456D01*
X-2723392Y1285301D01*
X-2695567Y1249919D01*
X-2694609Y1249099D01*
X-2693989Y1248001D01*
X-2664316Y1213473D01*
X-2663348Y1212715D01*
X-2662699Y1211671D01*
X-2631227Y1178047D01*
X-2630252Y1177348D01*
X-2629577Y1176356D01*
X-2596357Y1143688D01*
X-2595018Y1142809D01*
X-2594045Y1141536D01*
X-2573283Y1123265D01*
X-2572556Y1122844D01*
X-2572026Y1122191D01*
X-2550627Y1104432D01*
X-2549885Y1104030D01*
X-2549334Y1103390D01*
X-2527290Y1086155D01*
X-2526534Y1085774D01*
X-2525963Y1085148D01*
X-2503266Y1068446D01*
X-2502499Y1068087D01*
X-2501909Y1067478D01*
X-2478552Y1051320D01*
X-2477775Y1050983D01*
X-2477168Y1050392D01*
X-2453141Y1034787D01*
X-2452357Y1034474D01*
X-2451736Y1033903D01*
X-2427031Y1018862D01*
X-2426242Y1018573D01*
X-2425607Y1018022D01*
X-2400217Y1003555D01*
X-2399425Y1003291D01*
X-2398778Y1002762D01*
X-2372695Y988879D01*
X-2371901Y988640D01*
X-2371245Y988134D01*
X-2344461Y974845D01*
X-2343668Y974630D01*
X-2343004Y974148D01*
X-2315510Y961463D01*
X-2314721Y961273D01*
X-2314051Y960815D01*
X-2285840Y948745D01*
X-2285055Y948579D01*
X-2284381Y948145D01*
X-2255445Y936700D01*
X-2254667Y936558D01*
X-2253991Y936148D01*
X-2224321Y925338D01*
X-2223552Y925219D01*
X-2222875Y924833D01*
X-2192464Y914669D01*
X-2191704Y914572D01*
X-2191030Y914210D01*
X-2159868Y904701D01*
X-2159121Y904626D01*
X-2158449Y904288D01*
X-2126530Y895444D01*
X-2125794Y895390D01*
X-2125128Y895075D01*
X-2092442Y886907D01*
X-2091721Y886872D01*
X-2091061Y886580D01*
X-2057602Y879098D01*
X-2056895Y879081D01*
X-2056242Y878811D01*
X-2022001Y872025D01*
X-2021310Y872026D01*
X-2020665Y871777D01*
X-1985634Y865697D01*
X-1984959Y865714D01*
X-1984324Y865486D01*
X-1948495Y860122D01*
X-1947836Y860154D01*
X-1947212Y859945D01*
X-1910576Y855308D01*
X-1909935Y855354D01*
X-1909322Y855164D01*
X-1871872Y851264D01*
X-1871249Y851322D01*
X-1870647Y851150D01*
X-1832375Y847997D01*
X-1831769Y848066D01*
X-1831180Y847911D01*
X-1792078Y845515D01*
X-1791489Y845595D01*
X-1790912Y845455D01*
X-1750972Y843827D01*
X-1750402Y843916D01*
X-1749838Y843792D01*
X-1709051Y842941D01*
X-1708498Y843039D01*
X-1707947Y842929D01*
X-1666306Y842865D01*
X-1665770Y842971D01*
X-1665233Y842874D01*
X-1622729Y843608D01*
X-1622211Y843721D01*
X-1621687Y843636D01*
X-1579397Y845140D01*
X8081878Y821333D01*
X8081898Y821337D01*
X8081918Y821333D01*
X8113130Y821278D01*
X8113193Y821290D01*
X8113256Y821278D01*
X8144562Y821291D01*
X8144655Y821309D01*
X8144748Y821291D01*
X8176118Y821407D01*
X8176243Y821432D01*
X8176368Y821409D01*
X8207770Y821662D01*
X8207926Y821694D01*
X8208082Y821665D01*
X8239487Y822091D01*
X8239675Y822131D01*
X8239863Y822097D01*
X8271241Y822729D01*
X8271460Y822777D01*
X8271682Y822740D01*
X8303002Y823612D01*
X8303253Y823670D01*
X8303508Y823629D01*
X8334740Y824777D01*
X8335026Y824844D01*
X8335315Y824801D01*
X8366429Y826259D01*
X8366748Y826338D01*
X8367074Y826293D01*
X8398039Y828095D01*
X8398393Y828187D01*
X8398756Y828141D01*
X8429542Y830322D01*
X8429932Y830429D01*
X8430334Y830384D01*
X8460911Y832979D01*
X8461338Y833102D01*
X8461780Y833059D01*
X8492118Y836102D01*
X8492583Y836244D01*
X8493067Y836205D01*
X8523135Y839730D01*
X8523639Y839893D01*
X8524169Y839861D01*
X8553936Y843902D01*
X8554481Y844090D01*
X8555056Y844066D01*
X8584493Y848659D01*
X8585079Y848873D01*
X8585702Y848861D01*
X8614779Y854040D01*
X8615406Y854285D01*
X8616080Y854287D01*
X8644766Y860086D01*
X8645436Y860366D01*
X8646162Y860387D01*
X8674426Y866841D01*
X8675139Y867160D01*
X8675919Y867203D01*
X8703732Y874346D01*
X8704487Y874709D01*
X8705321Y874779D01*
X8732653Y882646D01*
X8733449Y883058D01*
X8734340Y883160D01*
X8761159Y891786D01*
X8761995Y892251D01*
X8762941Y892392D01*
X8789218Y901810D01*
X8790092Y902335D01*
X8791094Y902520D01*
X8816798Y912766D01*
X8817705Y913355D01*
X8818761Y913591D01*
X8843862Y924699D01*
X8844798Y925357D01*
X8845904Y925651D01*
X8870373Y937655D01*
X8871332Y938387D01*
X8872484Y938746D01*
X8896289Y951680D01*
X8897263Y952491D01*
X8898456Y952920D01*
X8921567Y966820D01*
X8922548Y967712D01*
X8923773Y968216D01*
X8946160Y983116D01*
X8947137Y984090D01*
X8948386Y984675D01*
X8970018Y1000609D01*
X8970981Y1001664D01*
X8972242Y1002333D01*
X8993090Y1019336D01*
X8994654Y1021229D01*
X8996717Y1022560D01*
X9021361Y1046419D01*
X9045294Y1068035D01*
X9069194Y1088117D01*
X9093042Y1106706D01*
X9116828Y1123842D01*
X9140539Y1139570D01*
X9164169Y1153932D01*
X9187705Y1166969D01*
X9211144Y1178725D01*
X9234477Y1189240D01*
X9257698Y1198555D01*
X9280807Y1206710D01*
X9303801Y1213743D01*
X9326679Y1219692D01*
X9349435Y1224592D01*
X9372069Y1228476D01*
X9394580Y1231379D01*
X9416967Y1233330D01*
X9439220Y1234361D01*
X9461341Y1234499D01*
X9483324Y1233774D01*
X9505156Y1232213D01*
X9526836Y1229842D01*
X9548354Y1226690D01*
X9569694Y1222782D01*
X9590852Y1218145D01*
X9611808Y1212808D01*
X9632558Y1206795D01*
X9653077Y1200138D01*
X9673364Y1192861D01*
X9692071Y1185515D01*
X9790460Y1137666D01*
X9790460Y1137666D01*
X9891398Y1088480D01*
X9992696Y1039001D01*
X9992697Y1039001D01*
X10094516Y989135D01*
X10196676Y938951D01*
X10299144Y888446D01*
X10401996Y837565D01*
X10505113Y786348D01*
X10608464Y734792D01*
X10712099Y682854D01*
X10815840Y630604D01*
X10919770Y577982D01*
X11023817Y525005D01*
X11127961Y471664D01*
X11232150Y417967D01*
X11336351Y363913D01*
X11440543Y309493D01*
X11544690Y254706D01*
X11648744Y199558D01*
X11752659Y144054D01*
X11856460Y88161D01*
X11960064Y31903D01*
X12063438Y-24720D01*
X12166567Y-81722D01*
X12269425Y-139108D01*
X12371956Y-196868D01*
X12474143Y-255011D01*
X12575911Y-313518D01*
X12677282Y-372421D01*
X12778194Y-431705D01*
X12877604Y-490772D01*
X12905552Y-509204D01*
X12933039Y-528036D01*
X12959338Y-546788D01*
X12984469Y-565479D01*
X13008443Y-584115D01*
X13031277Y-602710D01*
X13052983Y-621272D01*
X13073571Y-639806D01*
X13093066Y-658331D01*
X13111484Y-676856D01*
X13128842Y-695389D01*
X13145161Y-713945D01*
X13160464Y-732540D01*
X13174767Y-751182D01*
X13188098Y-769892D01*
X13200481Y-788691D01*
X13211938Y-807596D01*
X13222492Y-826632D01*
X13232171Y-845826D01*
X13240994Y-865206D01*
X13248982Y-884795D01*
X13256155Y-904632D01*
X13262528Y-924741D01*
X13268120Y-945159D01*
X13272939Y-965911D01*
X13276999Y-987036D01*
X13280307Y-1008556D01*
X13282871Y-1030501D01*
X13284696Y-1052898D01*
X13285789Y-1075771D01*
X13286149Y-1098990D01*
X13285555Y-1128360D01*
X13283811Y-1156581D01*
X13280951Y-1183770D01*
X13277007Y-1209929D01*
X13272014Y-1235059D01*
X13266004Y-1259169D01*
X13259009Y-1282267D01*
X13251060Y-1304367D01*
X13242184Y-1325481D01*
X13232407Y-1345626D01*
X13221750Y-1364821D01*
X13210232Y-1383084D01*
X13197869Y-1400430D01*
X13184670Y-1416882D01*
X13170643Y-1432452D01*
X13155795Y-1447155D01*
X13140124Y-1461002D01*
X13123632Y-1474001D01*
X13106323Y-1486152D01*
X13088195Y-1497456D01*
X13069246Y-1507911D01*
X13049485Y-1517507D01*
X13028909Y-1526238D01*
X13007533Y-1534089D01*
X12985360Y-1541050D01*
X12962402Y-1547106D01*
X12938674Y-1552242D01*
X12914192Y-1556443D01*
X12888969Y-1559696D01*
X12863028Y-1561984D01*
X12837814Y-1563225D01*
X12810140Y-1562168D01*
X12782804Y-1559372D01*
X12756448Y-1554955D01*
X12731035Y-1549000D01*
X12706513Y-1541581D01*
X12682845Y-1532768D01*
X12659997Y-1522625D01*
X12637944Y-1511215D01*
X12616663Y-1498598D01*
X12596141Y-1484835D01*
X12576377Y-1469994D01*
X12557364Y-1454138D01*
X12539103Y-1437339D01*
X12521604Y-1419674D01*
X12504863Y-1401213D01*
X12488896Y-1382046D01*
X12473704Y-1362250D01*
X12459296Y-1341912D01*
X12445678Y-1321124D01*
X12432851Y-1299969D01*
X12420826Y-1278547D01*
X12409604Y-1256948D01*
X12399184Y-1235264D01*
X12389572Y-1213595D01*
X12380766Y-1192034D01*
X12372768Y-1170684D01*
X12365575Y-1149641D01*
X12359185Y-1129011D01*
X12353597Y-1108899D01*
X12348803Y-1089405D01*
X12344608Y-1069752D01*
X12342895Y-1065774D01*
X12342185Y-1061503D01*
X12338532Y-1055643D01*
X12335801Y-1049300D01*
X12332696Y-1046281D01*
X12330405Y-1042606D01*
X12324788Y-1038590D01*
X12319837Y-1033775D01*
X12315813Y-1032174D01*
X12312291Y-1029656D01*
X12305564Y-1028095D01*
X12299148Y-1025542D01*
X12294818Y-1025602D01*
X12290599Y-1024623D01*
X12283787Y-1025756D01*
X12276882Y-1025852D01*
X12272905Y-1027565D01*
X12268633Y-1028275D01*
X12268335Y-1028387D01*
X12267388Y-1028742D01*
X12265676Y-1029376D01*
X12263296Y-1030249D01*
X12260185Y-1031378D01*
X12256365Y-1032749D01*
X12251897Y-1034334D01*
X12246772Y-1036131D01*
X12240984Y-1038136D01*
X12234547Y-1040338D01*
X12227531Y-1042708D01*
X12219885Y-1045256D01*
X12211646Y-1047963D01*
X12202824Y-1050822D01*
X12193439Y-1053817D01*
X12183491Y-1056944D01*
X12173024Y-1060182D01*
X12162034Y-1063526D01*
X12150529Y-1066967D01*
X12138525Y-1070494D01*
X12126045Y-1074093D01*
X12113079Y-1077760D01*
X12099688Y-1081472D01*
X12085848Y-1085228D01*
X12071573Y-1089017D01*
X12056897Y-1092824D01*
X12041803Y-1096646D01*
X12026351Y-1100460D01*
X12010520Y-1104264D01*
X11994329Y-1108047D01*
X11977617Y-1111838D01*
X11977306Y-1111977D01*
X11976965Y-1111990D01*
X11908879Y-1128275D01*
X11839768Y-1144774D01*
X11839768Y-1144774D01*
X11769753Y-1161457D01*
X11698885Y-1178306D01*
X11698885Y-1178306D01*
X11627267Y-1195297D01*
X11627266Y-1195297D01*
X11554882Y-1212428D01*
X11554882Y-1212428D01*
X11481905Y-1229656D01*
X11408383Y-1246966D01*
X11408383Y-1246966D01*
X11334328Y-1264354D01*
X11259871Y-1281784D01*
X11259871Y-1281784D01*
X11185087Y-1299235D01*
X11185087Y-1299235D01*
X11110042Y-1316691D01*
X11034843Y-1334121D01*
X10959487Y-1351523D01*
X10884052Y-1368876D01*
X10808664Y-1386148D01*
X10808664Y-1386148D01*
X10733449Y-1403305D01*
X10658358Y-1420356D01*
X10583456Y-1437281D01*
X10508935Y-1454034D01*
X10434869Y-1470595D01*
X10361161Y-1486980D01*
X10361161Y-1486980D01*
X10288085Y-1503125D01*
X10215606Y-1519033D01*
X10143773Y-1534690D01*
X10143772Y-1534690D01*
X10072836Y-1550036D01*
X10072836Y-1550036D01*
X10002594Y-1565111D01*
X9933318Y-1579851D01*
X9865028Y-1594248D01*
X9797857Y-1608268D01*
X9761103Y-1615858D01*
X9752160Y-1606746D01*
X9736579Y-1589784D01*
X9720417Y-1571231D01*
X9703727Y-1551245D01*
X9686556Y-1529987D01*
X9668946Y-1507627D01*
X9650915Y-1484306D01*
X9632494Y-1460189D01*
X9613672Y-1435389D01*
X9613672Y-1435388D01*
X9594536Y-1410147D01*
X9594494Y-1410110D01*
X9594469Y-1410058D01*
X9575038Y-1384533D01*
X9574943Y-1384449D01*
X9574887Y-1384335D01*
X9555185Y-1358686D01*
X9555038Y-1358557D01*
X9554950Y-1358381D01*
X9534983Y-1332747D01*
X9534782Y-1332573D01*
X9534660Y-1332335D01*
X9514434Y-1306853D01*
X9514175Y-1306633D01*
X9514016Y-1306334D01*
X9493537Y-1281141D01*
X9493217Y-1280876D01*
X9493017Y-1280511D01*
X9472290Y-1255746D01*
X9471902Y-1255434D01*
X9471655Y-1255002D01*
X9450686Y-1230803D01*
X9450223Y-1230444D01*
X9449923Y-1229940D01*
X9428718Y-1206445D01*
X9428169Y-1206037D01*
X9427805Y-1205458D01*
X9406370Y-1182805D01*
X9405723Y-1182347D01*
X9405284Y-1181688D01*
X9383624Y-1160015D01*
X9382866Y-1159508D01*
X9382335Y-1158765D01*
X9360458Y-1138209D01*
X9359568Y-1137654D01*
X9358928Y-1136824D01*
X9336838Y-1117524D01*
X9335797Y-1116925D01*
X9335025Y-1116004D01*
X9312728Y-1098097D01*
X9311509Y-1097462D01*
X9310577Y-1096453D01*
X9288080Y-1080077D01*
X9286656Y-1079419D01*
X9285532Y-1078326D01*
X9262839Y-1063619D01*
X9261182Y-1062960D01*
X9259828Y-1061797D01*
X9236947Y-1048897D01*
X9235026Y-1048267D01*
X9233404Y-1047060D01*
X9210339Y-1036105D01*
X9208134Y-1035549D01*
X9206207Y-1034339D01*
X9182965Y-1025466D01*
X9180465Y-1025042D01*
X9178208Y-1023886D01*
X9154794Y-1017234D01*
X9152014Y-1017010D01*
X9149421Y-1015985D01*
X9125841Y-1011692D01*
X9124267Y-1011717D01*
X9122772Y-1011219D01*
X9085592Y-1006521D01*
X9085404Y-1006535D01*
X9085224Y-1006476D01*
X9048228Y-1002046D01*
X9048042Y-1002060D01*
X9047865Y-1002003D01*
X9011040Y-997832D01*
X9010858Y-997848D01*
X9010683Y-997793D01*
X8974019Y-993874D01*
X8973840Y-993890D01*
X8973668Y-993837D01*
X8937152Y-990162D01*
X8936977Y-990179D01*
X8936808Y-990129D01*
X8900431Y-986690D01*
X8900259Y-986708D01*
X8900094Y-986659D01*
X8863843Y-983449D01*
X8863675Y-983468D01*
X8863513Y-983421D01*
X8827377Y-980432D01*
X8827214Y-980451D01*
X8827056Y-980407D01*
X8791024Y-977631D01*
X8790865Y-977651D01*
X8790711Y-977608D01*
X8754771Y-975039D01*
X8754617Y-975058D01*
X8754467Y-975018D01*
X8718608Y-972646D01*
X8718459Y-972666D01*
X8718314Y-972628D01*
X8682524Y-970447D01*
X8682380Y-970466D01*
X8682239Y-970430D01*
X8646508Y-968432D01*
X8646369Y-968451D01*
X8646234Y-968417D01*
X8610549Y-966594D01*
X8610416Y-966614D01*
X8610285Y-966581D01*
X8574636Y-964926D01*
X8574509Y-964945D01*
X8574383Y-964914D01*
X8538758Y-963418D01*
X8538636Y-963437D01*
X8538516Y-963409D01*
X8502904Y-962065D01*
X8502788Y-962084D01*
X8502673Y-962057D01*
X8467062Y-960857D01*
X8466952Y-960875D01*
X8466843Y-960850D01*
X8431222Y-959788D01*
X8431118Y-959805D01*
X8431015Y-959782D01*
X8395373Y-958848D01*
X8395275Y-958865D01*
X8395177Y-958844D01*
X8359503Y-958031D01*
X8359411Y-958047D01*
X8359319Y-958027D01*
X8323601Y-957329D01*
X8323515Y-957344D01*
X8323430Y-957326D01*
X8287655Y-956734D01*
X8287576Y-956748D01*
X8287497Y-956731D01*
X8251656Y-956237D01*
X8251583Y-956251D01*
X8251510Y-956236D01*
X8215591Y-955832D01*
X8215524Y-955845D01*
X8215457Y-955831D01*
X8179449Y-955511D01*
X8179388Y-955522D01*
X8179328Y-955510D01*
X8143218Y-955265D01*
X8143164Y-955276D01*
X8143110Y-955265D01*
X8106888Y-955088D01*
X8106840Y-955097D01*
X8106793Y-955087D01*
X8070447Y-954970D01*
X8070406Y-954978D01*
X8070364Y-954970D01*
X8033883Y-954906D01*
X8033848Y-954912D01*
X8033813Y-954905D01*
X7997186Y-954886D01*
X7997170Y-954889D01*
X7997155Y-954886D01*
X-1852073Y-954886D01*
X-1852279Y-954927D01*
X-1852485Y-954887D01*
X-1956333Y-955637D01*
X-1956766Y-955726D01*
X-1957201Y-955650D01*
X-2056566Y-957880D01*
X-2057028Y-957983D01*
X-2057496Y-957908D01*
X-2152482Y-961591D01*
X-2152976Y-961709D01*
X-2153478Y-961638D01*
X-2244187Y-966744D01*
X-2244715Y-966881D01*
X-2245256Y-966815D01*
X-2331792Y-973316D01*
X-2332355Y-973473D01*
X-2332937Y-973414D01*
X-2415404Y-981283D01*
X-2416005Y-981463D01*
X-2416631Y-981413D01*
X-2495132Y-990621D01*
X-2495774Y-990828D01*
X-2496447Y-990790D01*
X-2571086Y-1001308D01*
X-2571770Y-1001547D01*
X-2572494Y-1001525D01*
X-2643373Y-1013324D01*
X-2644101Y-1013600D01*
X-2644880Y-1013596D01*
X-2712103Y-1026649D01*
X-2712877Y-1026966D01*
X-2713713Y-1026986D01*
X-2777384Y-1041265D01*
X-2778204Y-1041628D01*
X-2779100Y-1041678D01*
X-2839322Y-1057153D01*
X-2840188Y-1057570D01*
X-2841146Y-1057655D01*
X-2898023Y-1074299D01*
X-2898935Y-1074775D01*
X-2899956Y-1074902D01*
X-2953590Y-1092687D01*
X-2954546Y-1093229D01*
X-2955630Y-1093406D01*
X-3006126Y-1112302D01*
X-3007121Y-1112919D01*
X-3008267Y-1113153D01*
X-3055727Y-1133133D01*
X-3056756Y-1133829D01*
X-3057961Y-1134130D01*
X-3102489Y-1155165D01*
X-3103543Y-1155946D01*
X-3104801Y-1156322D01*
X-3146501Y-1178384D01*
X-3147571Y-1179255D01*
X-3148873Y-1179712D01*
X-3187848Y-1202772D01*
X-3188922Y-1203735D01*
X-3190257Y-1204280D01*
X-3226610Y-1228311D01*
X-3227675Y-1229364D01*
X-3229030Y-1230001D01*
X-3262864Y-1254973D01*
X-3263903Y-1256114D01*
X-3265263Y-1256844D01*
X-3296682Y-1282729D01*
X-3297680Y-1283950D01*
X-3299026Y-1284770D01*
X-3328134Y-1311540D01*
X-3329076Y-1312829D01*
X-3330391Y-1313733D01*
X-3357291Y-1341360D01*
X-3358162Y-1342703D01*
X-3359429Y-1343681D01*
X-3384224Y-1372136D01*
X-3385013Y-1373514D01*
X-3386215Y-1374552D01*
X-3409009Y-1403807D01*
X-3409710Y-1405202D01*
X-3410834Y-1406284D01*
X-3431730Y-1436311D01*
X-3432337Y-1437702D01*
X-3433374Y-1438810D01*
X-3452475Y-1469579D01*
X-3452989Y-1470947D01*
X-3453931Y-1472062D01*
X-3471341Y-1503547D01*
X-3471764Y-1504872D01*
X-3472610Y-1505977D01*
X-3488432Y-1538148D01*
X-3488771Y-1539416D01*
X-3489520Y-1540493D01*
X-3503859Y-1573322D01*
X-3504552Y-1576491D01*
X-3506095Y-1579345D01*
X-3515386Y-1609474D01*
X-3515464Y-1610227D01*
X-3515806Y-1610902D01*
X-3524191Y-1640839D01*
X-3524252Y-1641639D01*
X-3524596Y-1642365D01*
X-3532044Y-1672106D01*
X-3532086Y-1672956D01*
X-3532427Y-1673735D01*
X-3538911Y-1703276D01*
X-3538928Y-1704175D01*
X-3539263Y-1705011D01*
X-3544755Y-1734347D01*
X-3544744Y-1735297D01*
X-3545069Y-1736190D01*
X-3549539Y-1765318D01*
X-3549495Y-1766318D01*
X-3549804Y-1767270D01*
X-3553225Y-1796185D01*
X-3553142Y-1797234D01*
X-3553431Y-1798246D01*
X-3555774Y-1826944D01*
X-3555648Y-1828040D01*
X-3555910Y-1829112D01*
X-3557147Y-1857589D01*
X-3556971Y-1858729D01*
X-3557200Y-1859859D01*
X-3557302Y-1888112D01*
X-3557072Y-1889290D01*
X-3557262Y-1890477D01*
X-3556201Y-1918500D01*
X-3555912Y-1919713D01*
X-3556055Y-1920951D01*
X-3553803Y-1948742D01*
X-3553451Y-1949981D01*
X-3553542Y-1951267D01*
X-3550070Y-1978820D01*
X-3549651Y-1980078D01*
X-3549684Y-1981404D01*
X-3544964Y-2008716D01*
X-3544476Y-2009983D01*
X-3544447Y-2011341D01*
X-3538451Y-2038408D01*
X-3537893Y-2039675D01*
X-3537797Y-2041056D01*
X-3530496Y-2067873D01*
X-3529870Y-2069129D01*
X-3529705Y-2070523D01*
X-3521070Y-2097086D01*
X-3520379Y-2098321D01*
X-3520144Y-2099716D01*
X-3510147Y-2126022D01*
X-3509394Y-2127225D01*
X-3509090Y-2128611D01*
X-3497704Y-2154654D01*
X-3496895Y-2155816D01*
X-3496524Y-2157182D01*
X-3483720Y-2182959D01*
X-3482862Y-2184071D01*
X-3482429Y-2185406D01*
X-3468178Y-2210914D01*
X-3467279Y-2211968D01*
X-3466790Y-2213264D01*
X-3451063Y-2238497D01*
X-3450132Y-2239489D01*
X-3449593Y-2240737D01*
X-3432362Y-2265692D01*
X-3431409Y-2266617D01*
X-3430826Y-2267811D01*
X-3412064Y-2292484D01*
X-3411096Y-2293340D01*
X-3410479Y-2294475D01*
X-3390156Y-2318861D01*
X-3389182Y-2319648D01*
X-3388537Y-2320721D01*
X-3366626Y-2344816D01*
X-3365654Y-2345534D01*
X-3364989Y-2346542D01*
X-3341460Y-2370343D01*
X-3340498Y-2370994D01*
X-3339820Y-2371938D01*
X-3314645Y-2395440D01*
X-3313698Y-2396027D01*
X-3313013Y-2396906D01*
X-3286166Y-2420105D01*
X-3285238Y-2420631D01*
X-3284553Y-2421447D01*
X-3256003Y-2444339D01*
X-3255100Y-2444809D01*
X-3254418Y-2445565D01*
X-3224137Y-2468146D01*
X-3221641Y-2469335D01*
X-3219601Y-2471201D01*
X-3174982Y-2498244D01*
X-3174004Y-2498600D01*
X-3173212Y-2499274D01*
X-3128966Y-2523966D01*
X-3128015Y-2524274D01*
X-3127232Y-2524895D01*
X-3083417Y-2547403D01*
X-3082503Y-2547664D01*
X-3081739Y-2548231D01*
X-3038414Y-2568721D01*
X-3037546Y-2568939D01*
X-3036811Y-2569449D01*
X-2994035Y-2588089D01*
X-2993223Y-2588266D01*
X-2992527Y-2588720D01*
X-2950358Y-2605675D01*
X-2949611Y-2605815D01*
X-2948964Y-2606214D01*
X-2907462Y-2621651D01*
X-2906788Y-2621759D01*
X-2906199Y-2622104D01*
X-2865422Y-2636188D01*
X-2864830Y-2636269D01*
X-2864308Y-2636560D01*
X-2824315Y-2649459D01*
X-2823814Y-2649517D01*
X-2823369Y-2649755D01*
X-2784219Y-2661636D01*
X-2783816Y-2661675D01*
X-2783457Y-2661861D01*
X-2745208Y-2672888D01*
X-2744914Y-2672913D01*
X-2744650Y-2673046D01*
X-2707362Y-2683388D01*
X-2707186Y-2683401D01*
X-2707028Y-2683479D01*
X-2670759Y-2693301D01*
X-2670712Y-2693304D01*
X-2670669Y-2693325D01*
X-2635571Y-2702769D01*
X-2601849Y-2711960D01*
X-2569620Y-2721044D01*
X-2538994Y-2730160D01*
X-2510055Y-2739446D01*
X-2482890Y-2749027D01*
X-2457588Y-2759008D01*
X-2434225Y-2769483D01*
X-2412850Y-2780528D01*
X-2393478Y-2792213D01*
X-2376083Y-2804607D01*
X-2360572Y-2817818D01*
X-2346806Y-2832006D01*
X-2334624Y-2847415D01*
X-2323884Y-2864380D01*
X-2314510Y-2883287D01*
X-2306515Y-2904542D01*
X-2300975Y-2924899D01*
X-2300352Y-2937521D01*
X-2300897Y-2953429D01*
X-2302734Y-2968871D01*
X-2305818Y-2983941D01*
X-2310126Y-2998723D01*
X-2315648Y-3013276D01*
X-2322384Y-3027648D01*
X-2330334Y-3041859D01*
X-2339491Y-3055912D01*
X-2349843Y-3069796D01*
X-2361364Y-3083491D01*
X-2374023Y-3096971D01*
X-2387778Y-3110209D01*
X-2402577Y-3123175D01*
X-2418365Y-3135841D01*
X-2435084Y-3148183D01*
X-2452668Y-3160176D01*
X-2471051Y-3171801D01*
X-2490168Y-3183042D01*
X-2509946Y-3193880D01*
X-2530316Y-3204302D01*
X-2551210Y-3214298D01*
X-2572558Y-3223858D01*
X-2594286Y-3232971D01*
X-2616326Y-3241632D01*
X-2638608Y-3249833D01*
X-2661057Y-3257568D01*
X-2683609Y-3264835D01*
X-2706187Y-3271627D01*
X-2728727Y-3277943D01*
X-2748635Y-3283123D01*
X-2801240Y-3290807D01*
X-2855924Y-3297771D01*
X-2910103Y-3303657D01*
X-2963803Y-3308486D01*
X-3017012Y-3312274D01*
X-3069748Y-3315040D01*
X-3122016Y-3316803D01*
X-3173828Y-3317582D01*
X-3225179Y-3317394D01*
X-3276093Y-3316258D01*
X-3326561Y-3314192D01*
X-3376606Y-3311214D01*
X-3426232Y-3307341D01*
X-3475436Y-3302592D01*
X-3524233Y-3296984D01*
X-3572632Y-3290536D01*
X-3620642Y-3283263D01*
X-3668257Y-3275186D01*
X-3715502Y-3266319D01*
X-3762373Y-3256682D01*
X-3808879Y-3246292D01*
X-3855027Y-3235165D01*
X-3900833Y-3223318D01*
X-3946288Y-3210771D01*
X-3991411Y-3197538D01*
X-4036201Y-3183640D01*
X-4080665Y-3169092D01*
X-4124818Y-3153909D01*
X-4168662Y-3138111D01*
X-4212192Y-3121718D01*
X-4255464Y-3104730D01*
X-4311692Y-3081829D01*
X-4312065Y-3081757D01*
X-4312384Y-3081552D01*
X-4369153Y-3059291D01*
X-4369568Y-3059217D01*
X-4369925Y-3058994D01*
X-4426911Y-3037596D01*
X-4427368Y-3037521D01*
X-4427765Y-3037283D01*
X-4484981Y-3016833D01*
X-4485481Y-3016759D01*
X-4485919Y-3016507D01*
X-4543381Y-2997090D01*
X-4543924Y-2997019D01*
X-4544404Y-2996754D01*
X-4602125Y-2978456D01*
X-4602713Y-2978390D01*
X-4603236Y-2978116D01*
X-4661230Y-2961021D01*
X-4661861Y-2960964D01*
X-4662428Y-2960682D01*
X-4720711Y-2944875D01*
X-4721385Y-2944829D01*
X-4721997Y-2944542D01*
X-4780582Y-2930110D01*
X-4781299Y-2930077D01*
X-4781957Y-2929789D01*
X-4840857Y-2916815D01*
X-4841617Y-2916800D01*
X-4842320Y-2916513D01*
X-4901551Y-2905084D01*
X-4902351Y-2905088D01*
X-4903101Y-2904807D01*
X-4962676Y-2895007D01*
X-4963515Y-2895035D01*
X-4964309Y-2894762D01*
X-5024243Y-2886677D01*
X-5025119Y-2886732D01*
X-5025956Y-2886473D01*
X-5086263Y-2880187D01*
X-5087172Y-2880271D01*
X-5088052Y-2880029D01*
X-5148746Y-2875629D01*
X-5149685Y-2875746D01*
X-5150604Y-2875525D01*
X-5211699Y-2873094D01*
X-5212664Y-2873247D01*
X-5213620Y-2873050D01*
X-5275130Y-2872676D01*
X-5276115Y-2872866D01*
X-5277104Y-2872698D01*
X-5339044Y-2874464D01*
X-5340044Y-2874693D01*
X-5341062Y-2874557D01*
X-5403445Y-2878549D01*
X-5404455Y-2878818D01*
X-5405496Y-2878717D01*
X-5468337Y-2885020D01*
X-5469352Y-2885330D01*
X-5470410Y-2885266D01*
X-5533724Y-2893965D01*
X-5534736Y-2894315D01*
X-5535806Y-2894291D01*
X-5599606Y-2905471D01*
X-5600610Y-2905860D01*
X-5601687Y-2905875D01*
X-5665987Y-2919622D01*
X-5666977Y-2920049D01*
X-5668054Y-2920104D01*
X-5732869Y-2936503D01*
X-5733839Y-2936965D01*
X-5734910Y-2937060D01*
X-5800253Y-2956195D01*
X-5801199Y-2956689D01*
X-5802258Y-2956822D01*
X-5868145Y-2978780D01*
X-5869062Y-2979303D01*
X-5870104Y-2979473D01*
X-5936548Y-3004337D01*
X-5937432Y-3004885D01*
X-5938451Y-3005089D01*
X-6005467Y-3032946D01*
X-6006315Y-3033515D01*
X-6007308Y-3033750D01*
X-6074910Y-3064685D01*
X-6075719Y-3065270D01*
X-6076683Y-3065534D01*
X-6144884Y-3099632D01*
X-6145654Y-3100229D01*
X-6146584Y-3100518D01*
X-6215399Y-3137864D01*
X-6216614Y-3138874D01*
X-6218094Y-3139423D01*
X-6534985Y-3334488D01*
X-6838196Y-3505627D01*
X-7128804Y-3654395D01*
X-7407026Y-3781825D01*
X-7673082Y-3888951D01*
X-7927194Y-3976814D01*
X-8169588Y-4046455D01*
X-8400504Y-4098925D01*
X-8620182Y-4135269D01*
X-8828875Y-4156538D01*
X-9026849Y-4163777D01*
X-9214375Y-4158028D01*
X-9391737Y-4140322D01*
X-9559226Y-4111680D01*
X-9717129Y-4073110D01*
X-9865736Y-4025609D01*
X-10005329Y-3970160D01*
X-10136179Y-3907742D01*
X-10258548Y-3839325D01*
X-10372684Y-3765881D01*
X-10478825Y-3688382D01*
X-10577200Y-3607806D01*
X-10668031Y-3525132D01*
X-10751538Y-3441344D01*
X-10827934Y-3357436D01*
X-10876876Y-3298962D01*
X-10647368Y-3298962D01*
X-10616110Y-3356488D01*
X-10565218Y-3397674D01*
X-10536946Y-3409384D01*
X-10511267Y-3402037D01*
X-10511267Y-3273283D01*
X-10463007Y-3273283D01*
X-10463007Y-3402037D01*
X-10437329Y-3409384D01*
X-10410639Y-3394882D01*
X-10071908Y-3394882D01*
X-10046907Y-3455390D01*
X-10000653Y-3501725D01*
X-9940188Y-3526832D01*
X-9874718Y-3526889D01*
X-9814210Y-3501887D01*
X-9767876Y-3455634D01*
X-9742768Y-3395169D01*
X-9742711Y-3329699D01*
X-9767713Y-3269191D01*
X-9813967Y-3222856D01*
X-9874431Y-3197749D01*
X-9939901Y-3197692D01*
X-10000409Y-3222693D01*
X-10046744Y-3268947D01*
X-10071851Y-3329412D01*
X-10071908Y-3394882D01*
X-10410639Y-3394882D01*
X-10379802Y-3378126D01*
X-10338617Y-3327234D01*
X-10326907Y-3298962D01*
X-10334253Y-3273283D01*
X-10463007Y-3273283D01*
X-10511267Y-3273283D01*
X-10640022Y-3273283D01*
X-10647368Y-3298962D01*
X-10876876Y-3298962D01*
X-10897431Y-3274404D01*
X-10955524Y-3199344D01*
X-10647368Y-3199344D01*
X-10640022Y-3225023D01*
X-10511267Y-3225023D01*
X-10511267Y-3096269D01*
X-10463007Y-3096269D01*
X-10463007Y-3225023D01*
X-10334253Y-3225023D01*
X-10326907Y-3199344D01*
X-10358164Y-3141818D01*
X-10409057Y-3100633D01*
X-10437329Y-3088922D01*
X-10463007Y-3096269D01*
X-10511267Y-3096269D01*
X-10536946Y-3088922D01*
X-10594473Y-3120180D01*
X-10635658Y-3171073D01*
X-10647368Y-3199344D01*
X-10955524Y-3199344D01*
X-10960247Y-3193242D01*
X-11016598Y-3114948D01*
X-11066700Y-3040525D01*
X-11110777Y-2970963D01*
X-11148613Y-2907992D01*
X-11183533Y-2842673D01*
X-11216901Y-2774653D01*
X-11248575Y-2704281D01*
X-11278590Y-2631574D01*
X-11306980Y-2556555D01*
X-11333784Y-2479235D01*
X-11359037Y-2399640D01*
X-11364680Y-2380184D01*
X-10443139Y-2380184D01*
X-10418138Y-2440692D01*
X-10371884Y-2487027D01*
X-10319086Y-2508950D01*
X-10340193Y-2530021D01*
X-10365301Y-2590485D01*
X-10365358Y-2655955D01*
X-10340356Y-2716464D01*
X-10294102Y-2762798D01*
X-10233638Y-2787905D01*
X-10168168Y-2787962D01*
X-10107660Y-2762961D01*
X-10061325Y-2716707D01*
X-10036218Y-2656243D01*
X-10036161Y-2590773D01*
X-10061162Y-2530264D01*
X-10107416Y-2483930D01*
X-10160214Y-2462006D01*
X-10139107Y-2440935D01*
X-10114000Y-2380471D01*
X-10113942Y-2315001D01*
X-10138944Y-2254493D01*
X-10185198Y-2208158D01*
X-10245662Y-2183051D01*
X-10311132Y-2182994D01*
X-10371641Y-2207995D01*
X-10417975Y-2254249D01*
X-10443082Y-2314714D01*
X-10443139Y-2380184D01*
X-11364680Y-2380184D01*
X-11382778Y-2317782D01*
X-11405043Y-2233696D01*
X-11425873Y-2147388D01*
X-11445305Y-2058888D01*
X-11463378Y-1968224D01*
X-11480134Y-1875406D01*
X-11495612Y-1780463D01*
X-11509854Y-1683422D01*
X-11522900Y-1584306D01*
X-11534793Y-1483123D01*
X-11545574Y-1379922D01*
X-11555286Y-1274700D01*
X-11563972Y-1167494D01*
X-11571674Y-1058319D01*
X-11578435Y-947215D01*
X-11584299Y-834173D01*
X-11589310Y-719228D01*
X-11593509Y-602435D01*
X-11596942Y-483779D01*
X-11599653Y-363265D01*
X-11599940Y-345969D01*
X-11373609Y-345969D01*
X-11339113Y-429457D01*
X-11275293Y-493388D01*
X-11191865Y-528031D01*
X-11101531Y-528109D01*
X-11018043Y-493613D01*
X-10954112Y-429793D01*
X-10919470Y-346365D01*
X-10919391Y-256031D01*
X-10953887Y-172543D01*
X-11017707Y-108612D01*
X-11101135Y-73970D01*
X-11191469Y-73891D01*
X-11274957Y-108387D01*
X-11338888Y-172207D01*
X-11373530Y-255635D01*
X-11373609Y-345969D01*
X-11599940Y-345969D01*
X-11601684Y-240978D01*
X-11603081Y-116868D01*
X-11603886Y8972D01*
X-11604145Y136700D01*
X-11604177Y136856D01*
X-11604147Y137012D01*
X-11604349Y164031D01*
X-11373609Y164031D01*
X-11339113Y80543D01*
X-11275293Y16612D01*
X-11191865Y-18031D01*
X-11101531Y-18109D01*
X-11018043Y16387D01*
X-10954112Y80207D01*
X-10919470Y163635D01*
X-10919391Y253969D01*
X-10953887Y337457D01*
X-11017707Y401388D01*
X-11101135Y436030D01*
X-11191469Y436109D01*
X-11274957Y401613D01*
X-11338888Y337793D01*
X-11373530Y254365D01*
X-11373609Y164031D01*
X-11604349Y164031D01*
X-11605145Y270136D01*
X-11604250Y398950D01*
X-11601447Y524017D01*
X-11596723Y645493D01*
X-11590061Y763533D01*
X-11581446Y878324D01*
X-11570864Y990014D01*
X-11561155Y1074059D01*
X-11318529Y1074059D01*
X-11287466Y998880D01*
X-11229998Y941312D01*
X-11154874Y910118D01*
X-11073531Y910047D01*
X-10998352Y941110D01*
X-10940784Y998578D01*
X-10909590Y1073702D01*
X-10909519Y1155045D01*
X-10940582Y1230224D01*
X-10998050Y1287792D01*
X-11073174Y1318986D01*
X-11154517Y1319057D01*
X-11229696Y1287994D01*
X-11287264Y1230526D01*
X-11318458Y1155402D01*
X-11318529Y1074059D01*
X-11561155Y1074059D01*
X-11558300Y1098778D01*
X-11543737Y1204781D01*
X-11527162Y1308189D01*
X-11508558Y1409179D01*
X-11487908Y1507919D01*
X-11465195Y1604584D01*
X-11440403Y1699337D01*
X-11413510Y1792365D01*
X-11384499Y1883832D01*
X-11353346Y1973918D01*
X-11320031Y2062794D01*
X-11316873Y2070608D01*
X-10484038Y2070608D01*
X-10484038Y-1740408D01*
X-10478552Y-1767988D01*
X-10462929Y-1791369D01*
X-9554935Y-2699363D01*
X-9558841Y-2703262D01*
X-9583948Y-2763727D01*
X-9584005Y-2829196D01*
X-9559003Y-2889705D01*
X-9512749Y-2936039D01*
X-9452285Y-2961146D01*
X-9386815Y-2961204D01*
X-9326307Y-2936202D01*
X-9279972Y-2889948D01*
X-9254865Y-2829484D01*
X-9254808Y-2764014D01*
X-9279809Y-2703506D01*
X-9326063Y-2657171D01*
X-9386528Y-2632064D01*
X-9418418Y-2632036D01*
X-9841733Y-2208721D01*
X-9546470Y-2208721D01*
X-9546470Y-2264679D01*
X-9536797Y-2313307D01*
X-9509252Y-2354531D01*
X-9468028Y-2382077D01*
X-9419400Y-2391749D01*
X-9370772Y-2382077D01*
X-9329548Y-2354531D01*
X-9302003Y-2313307D01*
X-9294400Y-2275086D01*
X-9286797Y-2313307D01*
X-9259252Y-2354531D01*
X-9218028Y-2382077D01*
X-9169400Y-2391749D01*
X-9120772Y-2382077D01*
X-9079548Y-2354531D01*
X-9052003Y-2313307D01*
X-9044400Y-2275086D01*
X-9036797Y-2313307D01*
X-9009252Y-2354531D01*
X-8968028Y-2382077D01*
X-8919400Y-2391749D01*
X-8870772Y-2382077D01*
X-8829548Y-2354531D01*
X-8802003Y-2313307D01*
X-8793338Y-2269744D01*
X-7706110Y-2269744D01*
X-7706110Y-2472944D01*
X-7702479Y-2492240D01*
X-7691075Y-2509962D01*
X-7673675Y-2521851D01*
X-7653020Y-2526034D01*
X-7480300Y-2526034D01*
X-7461004Y-2522403D01*
X-7443282Y-2510999D01*
X-7431393Y-2493599D01*
X-7427210Y-2472944D01*
X-7427210Y-2462538D01*
X-7410545Y-2487479D01*
X-7365635Y-2517487D01*
X-7312660Y-2528025D01*
X-7259685Y-2517487D01*
X-7214775Y-2487479D01*
X-7185660Y-2443905D01*
X-7156545Y-2487479D01*
X-7111635Y-2517487D01*
X-7058660Y-2528025D01*
X-7005685Y-2517487D01*
X-6960775Y-2487479D01*
X-6931660Y-2443905D01*
X-6902545Y-2487479D01*
X-6857635Y-2517487D01*
X-6804660Y-2528025D01*
X-6751685Y-2517487D01*
X-6706775Y-2487479D01*
X-6677660Y-2443905D01*
X-6648545Y-2487479D01*
X-6603635Y-2517487D01*
X-6550660Y-2528025D01*
X-6497685Y-2517487D01*
X-6452775Y-2487479D01*
X-6422767Y-2442570D01*
X-6421858Y-2437998D01*
X-6409384Y-2466088D01*
X-6370379Y-2503174D01*
X-6341817Y-2517442D01*
X-6320790Y-2509653D01*
X-6320790Y-2395474D01*
X-6272530Y-2395474D01*
X-6272530Y-2509653D01*
X-6251503Y-2517442D01*
X-6222941Y-2503174D01*
X-6183936Y-2466088D01*
X-6169660Y-2433941D01*
X-6155384Y-2466088D01*
X-6116379Y-2503174D01*
X-6087817Y-2517442D01*
X-6066790Y-2509653D01*
X-6066790Y-2395474D01*
X-6167296Y-2395474D01*
X-6169660Y-2400573D01*
X-6172024Y-2395474D01*
X-6272530Y-2395474D01*
X-6320790Y-2395474D01*
X-6322790Y-2395474D01*
X-6322790Y-2347214D01*
X-6320790Y-2347214D01*
X-6320790Y-2233035D01*
X-6272530Y-2233035D01*
X-6272530Y-2347214D01*
X-6172024Y-2347214D01*
X-6169660Y-2342115D01*
X-6167296Y-2347214D01*
X-6066790Y-2347214D01*
X-6066790Y-2233035D01*
X-6018530Y-2233035D01*
X-6018530Y-2347214D01*
X-6016530Y-2347214D01*
X-6016530Y-2395474D01*
X-6018530Y-2395474D01*
X-6018530Y-2509653D01*
X-5997503Y-2517442D01*
X-5968941Y-2503174D01*
X-5929936Y-2466088D01*
X-5917462Y-2437998D01*
X-5916553Y-2442570D01*
X-5886545Y-2487479D01*
X-5841635Y-2517487D01*
X-5788660Y-2528025D01*
X-5735685Y-2517487D01*
X-5690775Y-2487479D01*
X-5660767Y-2442570D01*
X-5650230Y-2389595D01*
X-5650230Y-2353093D01*
X-5660767Y-2300119D01*
X-5690775Y-2255209D01*
X-5735685Y-2225201D01*
X-5788660Y-2214663D01*
X-5841635Y-2225201D01*
X-5886545Y-2255209D01*
X-5916553Y-2300119D01*
X-5917462Y-2304690D01*
X-5929936Y-2276600D01*
X-5968941Y-2239514D01*
X-5997503Y-2225246D01*
X-6018530Y-2233035D01*
X-6066790Y-2233035D01*
X-6087817Y-2225246D01*
X-6116379Y-2239514D01*
X-6155384Y-2276600D01*
X-6169660Y-2308747D01*
X-6183936Y-2276600D01*
X-6222941Y-2239514D01*
X-6251503Y-2225246D01*
X-6272530Y-2233035D01*
X-6320790Y-2233035D01*
X-6341817Y-2225246D01*
X-6370379Y-2239514D01*
X-6409384Y-2276600D01*
X-6421858Y-2304690D01*
X-6422767Y-2300119D01*
X-6452775Y-2255209D01*
X-6497685Y-2225201D01*
X-6550660Y-2214663D01*
X-6603635Y-2225201D01*
X-6648545Y-2255209D01*
X-6677660Y-2298783D01*
X-6706775Y-2255209D01*
X-6751685Y-2225201D01*
X-6804660Y-2214663D01*
X-6857635Y-2225201D01*
X-6902545Y-2255209D01*
X-6931660Y-2298783D01*
X-6960775Y-2255209D01*
X-7005685Y-2225201D01*
X-7058660Y-2214663D01*
X-7111635Y-2225201D01*
X-7156545Y-2255209D01*
X-7185660Y-2298783D01*
X-7214775Y-2255209D01*
X-7259685Y-2225201D01*
X-7312660Y-2214663D01*
X-7365635Y-2225201D01*
X-7410545Y-2255209D01*
X-7427210Y-2280150D01*
X-7427210Y-2269744D01*
X-7430841Y-2250448D01*
X-7442245Y-2232726D01*
X-7459645Y-2220837D01*
X-7480300Y-2216654D01*
X-7653020Y-2216654D01*
X-7672316Y-2220285D01*
X-7690038Y-2231689D01*
X-7701927Y-2249089D01*
X-7706110Y-2269744D01*
X-8793338Y-2269744D01*
X-8792330Y-2264679D01*
X-8792330Y-2208721D01*
X-8802003Y-2160093D01*
X-8829548Y-2118869D01*
X-8870772Y-2091323D01*
X-8919400Y-2081651D01*
X-8968028Y-2091323D01*
X-9009252Y-2118869D01*
X-9036797Y-2160093D01*
X-9044400Y-2198314D01*
X-9052003Y-2160093D01*
X-9079548Y-2118869D01*
X-9097330Y-2106987D01*
X-9097330Y-1581669D01*
X-8916509Y-1581669D01*
X-8882013Y-1665157D01*
X-8818193Y-1729088D01*
X-8734765Y-1763730D01*
X-8644431Y-1763809D01*
X-8560943Y-1729313D01*
X-8497012Y-1665493D01*
X-8462370Y-1582065D01*
X-8462291Y-1491731D01*
X-8496787Y-1408243D01*
X-8560607Y-1344312D01*
X-8644035Y-1309670D01*
X-8734369Y-1309591D01*
X-8817857Y-1344087D01*
X-8881788Y-1407907D01*
X-8916431Y-1491335D01*
X-8916509Y-1581669D01*
X-9097330Y-1581669D01*
X-9097330Y-1205421D01*
X-7883278Y-1205421D01*
X-7883278Y-1261379D01*
X-7873605Y-1310007D01*
X-7846060Y-1351231D01*
X-7804836Y-1378777D01*
X-7756208Y-1388449D01*
X-7707580Y-1378777D01*
X-7666356Y-1351231D01*
X-7638811Y-1310007D01*
X-7631208Y-1271786D01*
X-7623605Y-1310007D01*
X-7596060Y-1351231D01*
X-7578278Y-1363113D01*
X-7578278Y-1782318D01*
X-7572792Y-1809898D01*
X-7557169Y-1833279D01*
X-7224683Y-2165765D01*
X-7201302Y-2181388D01*
X-7173722Y-2186874D01*
X-5407032Y-2186874D01*
X-5374536Y-2219371D01*
X-5384792Y-2221301D01*
X-5402514Y-2232705D01*
X-5414403Y-2250105D01*
X-5418586Y-2270760D01*
X-5418586Y-2473960D01*
X-5414955Y-2493256D01*
X-5403551Y-2510978D01*
X-5386151Y-2522867D01*
X-5365496Y-2527050D01*
X-5192776Y-2527050D01*
X-5173480Y-2523419D01*
X-5155758Y-2512015D01*
X-5143869Y-2494615D01*
X-5139686Y-2473960D01*
X-5139686Y-2463554D01*
X-5123021Y-2488495D01*
X-5078111Y-2518503D01*
X-5025136Y-2529041D01*
X-4972161Y-2518503D01*
X-4927251Y-2488495D01*
X-4898136Y-2444921D01*
X-4869021Y-2488495D01*
X-4824111Y-2518503D01*
X-4771136Y-2529041D01*
X-4718161Y-2518503D01*
X-4673251Y-2488495D01*
X-4644136Y-2444921D01*
X-4615021Y-2488495D01*
X-4570111Y-2518503D01*
X-4517136Y-2529041D01*
X-4464161Y-2518503D01*
X-4419251Y-2488495D01*
X-4390136Y-2444921D01*
X-4361021Y-2488495D01*
X-4316111Y-2518503D01*
X-4263136Y-2529041D01*
X-4210161Y-2518503D01*
X-4165251Y-2488495D01*
X-4136136Y-2444921D01*
X-4107021Y-2488495D01*
X-4062111Y-2518503D01*
X-4009136Y-2529041D01*
X-3956161Y-2518503D01*
X-3911251Y-2488495D01*
X-3881243Y-2443586D01*
X-3870706Y-2390611D01*
X-3870706Y-2354109D01*
X-3881243Y-2301135D01*
X-3911251Y-2256225D01*
X-3956161Y-2226217D01*
X-4009136Y-2215679D01*
X-4062111Y-2226217D01*
X-4107021Y-2256225D01*
X-4136136Y-2299799D01*
X-4165251Y-2256225D01*
X-4210161Y-2226217D01*
X-4263136Y-2215679D01*
X-4316111Y-2226217D01*
X-4361021Y-2256225D01*
X-4390136Y-2299799D01*
X-4419251Y-2256225D01*
X-4464161Y-2226217D01*
X-4517136Y-2215679D01*
X-4570111Y-2226217D01*
X-4615021Y-2256225D01*
X-4644136Y-2299799D01*
X-4673251Y-2256225D01*
X-4718161Y-2226217D01*
X-4771136Y-2215679D01*
X-4824111Y-2226217D01*
X-4869021Y-2256225D01*
X-4898136Y-2299799D01*
X-4927251Y-2256225D01*
X-4972161Y-2226217D01*
X-5025136Y-2215679D01*
X-5078111Y-2226217D01*
X-5123021Y-2256225D01*
X-5139686Y-2281166D01*
X-5139686Y-2270760D01*
X-5143317Y-2251464D01*
X-5154721Y-2233742D01*
X-5172121Y-2221853D01*
X-5192776Y-2217670D01*
X-5207066Y-2217670D01*
X-5207066Y-2212849D01*
X-5207066Y-2212848D01*
X-5212552Y-2185268D01*
X-5228175Y-2161887D01*
X-5326219Y-2063843D01*
X-5349600Y-2048220D01*
X-5377180Y-2042734D01*
X-7143870Y-2042734D01*
X-7434138Y-1752466D01*
X-7434138Y-1363113D01*
X-7416356Y-1351231D01*
X-7388811Y-1310007D01*
X-7379138Y-1261379D01*
X-7379138Y-1257530D01*
X-7370343Y-1257530D01*
X-7381931Y-1277432D01*
X-7365078Y-1324095D01*
X-7331650Y-1360757D01*
X-7299557Y-1377847D01*
X-7280338Y-1369871D01*
X-7280338Y-1257530D01*
X-7232078Y-1257530D01*
X-7232078Y-1369871D01*
X-7212859Y-1377847D01*
X-7180766Y-1360757D01*
X-7147338Y-1324095D01*
X-7130485Y-1277432D01*
X-7142073Y-1257530D01*
X-7232078Y-1257530D01*
X-7280338Y-1257530D01*
X-7282338Y-1257530D01*
X-7282338Y-1209270D01*
X-7280338Y-1209270D01*
X-7280338Y-1096929D01*
X-7232078Y-1096929D01*
X-7232078Y-1209270D01*
X-7142073Y-1209270D01*
X-7130485Y-1189368D01*
X-7147338Y-1142705D01*
X-7180766Y-1106043D01*
X-7212859Y-1088953D01*
X-7232078Y-1096929D01*
X-7280338Y-1096929D01*
X-7299557Y-1088953D01*
X-7331650Y-1106043D01*
X-7365078Y-1142705D01*
X-7381931Y-1189368D01*
X-7370343Y-1209270D01*
X-7379138Y-1209270D01*
X-7379138Y-1205421D01*
X-7388811Y-1156793D01*
X-7416356Y-1115569D01*
X-7457580Y-1088023D01*
X-7506208Y-1078351D01*
X-7554836Y-1088023D01*
X-7596060Y-1115569D01*
X-7623605Y-1156793D01*
X-7631208Y-1195014D01*
X-7638811Y-1156793D01*
X-7666356Y-1115569D01*
X-7707580Y-1088023D01*
X-7756208Y-1078351D01*
X-7804836Y-1088023D01*
X-7846060Y-1115569D01*
X-7873605Y-1156793D01*
X-7883278Y-1205421D01*
X-9097330Y-1205421D01*
X-9097330Y-578369D01*
X-8213317Y-578369D01*
X-8178821Y-661857D01*
X-8115001Y-725788D01*
X-8031573Y-760430D01*
X-7941239Y-760509D01*
X-7857751Y-726013D01*
X-7793820Y-662193D01*
X-7759177Y-578765D01*
X-7759177Y-578369D01*
X-7253317Y-578369D01*
X-7218821Y-661857D01*
X-7155001Y-725788D01*
X-7071573Y-760430D01*
X-6981239Y-760509D01*
X-6897751Y-726013D01*
X-6833820Y-662193D01*
X-6799177Y-578765D01*
X-6799099Y-488431D01*
X-6833595Y-404943D01*
X-6897415Y-341012D01*
X-6980843Y-306370D01*
X-7071177Y-306291D01*
X-7154665Y-340787D01*
X-7218596Y-404607D01*
X-7253238Y-488035D01*
X-7253317Y-578369D01*
X-7759177Y-578369D01*
X-7759099Y-488431D01*
X-7793595Y-404943D01*
X-7857415Y-341012D01*
X-7940843Y-306370D01*
X-8031177Y-306291D01*
X-8114665Y-340787D01*
X-8178596Y-404607D01*
X-8213238Y-488035D01*
X-8213317Y-578369D01*
X-9097330Y-578369D01*
X-9097330Y1604638D01*
X-8065382Y2636586D01*
X-4901064Y2636586D01*
X-4847517Y2583038D01*
X-4865465Y2571045D01*
X-4895473Y2526136D01*
X-4895803Y2524475D01*
X-4923695Y2566219D01*
X-4968605Y2596227D01*
X-5021580Y2606765D01*
X-5074555Y2596227D01*
X-5119465Y2566219D01*
X-5148580Y2522645D01*
X-5177695Y2566219D01*
X-5222605Y2596227D01*
X-5275580Y2606765D01*
X-5328555Y2596227D01*
X-5373465Y2566219D01*
X-5402580Y2522645D01*
X-5431695Y2566219D01*
X-5476605Y2596227D01*
X-5529580Y2606765D01*
X-5582555Y2596227D01*
X-5627465Y2566219D01*
X-5656580Y2522645D01*
X-5685695Y2566219D01*
X-5730605Y2596227D01*
X-5783580Y2606765D01*
X-5836555Y2596227D01*
X-5881465Y2566219D01*
X-5911473Y2521310D01*
X-5922010Y2468335D01*
X-5922010Y2431833D01*
X-5911473Y2378859D01*
X-5881465Y2333949D01*
X-5836555Y2303941D01*
X-5783580Y2293403D01*
X-5730605Y2303941D01*
X-5685695Y2333949D01*
X-5656580Y2377523D01*
X-5627465Y2333949D01*
X-5582555Y2303941D01*
X-5541452Y2295765D01*
X-5541452Y2023063D01*
X-5574174Y2055843D01*
X-5621302Y2075412D01*
X-5672331Y2075456D01*
X-5719492Y2055969D01*
X-5755607Y2019918D01*
X-5773949Y1975745D01*
X-5792122Y2019728D01*
X-5828174Y2055843D01*
X-5875302Y2075412D01*
X-5926331Y2075456D01*
X-5973492Y2055969D01*
X-6009607Y2019918D01*
X-6029176Y1972790D01*
X-6029220Y1921761D01*
X-6009733Y1874600D01*
X-5973682Y1838485D01*
X-5926554Y1818916D01*
X-5875525Y1818872D01*
X-5828364Y1838358D01*
X-5792249Y1874410D01*
X-5773907Y1918583D01*
X-5755733Y1874600D01*
X-5719682Y1838485D01*
X-5672554Y1818916D01*
X-5621525Y1818872D01*
X-5574364Y1838358D01*
X-5541452Y1871213D01*
X-5541452Y1667390D01*
X-5641413Y1567429D01*
X-5672331Y1567456D01*
X-5719492Y1547969D01*
X-5755607Y1511918D01*
X-5773949Y1467745D01*
X-5792122Y1511728D01*
X-5828174Y1547843D01*
X-5875302Y1567412D01*
X-5926331Y1567456D01*
X-5973492Y1547969D01*
X-6009607Y1511918D01*
X-6029176Y1464790D01*
X-6029220Y1413761D01*
X-6009733Y1366600D01*
X-5973682Y1330485D01*
X-5972998Y1330201D01*
X-5972998Y1194308D01*
X-5967512Y1166728D01*
X-5951889Y1143347D01*
X-5639242Y830700D01*
X-5639242Y534931D01*
X-5672136Y556910D01*
X-5721223Y566674D01*
X-5795137Y566674D01*
X-5844224Y556910D01*
X-5852138Y551622D01*
X-6568560Y551622D01*
X-6624180Y607242D01*
X-6624180Y1289376D01*
X-6578092Y1335464D01*
X-6573122Y1330485D01*
X-6525994Y1310916D01*
X-6474965Y1310872D01*
X-6427804Y1330359D01*
X-6391689Y1366410D01*
X-6373347Y1410583D01*
X-6355173Y1366600D01*
X-6319122Y1330485D01*
X-6271994Y1310916D01*
X-6220965Y1310872D01*
X-6173804Y1330359D01*
X-6137689Y1366410D01*
X-6118120Y1413538D01*
X-6118076Y1464567D01*
X-6137562Y1511728D01*
X-6173614Y1547843D01*
X-6220742Y1567412D01*
X-6271771Y1567456D01*
X-6318932Y1547969D01*
X-6355047Y1511918D01*
X-6373389Y1467745D01*
X-6391562Y1511728D01*
X-6427614Y1547843D01*
X-6474742Y1567412D01*
X-6525771Y1567456D01*
X-6572932Y1547969D01*
X-6609047Y1511918D01*
X-6614571Y1498614D01*
X-6627275Y1490125D01*
X-6689180Y1428221D01*
X-6689180Y1627244D01*
X-6497532Y1818891D01*
X-6474965Y1818872D01*
X-6427804Y1838358D01*
X-6391689Y1874410D01*
X-6373347Y1918583D01*
X-6355173Y1874600D01*
X-6319122Y1838485D01*
X-6271994Y1818916D01*
X-6220965Y1818872D01*
X-6173804Y1838358D01*
X-6137689Y1874410D01*
X-6118120Y1921538D01*
X-6118076Y1972567D01*
X-6137562Y2019728D01*
X-6173614Y2055843D01*
X-6220742Y2075412D01*
X-6271771Y2075456D01*
X-6318932Y2055969D01*
X-6355047Y2019918D01*
X-6373389Y1975745D01*
X-6391562Y2019728D01*
X-6427614Y2055843D01*
X-6474742Y2075412D01*
X-6525771Y2075456D01*
X-6572932Y2055969D01*
X-6609047Y2019918D01*
X-6628616Y1972790D01*
X-6628660Y1921761D01*
X-6619844Y1900424D01*
X-6754180Y1766088D01*
X-6754180Y1968620D01*
X-6685119Y2037681D01*
X-6683584Y2039977D01*
X-6521316Y2202246D01*
X-6271006Y2202246D01*
X-6243426Y2207732D01*
X-6220045Y2223355D01*
X-6143180Y2300220D01*
X-6083046Y2300220D01*
X-6063750Y2303851D01*
X-6046028Y2315255D01*
X-6034139Y2332655D01*
X-6029956Y2353310D01*
X-6029956Y2556510D01*
X-6033587Y2575806D01*
X-6044991Y2593528D01*
X-6062391Y2605417D01*
X-6083046Y2609600D01*
X-6255766Y2609600D01*
X-6275062Y2605969D01*
X-6292784Y2594565D01*
X-6304673Y2577165D01*
X-6308856Y2556510D01*
X-6308856Y2546104D01*
X-6325521Y2571045D01*
X-6370431Y2601053D01*
X-6423406Y2611591D01*
X-6476381Y2601053D01*
X-6521291Y2571045D01*
X-6550406Y2527471D01*
X-6579521Y2571045D01*
X-6624431Y2601053D01*
X-6677406Y2611591D01*
X-6730381Y2601053D01*
X-6775291Y2571045D01*
X-6804406Y2527471D01*
X-6833521Y2571045D01*
X-6878431Y2601053D01*
X-6931406Y2611591D01*
X-6984381Y2601053D01*
X-7029291Y2571045D01*
X-7058406Y2527471D01*
X-7087521Y2571045D01*
X-7132431Y2601053D01*
X-7185406Y2611591D01*
X-7238381Y2601053D01*
X-7283291Y2571045D01*
X-7312406Y2527471D01*
X-7341521Y2571045D01*
X-7386431Y2601053D01*
X-7439406Y2611591D01*
X-7492381Y2601053D01*
X-7537291Y2571045D01*
X-7566406Y2527471D01*
X-7595521Y2571045D01*
X-7640431Y2601053D01*
X-7693406Y2611591D01*
X-7746381Y2601053D01*
X-7791291Y2571045D01*
X-7820406Y2527471D01*
X-7849521Y2571045D01*
X-7894431Y2601053D01*
X-7947406Y2611591D01*
X-8000381Y2601053D01*
X-8045291Y2571045D01*
X-8075299Y2526136D01*
X-8085836Y2473161D01*
X-8085836Y2436659D01*
X-8075299Y2383685D01*
X-8045291Y2338775D01*
X-8000381Y2308767D01*
X-7947406Y2298229D01*
X-7894431Y2308767D01*
X-7849521Y2338775D01*
X-7820406Y2382349D01*
X-7791291Y2338775D01*
X-7746381Y2308767D01*
X-7693406Y2298229D01*
X-7640431Y2308767D01*
X-7595521Y2338775D01*
X-7566406Y2382349D01*
X-7537291Y2338775D01*
X-7492381Y2308767D01*
X-7439406Y2298229D01*
X-7386431Y2308767D01*
X-7341521Y2338775D01*
X-7312406Y2382349D01*
X-7283291Y2338775D01*
X-7238381Y2308767D01*
X-7185406Y2298229D01*
X-7132431Y2308767D01*
X-7087521Y2338775D01*
X-7058406Y2382349D01*
X-7029291Y2338775D01*
X-6984381Y2308767D01*
X-6931406Y2298229D01*
X-6878431Y2308767D01*
X-6833521Y2338775D01*
X-6804406Y2382349D01*
X-6775291Y2338775D01*
X-6730381Y2308767D01*
X-6677406Y2298229D01*
X-6624431Y2308767D01*
X-6606977Y2320429D01*
X-6787041Y2140365D01*
X-6788576Y2138069D01*
X-6877211Y2049433D01*
X-6892834Y2026052D01*
X-6898320Y1998472D01*
X-6898320Y408940D01*
X-6892834Y381360D01*
X-6877211Y357979D01*
X-6793391Y274159D01*
X-6770010Y258536D01*
X-6742430Y253050D01*
X-6505081Y253050D01*
X-6503924Y252820D01*
X-6405626Y252820D01*
X-6404469Y253050D01*
X-6105001Y253050D01*
X-6094410Y242459D01*
X-6094410Y-54857D01*
X-6094664Y-56134D01*
X-6094664Y-647954D01*
X-6089178Y-675534D01*
X-6073555Y-698915D01*
X-5816507Y-955963D01*
X-5813445Y-958009D01*
X-5711097Y-1060357D01*
X-5687716Y-1075980D01*
X-5660136Y-1081466D01*
X-3296666Y-1081466D01*
X-3269086Y-1075980D01*
X-3245705Y-1060357D01*
X-3161527Y-976180D01*
X-3137462Y-966236D01*
X-3114355Y-943170D01*
X-3101834Y-913016D01*
X-3101806Y-880367D01*
X-3114274Y-850192D01*
X-3137340Y-827085D01*
X-3167494Y-814564D01*
X-3200143Y-814536D01*
X-3230318Y-827004D01*
X-3253425Y-850070D01*
X-3263481Y-874289D01*
X-3326518Y-937326D01*
X-5630284Y-937326D01*
X-5713569Y-854041D01*
X-5716631Y-851995D01*
X-5839900Y-728726D01*
X-4539290Y-728726D01*
X-4539290Y-794766D01*
X-4518045Y-853313D01*
X-4476012Y-899273D01*
X-4429726Y-920875D01*
X-4405630Y-913383D01*
X-4405630Y-728726D01*
X-4357370Y-728726D01*
X-4357370Y-913383D01*
X-4333274Y-920875D01*
X-4286988Y-899273D01*
X-4244955Y-853313D01*
X-4223710Y-794766D01*
X-4223710Y-728726D01*
X-4357370Y-728726D01*
X-4405630Y-728726D01*
X-4539290Y-728726D01*
X-5839900Y-728726D01*
X-5862760Y-705866D01*
X-5795327Y-705866D01*
X-5782310Y-692849D01*
X-5782310Y-601726D01*
X-5734050Y-601726D01*
X-5734050Y-692849D01*
X-5721032Y-705866D01*
X-5637841Y-705866D01*
X-5618703Y-697939D01*
X-5604055Y-683291D01*
X-5596128Y-664153D01*
X-5596128Y-614744D01*
X-5596445Y-614426D01*
X-4539290Y-614426D01*
X-4539290Y-680466D01*
X-4405630Y-680466D01*
X-4405630Y-495809D01*
X-4357370Y-495809D01*
X-4357370Y-680466D01*
X-4223710Y-680466D01*
X-4223710Y-614426D01*
X-4244955Y-555879D01*
X-4286988Y-509919D01*
X-4333274Y-488317D01*
X-4357370Y-495809D01*
X-4405630Y-495809D01*
X-4429726Y-488317D01*
X-4476012Y-509919D01*
X-4518045Y-555879D01*
X-4539290Y-614426D01*
X-5596445Y-614426D01*
X-5609145Y-601726D01*
X-5734050Y-601726D01*
X-5782310Y-601726D01*
X-5907214Y-601726D01*
X-5920232Y-614744D01*
X-5920232Y-648394D01*
X-5950524Y-618102D01*
X-5950524Y-97538D01*
X-5927505Y-120557D01*
X-5904124Y-136180D01*
X-5901619Y-136678D01*
X-5885837Y-160297D01*
X-5844224Y-188102D01*
X-5801521Y-196596D01*
X-5844224Y-205090D01*
X-5885837Y-232895D01*
X-5913643Y-274509D01*
X-5923407Y-323596D01*
X-5913643Y-372683D01*
X-5885837Y-414297D01*
X-5844224Y-442102D01*
X-5807906Y-449326D01*
X-5878519Y-449326D01*
X-5897657Y-457253D01*
X-5912305Y-471901D01*
X-5920232Y-491039D01*
X-5920232Y-540449D01*
X-5907214Y-553466D01*
X-5782310Y-553466D01*
X-5782310Y-551466D01*
X-5734050Y-551466D01*
X-5734050Y-553466D01*
X-5609145Y-553466D01*
X-5596128Y-540449D01*
X-5596128Y-491039D01*
X-5604055Y-471901D01*
X-5618703Y-457253D01*
X-5637841Y-449326D01*
X-5708454Y-449326D01*
X-5672136Y-442102D01*
X-5630523Y-414297D01*
X-5602717Y-372683D01*
X-5592953Y-323596D01*
X-5602717Y-274509D01*
X-5630523Y-232895D01*
X-5672136Y-205090D01*
X-5714838Y-196596D01*
X-5672136Y-188102D01*
X-5630523Y-160297D01*
X-5602717Y-118683D01*
X-5592953Y-69596D01*
X-5602717Y-20509D01*
X-5630523Y21105D01*
X-5672136Y48910D01*
X-5714838Y57404D01*
X-5672136Y65898D01*
X-5630523Y93703D01*
X-5618074Y112334D01*
X-5613908Y112334D01*
X-5586328Y117820D01*
X-5562947Y133443D01*
X-5516211Y180179D01*
X-5500588Y203560D01*
X-5495102Y231140D01*
X-5495102Y541274D01*
X-4539290Y541274D01*
X-4539290Y475234D01*
X-4518045Y416687D01*
X-4476012Y370727D01*
X-4429726Y349125D01*
X-4405630Y356617D01*
X-4405630Y541274D01*
X-4357370Y541274D01*
X-4357370Y356617D01*
X-4333274Y349125D01*
X-4286988Y370727D01*
X-4244955Y416687D01*
X-4223710Y475234D01*
X-4223710Y541274D01*
X-4357370Y541274D01*
X-4405630Y541274D01*
X-4539290Y541274D01*
X-5495102Y541274D01*
X-5495102Y655574D01*
X-4539290Y655574D01*
X-4539290Y589534D01*
X-4405630Y589534D01*
X-4405630Y774191D01*
X-4357370Y774191D01*
X-4357370Y589534D01*
X-4223710Y589534D01*
X-4223710Y635829D01*
X-4031290Y635829D01*
X-4031290Y494979D01*
X-4019279Y434595D01*
X-3985074Y383404D01*
X-3945570Y357008D01*
X-3945570Y-496200D01*
X-3985074Y-522596D01*
X-4019279Y-573787D01*
X-4031290Y-634171D01*
X-4031290Y-775021D01*
X-4019279Y-835405D01*
X-3985074Y-886595D01*
X-3933884Y-920800D01*
X-3873500Y-932811D01*
X-3813116Y-920800D01*
X-3761926Y-886595D01*
X-3727721Y-835405D01*
X-3715710Y-775021D01*
X-3715710Y-728726D01*
X-2888290Y-728726D01*
X-2888290Y-794766D01*
X-2867045Y-853313D01*
X-2825012Y-899273D01*
X-2778726Y-920875D01*
X-2754630Y-913383D01*
X-2754630Y-728726D01*
X-2706370Y-728726D01*
X-2706370Y-913383D01*
X-2682274Y-920875D01*
X-2635988Y-899273D01*
X-2593955Y-853313D01*
X-2572710Y-794766D01*
X-2572710Y-728726D01*
X-2706370Y-728726D01*
X-2754630Y-728726D01*
X-2888290Y-728726D01*
X-3715710Y-728726D01*
X-3715710Y-634171D01*
X-3719637Y-614426D01*
X-2888290Y-614426D01*
X-2888290Y-680466D01*
X-2754630Y-680466D01*
X-2754630Y-495809D01*
X-2706370Y-495809D01*
X-2706370Y-680466D01*
X-2572710Y-680466D01*
X-2572710Y-614426D01*
X-2593955Y-555879D01*
X-2635988Y-509919D01*
X-2682274Y-488317D01*
X-2706370Y-495809D01*
X-2754630Y-495809D01*
X-2778726Y-488317D01*
X-2825012Y-509919D01*
X-2867045Y-555879D01*
X-2888290Y-614426D01*
X-3719637Y-614426D01*
X-3727721Y-573787D01*
X-3761926Y-522596D01*
X-3801430Y-496200D01*
X-3801430Y357008D01*
X-3761926Y383404D01*
X-3727721Y434595D01*
X-3715710Y494979D01*
X-3715710Y541274D01*
X-2888290Y541274D01*
X-2888290Y475234D01*
X-2867045Y416687D01*
X-2825012Y370727D01*
X-2778726Y349125D01*
X-2754630Y356617D01*
X-2754630Y541274D01*
X-2706370Y541274D01*
X-2706370Y356617D01*
X-2682274Y349125D01*
X-2635988Y370727D01*
X-2593955Y416687D01*
X-2572710Y475234D01*
X-2572710Y541274D01*
X-2706370Y541274D01*
X-2754630Y541274D01*
X-2888290Y541274D01*
X-3715710Y541274D01*
X-3715710Y635829D01*
X-3719637Y655574D01*
X-2888290Y655574D01*
X-2888290Y589534D01*
X-2754630Y589534D01*
X-2754630Y774191D01*
X-2706370Y774191D01*
X-2706370Y589534D01*
X-2572710Y589534D01*
X-2572710Y635829D01*
X-2380290Y635829D01*
X-2380290Y494979D01*
X-2368279Y434595D01*
X-2334074Y383404D01*
X-2294570Y357008D01*
X-2294570Y-496200D01*
X-2334074Y-522596D01*
X-2368279Y-573787D01*
X-2380290Y-634171D01*
X-2380290Y-775021D01*
X-2368279Y-835405D01*
X-2334074Y-886595D01*
X-2282884Y-920800D01*
X-2222500Y-932811D01*
X-2162116Y-920800D01*
X-2110926Y-886595D01*
X-2076721Y-835405D01*
X-2064710Y-775021D01*
X-2064710Y-728726D01*
X-1237290Y-728726D01*
X-1237290Y-794766D01*
X-1216045Y-853313D01*
X-1174012Y-899273D01*
X-1127726Y-920875D01*
X-1103630Y-913383D01*
X-1103630Y-728726D01*
X-1055370Y-728726D01*
X-1055370Y-913383D01*
X-1031274Y-920875D01*
X-984988Y-899273D01*
X-942955Y-853313D01*
X-921710Y-794766D01*
X-921710Y-728726D01*
X-1055370Y-728726D01*
X-1103630Y-728726D01*
X-1237290Y-728726D01*
X-2064710Y-728726D01*
X-2064710Y-634171D01*
X-2068637Y-614426D01*
X-1237290Y-614426D01*
X-1237290Y-680466D01*
X-1103630Y-680466D01*
X-1103630Y-495809D01*
X-1055370Y-495809D01*
X-1055370Y-680466D01*
X-921710Y-680466D01*
X-921710Y-614426D01*
X-942955Y-555879D01*
X-984988Y-509919D01*
X-1031274Y-488317D01*
X-1055370Y-495809D01*
X-1103630Y-495809D01*
X-1127726Y-488317D01*
X-1174012Y-509919D01*
X-1216045Y-555879D01*
X-1237290Y-614426D01*
X-2068637Y-614426D01*
X-2076721Y-573787D01*
X-2110926Y-522596D01*
X-2150430Y-496200D01*
X-2150430Y357008D01*
X-2110926Y383404D01*
X-2076721Y434595D01*
X-2064710Y494979D01*
X-2064710Y541274D01*
X-1237290Y541274D01*
X-1237290Y475234D01*
X-1216045Y416687D01*
X-1174012Y370727D01*
X-1127726Y349125D01*
X-1103630Y356617D01*
X-1103630Y541274D01*
X-1055370Y541274D01*
X-1055370Y356617D01*
X-1031274Y349125D01*
X-984988Y370727D01*
X-942955Y416687D01*
X-921710Y475234D01*
X-921710Y541274D01*
X-1055370Y541274D01*
X-1103630Y541274D01*
X-1237290Y541274D01*
X-2064710Y541274D01*
X-2064710Y635829D01*
X-2068637Y655574D01*
X-1237290Y655574D01*
X-1237290Y589534D01*
X-1103630Y589534D01*
X-1103630Y774191D01*
X-1055370Y774191D01*
X-1055370Y589534D01*
X-921710Y589534D01*
X-921710Y635829D01*
X-729290Y635829D01*
X-729290Y494979D01*
X-717279Y434595D01*
X-683074Y383404D01*
X-643570Y357008D01*
X-643570Y-496200D01*
X-683074Y-522596D01*
X-717279Y-573787D01*
X-729290Y-634171D01*
X-729290Y-775021D01*
X-717279Y-835405D01*
X-683074Y-886595D01*
X-631884Y-920800D01*
X-571500Y-932811D01*
X-511116Y-920800D01*
X-459926Y-886595D01*
X-425721Y-835405D01*
X-413710Y-775021D01*
X-413710Y-728726D01*
X413710Y-728726D01*
X413710Y-794766D01*
X434955Y-853313D01*
X476988Y-899273D01*
X523274Y-920875D01*
X547370Y-913383D01*
X547370Y-728726D01*
X595630Y-728726D01*
X595630Y-913383D01*
X619726Y-920875D01*
X666012Y-899273D01*
X708045Y-853313D01*
X729290Y-794766D01*
X729290Y-728726D01*
X595630Y-728726D01*
X547370Y-728726D01*
X413710Y-728726D01*
X-413710Y-728726D01*
X-413710Y-634171D01*
X-417637Y-614426D01*
X413710Y-614426D01*
X413710Y-680466D01*
X547370Y-680466D01*
X547370Y-495809D01*
X595630Y-495809D01*
X595630Y-680466D01*
X729290Y-680466D01*
X729290Y-634226D01*
X921655Y-634226D01*
X921655Y-774966D01*
X933670Y-835371D01*
X967887Y-886579D01*
X1019095Y-920796D01*
X1079500Y-932811D01*
X1139905Y-920796D01*
X1191113Y-886579D01*
X1225330Y-835371D01*
X1237345Y-774966D01*
X1237345Y-728726D01*
X2064964Y-728726D01*
X2064964Y-794766D01*
X2086209Y-853313D01*
X2128242Y-899273D01*
X2174528Y-920875D01*
X2198624Y-913383D01*
X2198624Y-728726D01*
X2246884Y-728726D01*
X2246884Y-913383D01*
X2270980Y-920875D01*
X2317266Y-899273D01*
X2359299Y-853313D01*
X2380544Y-794766D01*
X2380544Y-728726D01*
X2246884Y-728726D01*
X2198624Y-728726D01*
X2064964Y-728726D01*
X1237345Y-728726D01*
X1237345Y-634226D01*
X1233407Y-614426D01*
X2064964Y-614426D01*
X2064964Y-680466D01*
X2198624Y-680466D01*
X2198624Y-495809D01*
X2246884Y-495809D01*
X2246884Y-680466D01*
X2380544Y-680466D01*
X2380544Y-614426D01*
X2359299Y-555879D01*
X2317266Y-509919D01*
X2270980Y-488317D01*
X2246884Y-495809D01*
X2198624Y-495809D01*
X2174528Y-488317D01*
X2128242Y-509919D01*
X2086209Y-555879D01*
X2064964Y-614426D01*
X1233407Y-614426D01*
X1225330Y-573821D01*
X1191113Y-522613D01*
X1151570Y-496191D01*
X1151570Y357008D01*
X1191074Y383404D01*
X1225279Y434595D01*
X1237290Y494979D01*
X1237290Y541274D01*
X2064964Y541274D01*
X2064964Y475234D01*
X2086209Y416687D01*
X2128242Y370727D01*
X2174528Y349125D01*
X2198624Y356617D01*
X2198624Y541274D01*
X2246884Y541274D01*
X2246884Y356617D01*
X2270980Y349125D01*
X2317266Y370727D01*
X2359299Y416687D01*
X2380544Y475234D01*
X2380544Y541274D01*
X2246884Y541274D01*
X2198624Y541274D01*
X2064964Y541274D01*
X1237290Y541274D01*
X1237290Y635829D01*
X1233363Y655574D01*
X2064964Y655574D01*
X2064964Y589534D01*
X2198624Y589534D01*
X2198624Y774191D01*
X2246884Y774191D01*
X2246884Y589534D01*
X2380544Y589534D01*
X2380544Y635829D01*
X2572964Y635829D01*
X2572964Y494979D01*
X2584975Y434595D01*
X2619180Y383404D01*
X2658684Y357008D01*
X2658684Y-496200D01*
X2619180Y-522596D01*
X2584975Y-573787D01*
X2572964Y-634171D01*
X2572964Y-775021D01*
X2584975Y-835405D01*
X2619180Y-886595D01*
X2670370Y-920800D01*
X2730754Y-932811D01*
X2791138Y-920800D01*
X2842328Y-886595D01*
X2876533Y-835405D01*
X2888544Y-775021D01*
X2888544Y-728726D01*
X3715710Y-728726D01*
X3715710Y-794766D01*
X3736955Y-853313D01*
X3778988Y-899273D01*
X3825274Y-920875D01*
X3849370Y-913383D01*
X3849370Y-728726D01*
X3897630Y-728726D01*
X3897630Y-913383D01*
X3921726Y-920875D01*
X3968012Y-899273D01*
X4010045Y-853313D01*
X4031290Y-794766D01*
X4031290Y-728726D01*
X3897630Y-728726D01*
X3849370Y-728726D01*
X3715710Y-728726D01*
X2888544Y-728726D01*
X2888544Y-634171D01*
X2884617Y-614426D01*
X3715710Y-614426D01*
X3715710Y-680466D01*
X3849370Y-680466D01*
X3849370Y-495809D01*
X3897630Y-495809D01*
X3897630Y-680466D01*
X4031290Y-680466D01*
X4031290Y-614426D01*
X4010045Y-555879D01*
X3968012Y-509919D01*
X3921726Y-488317D01*
X3897630Y-495809D01*
X3849370Y-495809D01*
X3825274Y-488317D01*
X3778988Y-509919D01*
X3736955Y-555879D01*
X3715710Y-614426D01*
X2884617Y-614426D01*
X2876533Y-573787D01*
X2842328Y-522596D01*
X2802824Y-496200D01*
X2802824Y357008D01*
X2842328Y383404D01*
X2876533Y434595D01*
X2888544Y494979D01*
X2888544Y541274D01*
X3715710Y541274D01*
X3715710Y475234D01*
X3736955Y416687D01*
X3778988Y370727D01*
X3825274Y349125D01*
X3849370Y356617D01*
X3849370Y541274D01*
X3897630Y541274D01*
X3897630Y356617D01*
X3921726Y349125D01*
X3968012Y370727D01*
X4010045Y416687D01*
X4031290Y475234D01*
X4031290Y541274D01*
X3897630Y541274D01*
X3849370Y541274D01*
X3715710Y541274D01*
X2888544Y541274D01*
X2888544Y635829D01*
X2884617Y655574D01*
X3715710Y655574D01*
X3715710Y589534D01*
X3849370Y589534D01*
X3849370Y774191D01*
X3897630Y774191D01*
X3897630Y589534D01*
X4031290Y589534D01*
X4031290Y635829D01*
X4223710Y635829D01*
X4223710Y494979D01*
X4235721Y434595D01*
X4269926Y383404D01*
X4309430Y357008D01*
X4309430Y-496200D01*
X4269926Y-522596D01*
X4235721Y-573787D01*
X4223710Y-634171D01*
X4223710Y-775021D01*
X4235721Y-835405D01*
X4269926Y-886595D01*
X4321116Y-920800D01*
X4381500Y-932811D01*
X4441884Y-920800D01*
X4493074Y-886595D01*
X4527279Y-835405D01*
X4539290Y-775021D01*
X4539290Y-728726D01*
X5366710Y-728726D01*
X5366710Y-794766D01*
X5387955Y-853313D01*
X5429988Y-899273D01*
X5476274Y-920875D01*
X5500370Y-913383D01*
X5500370Y-728726D01*
X5548630Y-728726D01*
X5548630Y-913383D01*
X5572726Y-920875D01*
X5619012Y-899273D01*
X5661045Y-853313D01*
X5682290Y-794766D01*
X5682290Y-728726D01*
X5548630Y-728726D01*
X5500370Y-728726D01*
X5366710Y-728726D01*
X4539290Y-728726D01*
X4539290Y-634171D01*
X4535363Y-614426D01*
X5366710Y-614426D01*
X5366710Y-680466D01*
X5500370Y-680466D01*
X5500370Y-495809D01*
X5548630Y-495809D01*
X5548630Y-680466D01*
X5682290Y-680466D01*
X5682290Y-614426D01*
X5661045Y-555879D01*
X5619012Y-509919D01*
X5572726Y-488317D01*
X5548630Y-495809D01*
X5500370Y-495809D01*
X5476274Y-488317D01*
X5429988Y-509919D01*
X5387955Y-555879D01*
X5366710Y-614426D01*
X4535363Y-614426D01*
X4527279Y-573787D01*
X4493074Y-522596D01*
X4453570Y-496200D01*
X4453570Y357008D01*
X4493074Y383404D01*
X4527279Y434595D01*
X4539290Y494979D01*
X4539290Y541274D01*
X5366710Y541274D01*
X5366710Y475234D01*
X5387955Y416687D01*
X5429988Y370727D01*
X5476274Y349125D01*
X5500370Y356617D01*
X5500370Y541274D01*
X5548630Y541274D01*
X5548630Y356617D01*
X5572726Y349125D01*
X5619012Y370727D01*
X5661045Y416687D01*
X5682290Y475234D01*
X5682290Y541274D01*
X5548630Y541274D01*
X5500370Y541274D01*
X5366710Y541274D01*
X4539290Y541274D01*
X4539290Y635829D01*
X4535363Y655574D01*
X5366710Y655574D01*
X5366710Y589534D01*
X5500370Y589534D01*
X5500370Y774191D01*
X5548630Y774191D01*
X5548630Y589534D01*
X5682290Y589534D01*
X5682290Y635829D01*
X5874710Y635829D01*
X5874710Y494979D01*
X5886721Y434595D01*
X5920926Y383404D01*
X5960430Y357008D01*
X5960430Y-496200D01*
X5920926Y-522596D01*
X5886721Y-573787D01*
X5874710Y-634171D01*
X5874710Y-775021D01*
X5886721Y-835405D01*
X5920926Y-886595D01*
X5972116Y-920800D01*
X6032500Y-932811D01*
X6092884Y-920800D01*
X6144074Y-886595D01*
X6178279Y-835405D01*
X6190290Y-775021D01*
X6190290Y-727202D01*
X7022790Y-727202D01*
X7022790Y-793242D01*
X7044035Y-851789D01*
X7086068Y-897749D01*
X7132354Y-919351D01*
X7156450Y-911859D01*
X7156450Y-727202D01*
X7204710Y-727202D01*
X7204710Y-911859D01*
X7228806Y-919351D01*
X7275092Y-897749D01*
X7317125Y-851789D01*
X7338370Y-793242D01*
X7338370Y-727202D01*
X7204710Y-727202D01*
X7156450Y-727202D01*
X7022790Y-727202D01*
X6190290Y-727202D01*
X6190290Y-634171D01*
X6186059Y-612902D01*
X7022790Y-612902D01*
X7022790Y-678942D01*
X7156450Y-678942D01*
X7156450Y-494285D01*
X7204710Y-494285D01*
X7204710Y-678942D01*
X7338370Y-678942D01*
X7338370Y-612902D01*
X7317125Y-554355D01*
X7275092Y-508395D01*
X7228806Y-486793D01*
X7204710Y-494285D01*
X7156450Y-494285D01*
X7132354Y-486793D01*
X7086068Y-508395D01*
X7044035Y-554355D01*
X7022790Y-612902D01*
X6186059Y-612902D01*
X6178279Y-573787D01*
X6144074Y-522596D01*
X6104570Y-496200D01*
X6104570Y357008D01*
X6144074Y383404D01*
X6178279Y434595D01*
X6190290Y494979D01*
X6190290Y542798D01*
X7022790Y542798D01*
X7022790Y476758D01*
X7044035Y418211D01*
X7086068Y372251D01*
X7132354Y350649D01*
X7156450Y358141D01*
X7156450Y542798D01*
X7204710Y542798D01*
X7204710Y358141D01*
X7228806Y350649D01*
X7275092Y372251D01*
X7317125Y418211D01*
X7338370Y476758D01*
X7338370Y542798D01*
X7204710Y542798D01*
X7156450Y542798D01*
X7022790Y542798D01*
X6190290Y542798D01*
X6190290Y635829D01*
X6186059Y657098D01*
X7022790Y657098D01*
X7022790Y591058D01*
X7156450Y591058D01*
X7156450Y775715D01*
X7204710Y775715D01*
X7204710Y591058D01*
X7338370Y591058D01*
X7338370Y637353D01*
X7530790Y637353D01*
X7530790Y496503D01*
X7542801Y436119D01*
X7577006Y384928D01*
X7616510Y358532D01*
X7616510Y-494676D01*
X7577006Y-521072D01*
X7542801Y-572263D01*
X7530790Y-632647D01*
X7530790Y-773497D01*
X7542801Y-833881D01*
X7577006Y-885071D01*
X7628196Y-919276D01*
X7688580Y-931287D01*
X7748964Y-919276D01*
X7800154Y-885071D01*
X7834359Y-833881D01*
X7846370Y-773497D01*
X7846370Y-632647D01*
X7834359Y-572263D01*
X7800154Y-521072D01*
X7760650Y-494676D01*
X7760650Y358532D01*
X7800154Y384928D01*
X7834359Y436119D01*
X7846370Y496503D01*
X7846370Y637353D01*
X7834359Y697737D01*
X7800154Y748927D01*
X7748964Y783132D01*
X7688580Y795143D01*
X7628196Y783132D01*
X7577006Y748927D01*
X7542801Y697737D01*
X7530790Y637353D01*
X7338370Y637353D01*
X7338370Y657098D01*
X7317125Y715645D01*
X7275092Y761605D01*
X7228806Y783207D01*
X7204710Y775715D01*
X7156450Y775715D01*
X7132354Y783207D01*
X7086068Y761605D01*
X7044035Y715645D01*
X7022790Y657098D01*
X6186059Y657098D01*
X6178279Y696213D01*
X6144074Y747403D01*
X6092884Y781608D01*
X6032500Y793619D01*
X5972116Y781608D01*
X5920926Y747403D01*
X5886721Y696213D01*
X5874710Y635829D01*
X5682290Y635829D01*
X5682290Y655574D01*
X5661045Y714121D01*
X5619012Y760081D01*
X5572726Y781683D01*
X5548630Y774191D01*
X5500370Y774191D01*
X5476274Y781683D01*
X5429988Y760081D01*
X5387955Y714121D01*
X5366710Y655574D01*
X4535363Y655574D01*
X4527279Y696213D01*
X4493074Y747403D01*
X4441884Y781608D01*
X4381500Y793619D01*
X4321116Y781608D01*
X4269926Y747403D01*
X4235721Y696213D01*
X4223710Y635829D01*
X4031290Y635829D01*
X4031290Y655574D01*
X4010045Y714121D01*
X3968012Y760081D01*
X3921726Y781683D01*
X3897630Y774191D01*
X3849370Y774191D01*
X3825274Y781683D01*
X3778988Y760081D01*
X3736955Y714121D01*
X3715710Y655574D01*
X2884617Y655574D01*
X2876533Y696213D01*
X2842328Y747403D01*
X2791138Y781608D01*
X2730754Y793619D01*
X2670370Y781608D01*
X2619180Y747403D01*
X2584975Y696213D01*
X2572964Y635829D01*
X2380544Y635829D01*
X2380544Y655574D01*
X2359299Y714121D01*
X2317266Y760081D01*
X2270980Y781683D01*
X2246884Y774191D01*
X2198624Y774191D01*
X2174528Y781683D01*
X2128242Y760081D01*
X2086209Y714121D01*
X2064964Y655574D01*
X1233363Y655574D01*
X1225279Y696213D01*
X1191074Y747403D01*
X1139884Y781608D01*
X1079500Y793619D01*
X1019116Y781608D01*
X967926Y747403D01*
X933721Y696213D01*
X921710Y635829D01*
X921710Y494979D01*
X933721Y434595D01*
X967926Y383404D01*
X1007430Y357008D01*
X1007430Y-496191D01*
X967887Y-522613D01*
X933670Y-573821D01*
X921655Y-634226D01*
X729290Y-634226D01*
X729290Y-614426D01*
X708045Y-555879D01*
X666012Y-509919D01*
X619726Y-488317D01*
X595630Y-495809D01*
X547370Y-495809D01*
X523274Y-488317D01*
X476988Y-509919D01*
X434955Y-555879D01*
X413710Y-614426D01*
X-417637Y-614426D01*
X-425721Y-573787D01*
X-459926Y-522596D01*
X-499430Y-496200D01*
X-499430Y357008D01*
X-459926Y383404D01*
X-425721Y434595D01*
X-413710Y494979D01*
X-413710Y541274D01*
X413710Y541274D01*
X413710Y475234D01*
X434955Y416687D01*
X476988Y370727D01*
X523274Y349125D01*
X547370Y356617D01*
X547370Y541274D01*
X595630Y541274D01*
X595630Y356617D01*
X619726Y349125D01*
X666012Y370727D01*
X708045Y416687D01*
X729290Y475234D01*
X729290Y541274D01*
X595630Y541274D01*
X547370Y541274D01*
X413710Y541274D01*
X-413710Y541274D01*
X-413710Y635829D01*
X-417637Y655574D01*
X413710Y655574D01*
X413710Y589534D01*
X547370Y589534D01*
X547370Y774191D01*
X595630Y774191D01*
X595630Y589534D01*
X729290Y589534D01*
X729290Y655574D01*
X708045Y714121D01*
X666012Y760081D01*
X619726Y781683D01*
X595630Y774191D01*
X547370Y774191D01*
X523274Y781683D01*
X476988Y760081D01*
X434955Y714121D01*
X413710Y655574D01*
X-417637Y655574D01*
X-425721Y696213D01*
X-459926Y747403D01*
X-511116Y781608D01*
X-571500Y793619D01*
X-631884Y781608D01*
X-683074Y747403D01*
X-717279Y696213D01*
X-729290Y635829D01*
X-921710Y635829D01*
X-921710Y655574D01*
X-942955Y714121D01*
X-984988Y760081D01*
X-1031274Y781683D01*
X-1055370Y774191D01*
X-1103630Y774191D01*
X-1127726Y781683D01*
X-1174012Y760081D01*
X-1216045Y714121D01*
X-1237290Y655574D01*
X-2068637Y655574D01*
X-2076721Y696213D01*
X-2110926Y747403D01*
X-2162116Y781608D01*
X-2222500Y793619D01*
X-2282884Y781608D01*
X-2334074Y747403D01*
X-2368279Y696213D01*
X-2380290Y635829D01*
X-2572710Y635829D01*
X-2572710Y655574D01*
X-2593955Y714121D01*
X-2635988Y760081D01*
X-2682274Y781683D01*
X-2706370Y774191D01*
X-2754630Y774191D01*
X-2778726Y781683D01*
X-2825012Y760081D01*
X-2867045Y714121D01*
X-2888290Y655574D01*
X-3719637Y655574D01*
X-3727721Y696213D01*
X-3761926Y747403D01*
X-3813116Y781608D01*
X-3873500Y793619D01*
X-3933884Y781608D01*
X-3985074Y747403D01*
X-4019279Y696213D01*
X-4031290Y635829D01*
X-4223710Y635829D01*
X-4223710Y655574D01*
X-4244955Y714121D01*
X-4286988Y760081D01*
X-4333274Y781683D01*
X-4357370Y774191D01*
X-4405630Y774191D01*
X-4429726Y781683D01*
X-4476012Y760081D01*
X-4518045Y714121D01*
X-4539290Y655574D01*
X-5495102Y655574D01*
X-5495102Y860552D01*
X-5500588Y888132D01*
X-5516211Y911513D01*
X-5828858Y1224160D01*
X-5828858Y1330154D01*
X-5828364Y1330359D01*
X-5792249Y1366410D01*
X-5773907Y1410583D01*
X-5755733Y1366600D01*
X-5719682Y1330485D01*
X-5672554Y1310916D01*
X-5621525Y1310872D01*
X-5574364Y1330359D01*
X-5538249Y1366410D01*
X-5518680Y1413538D01*
X-5518636Y1464567D01*
X-5525008Y1479989D01*
X-5418421Y1586577D01*
X-5402798Y1609958D01*
X-5397312Y1637538D01*
X-5397312Y2369639D01*
X-5373465Y2333949D01*
X-5328555Y2303941D01*
X-5275580Y2293403D01*
X-5222605Y2303941D01*
X-5177695Y2333949D01*
X-5148580Y2377523D01*
X-5119465Y2333949D01*
X-5074555Y2303941D01*
X-5021580Y2293403D01*
X-4968605Y2303941D01*
X-4923695Y2333949D01*
X-4893687Y2378859D01*
X-4893357Y2380519D01*
X-4865465Y2338775D01*
X-4820555Y2308767D01*
X-4767580Y2298229D01*
X-4714605Y2308767D01*
X-4669695Y2338775D01*
X-4641803Y2380519D01*
X-4641473Y2378859D01*
X-4611465Y2333949D01*
X-4566555Y2303941D01*
X-4513580Y2293403D01*
X-4460605Y2303941D01*
X-4415695Y2333949D01*
X-4386580Y2377523D01*
X-4357465Y2333949D01*
X-4312555Y2303941D01*
X-4259580Y2293403D01*
X-4206605Y2303941D01*
X-4161695Y2333949D01*
X-4145030Y2358890D01*
X-4145030Y2348484D01*
X-4141399Y2329188D01*
X-4129995Y2311466D01*
X-4112595Y2299577D01*
X-4091940Y2295394D01*
X-3919220Y2295394D01*
X-3899924Y2299025D01*
X-3882202Y2310429D01*
X-3870313Y2327829D01*
X-3866130Y2348484D01*
X-3866130Y2551684D01*
X-3869761Y2570980D01*
X-3881165Y2588702D01*
X-3898565Y2600591D01*
X-3919220Y2604774D01*
X-4091940Y2604774D01*
X-4111236Y2601143D01*
X-4128958Y2589739D01*
X-4140847Y2572339D01*
X-4145030Y2551684D01*
X-4145030Y2541278D01*
X-4161695Y2566219D01*
X-4206605Y2596227D01*
X-4259580Y2606765D01*
X-4312555Y2596227D01*
X-4357465Y2566219D01*
X-4386580Y2522645D01*
X-4415695Y2566219D01*
X-4460605Y2596227D01*
X-4513580Y2606765D01*
X-4566555Y2596227D01*
X-4611465Y2566219D01*
X-4639357Y2524475D01*
X-4639687Y2526136D01*
X-4669695Y2571045D01*
X-4695510Y2588294D01*
X-4695510Y2605024D01*
X-4700996Y2632604D01*
X-4716619Y2655985D01*
X-4820251Y2759617D01*
X-4843632Y2775240D01*
X-4871212Y2780726D01*
X-8095234Y2780726D01*
X-8122814Y2775240D01*
X-8146195Y2759617D01*
X-9220361Y1685451D01*
X-9235984Y1662070D01*
X-9241470Y1634490D01*
X-9241470Y-2106987D01*
X-9259252Y-2118869D01*
X-9286797Y-2160093D01*
X-9294400Y-2198314D01*
X-9302003Y-2160093D01*
X-9329548Y-2118869D01*
X-9370772Y-2091323D01*
X-9419400Y-2081651D01*
X-9468028Y-2091323D01*
X-9509252Y-2118869D01*
X-9536797Y-2160093D01*
X-9546470Y-2208721D01*
X-9841733Y-2208721D01*
X-10339898Y-1710556D01*
X-10339898Y-1581669D01*
X-9876509Y-1581669D01*
X-9842013Y-1665157D01*
X-9778193Y-1729088D01*
X-9694765Y-1763730D01*
X-9604431Y-1763809D01*
X-9520943Y-1729313D01*
X-9457012Y-1665493D01*
X-9422370Y-1582065D01*
X-9422291Y-1491731D01*
X-9456787Y-1408243D01*
X-9520607Y-1344312D01*
X-9604035Y-1309670D01*
X-9694369Y-1309591D01*
X-9777857Y-1344087D01*
X-9841788Y-1407907D01*
X-9876431Y-1491335D01*
X-9876509Y-1581669D01*
X-10339898Y-1581669D01*
X-10339898Y-565969D01*
X-10103609Y-565969D01*
X-10069113Y-649457D01*
X-10005293Y-713388D01*
X-9921865Y-748030D01*
X-9831531Y-748109D01*
X-9748043Y-713613D01*
X-9684112Y-649793D01*
X-9649470Y-566365D01*
X-9649391Y-476031D01*
X-9683887Y-392543D01*
X-9747707Y-328612D01*
X-9831135Y-293970D01*
X-9921469Y-293891D01*
X-10004957Y-328387D01*
X-10068888Y-392207D01*
X-10103531Y-475635D01*
X-10103609Y-565969D01*
X-10339898Y-565969D01*
X-10339898Y-216621D01*
X-10012996Y-216621D01*
X-9992321Y-246466D01*
X-9906789Y-275529D01*
X-9816647Y-269648D01*
X-9760680Y-246466D01*
X-9740004Y-216621D01*
X-9876500Y-80125D01*
X-10012996Y-216621D01*
X-10339898Y-216621D01*
X-10339898Y-15711D01*
X-10106029Y-15711D01*
X-10100148Y-105853D01*
X-10076966Y-161821D01*
X-10047121Y-182496D01*
X-9910625Y-46000D01*
X-9842375Y-46000D01*
X-9705879Y-182496D01*
X-9676034Y-161821D01*
X-9646971Y-76289D01*
X-9652852Y13853D01*
X-9676034Y69821D01*
X-9705879Y90496D01*
X-9842375Y-46000D01*
X-9910625Y-46000D01*
X-10047121Y90496D01*
X-10076966Y69821D01*
X-10106029Y-15711D01*
X-10339898Y-15711D01*
X-10339898Y124621D01*
X-10012996Y124621D01*
X-9876500Y-11875D01*
X-9740004Y124621D01*
X-9760680Y154466D01*
X-9846211Y183529D01*
X-9936353Y177648D01*
X-9992321Y154466D01*
X-10012996Y124621D01*
X-10339898Y124621D01*
X-10339898Y379031D01*
X-10103609Y379031D01*
X-10069113Y295543D01*
X-10005293Y231612D01*
X-9921865Y196969D01*
X-9831531Y196891D01*
X-9748043Y231387D01*
X-9684112Y295207D01*
X-9649470Y378635D01*
X-9649391Y468969D01*
X-9683887Y552457D01*
X-9747707Y616388D01*
X-9831135Y651031D01*
X-9921469Y651109D01*
X-10004957Y616613D01*
X-10068888Y552793D01*
X-10103531Y469365D01*
X-10103609Y379031D01*
X-10339898Y379031D01*
X-10339898Y2040756D01*
X-10112960Y2267694D01*
X-10111976Y2265315D01*
X-10066425Y2219684D01*
X-10006879Y2194958D01*
X-9942404Y2194902D01*
X-9882815Y2219524D01*
X-9868657Y2233657D01*
X-9063718Y2233657D01*
X-9051066Y2210564D01*
X-8989199Y2192410D01*
X-8925094Y2199314D01*
X-8897934Y2210564D01*
X-8885282Y2233657D01*
X-8974500Y2322875D01*
X-9063718Y2233657D01*
X-9868657Y2233657D01*
X-9837184Y2265075D01*
X-9812458Y2324621D01*
X-9812417Y2371699D01*
X-9139090Y2371699D01*
X-9132186Y2307594D01*
X-9120936Y2280434D01*
X-9097843Y2267782D01*
X-9008625Y2357000D01*
X-8940375Y2357000D01*
X-8851157Y2267782D01*
X-8828064Y2280434D01*
X-8809910Y2342301D01*
X-8816814Y2406406D01*
X-8828064Y2433566D01*
X-8851157Y2446218D01*
X-8940375Y2357000D01*
X-9008625Y2357000D01*
X-9097843Y2446218D01*
X-9120936Y2433566D01*
X-9139090Y2371699D01*
X-9812417Y2371699D01*
X-9812402Y2389096D01*
X-9837024Y2448685D01*
X-9868626Y2480343D01*
X-9063718Y2480343D01*
X-8974500Y2391125D01*
X-8885282Y2480343D01*
X-8897934Y2503436D01*
X-8959801Y2521590D01*
X-9023906Y2514686D01*
X-9051066Y2503436D01*
X-9063718Y2480343D01*
X-9868626Y2480343D01*
X-9882575Y2494316D01*
X-9942121Y2519042D01*
X-10006596Y2519098D01*
X-10066185Y2494476D01*
X-10111816Y2448925D01*
X-10120061Y2429070D01*
X-10125576Y2429070D01*
X-10125576Y2429070D01*
X-10153156Y2423584D01*
X-10176537Y2407961D01*
X-10462929Y2121569D01*
X-10478552Y2098188D01*
X-10484038Y2070608D01*
X-11316873Y2070608D01*
X-11284533Y2150631D01*
X-11246822Y2237612D01*
X-11206881Y2323898D01*
X-11164682Y2409661D01*
X-11120199Y2495082D01*
X-11073411Y2580315D01*
X-11024290Y2665538D01*
X-10972818Y2750907D01*
X-10918966Y2836597D01*
X-10862710Y2922773D01*
X-10804036Y3009586D01*
X-10742920Y3097206D01*
X-10680576Y3184073D01*
X-10623350Y3250740D01*
X-10564249Y3316493D01*
X-10504482Y3379934D01*
X-10444050Y3441071D01*
X-10382956Y3499912D01*
X-10321213Y3556455D01*
X-10258817Y3610711D01*
X-10195777Y3662683D01*
X-10132096Y3712378D01*
X-10067778Y3759801D01*
X-10002828Y3804955D01*
X-9937244Y3847852D01*
X-9871031Y3888496D01*
X-9804193Y3926890D01*
X-9736733Y3963041D01*
X-9668643Y3996959D01*
X-9599936Y4028644D01*
X-9530606Y4058104D01*
X-9460655Y4085344D01*
X-9390079Y4110369D01*
X-9318887Y4133181D01*
X-9247069Y4153788D01*
X-9174628Y4172191D01*
X-9101567Y4188393D01*
X-9027881Y4202398D01*
X-8953568Y4214209D01*
X-8878631Y4223825D01*
X-8803076Y4231250D01*
X-8726888Y4236484D01*
X-8650080Y4239529D01*
X-8572662Y4240385D01*
X-8494614Y4239052D01*
M02*
